SplineFontDB: 3.0
FontName: PasseroOne-Regular
FullName: Passero One
FamilyName: Passero One
Weight: Book
Copyright: Copyright (c) 2011, Sorkin Type Co (www.sorkintype.com) with Reserved Font Names "Passero"
Version: 1.003
ItalicAngle: 0
UnderlinePosition: -103
UnderlineWidth: 102
Ascent: 1638
Descent: 410
sfntRevision: 0x000100c4
LayerCount: 2
Layer: 0 1 "Back"  1
Layer: 1 1 "Fore"  0
XUID: [1021 446 1005799138 8844341]
FSType: 0
OS2Version: 3
OS2_WeightWidthSlopeOnly: 0
OS2_UseTypoMetrics: 1
CreationTime: 1324352100
ModificationTime: 1324335045
PfmFamily: 17
TTFWeight: 400
TTFWidth: 5
LineGap: 0
VLineGap: 0
Panose: 2 11 6 3 5 3 2 2 1 4
OS2TypoAscent: 182
OS2TypoAOffset: 1
OS2TypoDescent: -208
OS2TypoDOffset: 1
OS2TypoLinegap: 0
OS2WinAscent: 0
OS2WinAOffset: 1
OS2WinDescent: 0
OS2WinDOffset: 1
HheadAscent: 0
HheadAOffset: 1
HheadDescent: 0
HheadDOffset: 1
OS2SubXSize: 0
OS2SubYSize: 0
OS2SubXOff: 0
OS2SubYOff: 0
OS2SupXSize: 0
OS2SupYSize: 0
OS2SupXOff: 0
OS2SupYOff: 0
OS2StrikeYSize: 0
OS2StrikeYPos: 0
OS2Vendor: 'STC '
OS2CodePages: 20000111.40000000
OS2UnicodeRanges: 800000a7.00000042.00000000.00000000
DEI: 91125
TtTable: prep
PUSHW_1
 511
SCANCTRL
PUSHB_1
 4
SVTCA[y-axis]
EndTTInstrs
ShortTable: maxp 16
  1
  0
  262
  156
  5
  56
  2
  1
  0
  0
  0
  0
  0
  0
  2
  1
EndShort

StartChar: .notdef
Encoding: 65536 -1 0
Width: 1710
Flags: W
LayerCount: 2
Fore
SplineSet
281 77 m 1,0,1
 190 205 190 205 150 496 c 0,2,3
 139 572 139 572 139 631.5 c 128,-1,4
 139 691 139 691 141.5 762.5 c 128,-1,5
 144 834 144 834 153 904 c 0,6,7
 174 1065 174 1065 223 1155 c 1,8,9
 284 1253 284 1253 421 1318 c 0,10,11
 526 1367 526 1367 778 1393 c 0,12,13
 855 1401 855 1401 922 1401 c 128,-1,14
 989 1401 989 1401 1053.5 1393 c 128,-1,15
 1118 1385 1118 1385 1176 1372 c 0,16,17
 1294 1346 1294 1346 1361 1308 c 1,18,19
 1572 1163 1572 1163 1572 692 c 0,20,21
 1572 519 1572 519 1500 282 c 0,22,23
 1425 34 1425 34 1336 -32 c 1,24,25
 1243 -98 1243 -98 977 -105 c 1,26,-1
 958 -105 l 2,27,28
 629 -105 629 -105 390 12 c 0,29,30
 324 45 324 45 281 77 c 1,0,1
675 153 m 1,31,32
 683 212 683 212 715 296 c 2,33,-1
 759 413 l 2,34,35
 772 446 772 446 784 472 c 1,36,-1
 802 515 l 1,37,-1
 826 527 l 1,38,-1
 1083 99 l 1,39,-1
 1282 245 l 1,40,41
 1261 283 1261 283 1220 336 c 1,42,43
 1079 510 1079 510 1044 550 c 2,44,-1
 987 613 l 1,45,-1
 1065 652 l 1,46,47
 1080 673 1080 673 1100 704 c 1,48,49
 1254 958 1254 958 1278 1064 c 1,50,-1
 1049 1140 l 1,51,52
 1042 1118 1042 1118 1030 1086 c 1,53,54
 910 795 910 795 895 761 c 1,55,-1
 876 751 l 1,56,-1
 632 1158 l 1,57,-1
 433 1013 l 1,58,59
 459 962 459 962 526 880 c 1,60,61
 656 725 656 725 709 667 c 1,62,-1
 621 619 l 1,63,64
 532 500 532 500 472 315 c 0,65,66
 452 251 452 251 443 187 c 1,67,-1
 675 153 l 1,31,32
EndSplineSet
EndChar

StartChar: exclam
Encoding: 33 33 23
Width: 600
GlyphClass: 2
Flags: W
LayerCount: 2
Fore
SplineSet
186 1326 m 1,0,-1
 430 1371 l 1,1,-1
 434 1087 l 1,2,-1
 387 448 l 1,3,-1
 196 460 l 1,4,-1
 186 1326 l 1,0,-1
411 268 m 1,5,6
 422 230 422 230 422 184.5 c 128,-1,7
 422 139 422 139 419 108 c 128,-1,8
 416 77 416 77 412 50 c 0,9,10
 402 -7 402 -7 389 -31 c 1,11,-1
 166 -6 l 1,12,13
 175 63 175 63 177.5 146.5 c 128,-1,14
 180 230 180 230 182 256 c 1,15,-1
 411 268 l 1,5,6
EndSplineSet
EndChar

StartChar: quotedbl
Encoding: 34 34 24
Width: 819
GlyphClass: 2
Flags: W
LayerCount: 2
Fore
SplineSet
702 1329 m 1,0,1
 728 1251 728 1251 728 1155 c 0,2,3
 728 987 728 987 686 821 c 1,4,-1
 526 793 l 1,5,6
 529 836 529 836 529 881 c 0,7,8
 529 1083 529 1083 483 1292 c 1,9,-1
 702 1329 l 1,0,1
313 1329 m 1,10,11
 339 1251 339 1251 339 1155 c 0,12,13
 339 987 339 987 297 821 c 1,14,-1
 137 793 l 1,15,16
 140 836 140 836 140 881 c 0,17,18
 140 1083 140 1083 94 1292 c 1,19,-1
 313 1329 l 1,10,11
EndSplineSet
EndChar

StartChar: numbersign
Encoding: 35 35 25
Width: 1294
GlyphClass: 2
Flags: W
LayerCount: 2
Fore
SplineSet
697 242 m 1,0,1
 587 240 587 240 477 240 c 2,2,-1
 440 240 l 1,3,-1
 354 -49 l 1,4,-1
 211 -12 l 1,5,-1
 277 242 l 1,6,7
 176 244 176 244 73 250 c 1,8,-1
 102 416 l 1,9,-1
 323 416 l 1,10,-1
 383 644 l 1,11,12
 265 646 265 646 151 653 c 1,13,-1
 178 819 l 1,14,-1
 429 819 l 1,15,-1
 516 1149 l 1,16,-1
 694 1110 l 1,17,-1
 611 819 l 1,18,-1
 849 819 l 1,19,-1
 936 1149 l 1,20,-1
 1114 1110 l 1,21,-1
 1031 819 l 1,22,-1
 1231 819 l 1,23,-1
 1212 662 l 1,24,25
 1095 656 1095 656 983 652 c 1,26,-1
 912 416 l 1,27,-1
 1153 416 l 1,28,-1
 1134 258 l 1,29,-1
 1002 252 l 2,30,31
 934 249 934 249 862 247 c 1,32,-1
 774 -49 l 1,33,-1
 630 -12 l 1,34,-1
 697 242 l 1,0,1
743 416 m 1,35,-1
 803 646 l 1,36,37
 683 643 683 643 560 643 c 1,38,-1
 492 416 l 1,39,-1
 743 416 l 1,35,-1
EndSplineSet
EndChar

StartChar: dollar
Encoding: 36 36 26
Width: 833
GlyphClass: 2
Flags: W
LayerCount: 2
Fore
SplineSet
287 -47 m 1,0,1
 193 -58 193 -58 112 -63 c 1,2,-1
 84 160 l 1,3,-1
 298 176 l 2,4,5
 397 183 397 183 497 197 c 1,6,-1
 504 319 l 1,7,-1
 153 457 l 2,8,9
 122 469 122 469 106 503.5 c 128,-1,10
 90 538 90 538 90 558 c 128,-1,11
 90 578 90 578 90.5 585 c 128,-1,12
 91 592 91 592 94 615 c 2,13,-1
 114 808 l 1,14,15
 124 888 124 888 196 920 c 0,16,17
 235 938 235 938 277 947 c 2,18,-1
 370 968 l 1,19,-1
 388 1278 l 1,20,-1
 582 1284 l 1,21,-1
 543 1002 l 1,22,-1
 629 1019 l 2,23,24
 670 1027 670 1027 701 1032 c 1,25,-1
 746 802 l 1,26,-1
 327 752 l 1,27,-1
 311 651 l 1,28,-1
 680 479 l 2,29,30
 747 448 747 448 737 360 c 2,31,-1
 710 109 l 2,32,33
 701 32 701 32 585 6 c 1,34,35
 535 -8 535 -8 462 -20 c 1,36,-1
 445 -273 l 1,37,-1
 260 -257 l 1,38,-1
 287 -47 l 1,0,1
EndSplineSet
EndChar

StartChar: percent
Encoding: 37 37 27
Width: 1510
GlyphClass: 2
Flags: W
LayerCount: 2
Fore
SplineSet
1005 1345 m 1,0,-1
 1203 1253 l 1,1,-1
 492 -92 l 1,2,-1
 332 -15 l 1,3,-1
 1005 1345 l 1,0,-1
537.5 686.5 m 128,-1,5
 481 659 481 659 408.5 659 c 128,-1,6
 336 659 336 659 280 682.5 c 128,-1,7
 224 706 224 706 185 750 c 0,8,9
 104 840 104 840 104 991 c 0,10,11
 104 1117 104 1117 192 1187 c 0,12,13
 274 1253 274 1253 413 1253 c 0,14,15
 612 1253 612 1253 682 1113 c 0,16,17
 706 1065 706 1065 706 998 c 128,-1,18
 706 931 706 931 687.5 869 c 128,-1,19
 669 807 669 807 631.5 760.5 c 128,-1,4
 594 714 594 714 537.5 686.5 c 128,-1,5
292 979 m 0,20,21
 292 843 292 843 399 843 c 0,22,23
 455 843 455 843 476 862 c 0,24,25
 515 897 515 897 515 962 c 128,-1,26
 515 1027 515 1027 487 1048 c 128,-1,27
 459 1069 459 1069 422.5 1069 c 128,-1,28
 386 1069 386 1069 365.5 1064.5 c 128,-1,29
 345 1060 345 1060 328 1050 c 1,30,31
 292 1026 292 1026 292 979 c 0,20,21
813 295 m 0,32,33
 813 365 813 365 836 414 c 128,-1,34
 859 463 859 463 900 496 c 0,35,36
 984 562 984 562 1122 562 c 0,37,38
 1321 562 1321 562 1391 422 c 0,39,40
 1415 374 1415 374 1415 307 c 128,-1,41
 1415 240 1415 240 1396.5 178 c 128,-1,42
 1378 116 1378 116 1340 70 c 1,43,44
 1259 -32 1259 -32 1114 -32 c 0,45,46
 975 -32 975 -32 894 58.5 c 128,-1,47
 813 149 813 149 813 295 c 0,32,33
1001 288 m 0,48,49
 1001 152 1001 152 1108 152 c 0,50,51
 1164 152 1164 152 1185 171 c 0,52,53
 1224 206 1224 206 1224 271 c 128,-1,54
 1224 336 1224 336 1196 357 c 128,-1,55
 1168 378 1168 378 1131.5 378 c 128,-1,56
 1095 378 1095 378 1074.5 373.5 c 128,-1,57
 1054 369 1054 369 1038 358 c 0,58,59
 1001 335 1001 335 1001 288 c 0,48,49
EndSplineSet
EndChar

StartChar: ampersand
Encoding: 38 38 28
Width: 1203
GlyphClass: 2
Flags: W
LayerCount: 2
Fore
SplineSet
759 872 m 1,0,1
 734 1020 734 1020 701 1097 c 1,2,-1
 492 1057 l 1,3,4
 471 973 471 973 469 852 c 1,5,6
 537 812 537 812 615 772 c 2,7,-1
 775 692 l 1,8,-1
 1100 540 l 1,9,-1
 981 326 l 1,10,11
 779 427 779 427 739 448 c 1,12,-1
 588 532 l 2,13,14
 552 553 552 553 522 573 c 1,15,16
 496 543 496 543 475 512 c 2,17,-1
 442 465 l 2,18,19
 431 448 431 448 424 439 c 1,20,21
 429 350 429 350 463 248 c 1,22,23
 571 212 571 212 805 212 c 0,24,25
 860 212 860 212 919 215 c 1,26,-1
 904 -6 l 1,27,28
 829 -17 829 -17 754.5 -17 c 128,-1,29
 680 -17 680 -17 604.5 -8 c 128,-1,30
 529 1 529 1 466 14 c 0,31,32
 343 39 343 39 302.5 61.5 c 128,-1,33
 262 84 262 84 247 103.5 c 128,-1,34
 232 123 232 123 216 179 c 0,35,36
 178 318 178 318 178 458 c 0,37,38
 178 486 178 486 216 532 c 1,39,40
 291 626 291 626 373 667 c 1,41,-1
 373 692 l 1,42,-1
 330 720 l 2,43,44
 224 789 224 789 224 820 c 0,45,46
 224 1044 224 1044 252 1122 c 0,47,48
 273 1180 273 1180 308 1198 c 1,49,50
 473 1300 473 1300 727 1331 c 1,51,52
 771 1331 771 1331 823 1297 c 0,53,54
 916 1236 916 1236 926.5 1209 c 128,-1,55
 937 1182 937 1182 947.5 1148.5 c 128,-1,56
 958 1115 958 1115 968 1078 c 0,57,58
 987 1004 987 1004 999 933 c 1,59,-1
 759 872 l 1,0,1
EndSplineSet
EndChar

StartChar: quotesingle
Encoding: 39 39 29
Width: 430
GlyphClass: 2
Flags: W
LayerCount: 2
Fore
SplineSet
313 1329 m 1,0,1
 339 1251 339 1251 339 1155 c 0,2,3
 339 987 339 987 297 821 c 1,4,-1
 137 793 l 1,5,6
 140 836 140 836 140 881 c 0,7,8
 140 1083 140 1083 94 1292 c 1,9,-1
 313 1329 l 1,0,1
EndSplineSet
EndChar

StartChar: parenleft
Encoding: 40 40 30
Width: 620
GlyphClass: 2
Flags: W
LayerCount: 2
Fore
SplineSet
143 549 m 1,0,1
 159 1086 159 1086 401 1614 c 1,2,-1
 585 1542 l 1,3,4
 451 1169 451 1169 398 750 c 0,5,6
 389 679 389 679 385 628 c 2,7,-1
 379 549 l 1,8,9
 379 211 379 211 496 -170 c 1,10,-1
 573 -410 l 1,11,-1
 379 -483 l 1,12,13
 206 -75 206 -75 163 316 c 0,14,15
 150 433 150 433 143 549 c 1,0,1
EndSplineSet
EndChar

StartChar: parenright
Encoding: 41 41 31
Width: 641
GlyphClass: 2
Flags: W
LayerCount: 2
Fore
SplineSet
25 -385 m 1,0,1
 133 -87 133 -87 189 247 c 0,2,3
 217 414 217 414 231 608 c 1,4,5
 231 946 231 946 114 1327 c 1,6,-1
 37 1567 l 1,7,-1
 231 1640 l 1,8,9
 415 1206 415 1206 456 842 c 0,10,11
 470 724 470 724 473 608 c 1,12,13
 448 73 448 73 209 -457 c 1,14,-1
 25 -385 l 1,0,1
EndSplineSet
EndChar

StartChar: asterisk
Encoding: 42 42 32
Width: 899
GlyphClass: 2
Flags: W
LayerCount: 2
Fore
SplineSet
119 1075 m 1,0,1
 119 1075 119 1075 176 1126 c 0,2,3
 275 1214 275 1214 357 1258 c 1,4,5
 172 1275 172 1275 60 1339 c 1,6,-1
 167 1551 l 1,7,8
 346 1421 346 1421 402 1372 c 1,9,10
 367 1486 367 1486 351 1680 c 1,11,-1
 606 1660 l 1,12,13
 568 1489 568 1489 506 1361 c 1,14,15
 634 1459 634 1459 772 1531 c 1,16,-1
 849 1284 l 1,17,18
 712 1258 712 1258 560 1258 c 1,19,-1
 676 1168 l 2,20,21
 741 1117 741 1117 809 1050 c 1,22,-1
 596 917 l 1,23,-1
 558 978 l 2,24,25
 539 1010 539 1010 520 1044 c 1,26,-1
 484 1114 l 2,27,28
 467 1149 467 1149 454 1184 c 1,29,30
 380 1029 380 1029 294 922 c 1,31,-1
 119 1075 l 1,0,1
EndSplineSet
EndChar

StartChar: plus
Encoding: 43 43 33
Width: 1155
GlyphClass: 2
Flags: W
LayerCount: 2
Fore
SplineSet
153 600 m 1,0,-1
 479 603 l 1,1,-1
 471 977 l 1,2,-1
 700 1022 l 1,3,-1
 700 799 l 1,4,-1
 694 606 l 1,5,-1
 1040 610 l 1,6,-1
 1030 422 l 1,7,8
 939 418 939 418 859 414 c 128,-1,9
 779 410 779 410 694 407 c 1,10,-1
 694 406 l 1,11,-1
 678 -4 l 1,12,-1
 483 -20 l 1,13,-1
 481 403 l 1,14,-1
 458 403 l 2,15,16
 301 403 301 403 125 414 c 1,17,-1
 153 600 l 1,0,-1
EndSplineSet
EndChar

StartChar: comma
Encoding: 44 44 34
Width: 483
GlyphClass: 2
Flags: W
LayerCount: 2
Fore
SplineSet
370 270 m 1,0,1
 398 210 398 210 398 124.5 c 128,-1,2
 398 39 398 39 389 -17 c 128,-1,3
 380 -73 380 -73 361 -124 c 0,4,5
 327 -213 327 -213 241 -332 c 1,6,-1
 96 -322 l 1,7,8
 162 -208 162 -208 186 -83 c 0,9,10
 194 -44 194 -44 194 -12 c 1,11,-1
 116 -4 l 1,12,-1
 94 236 l 1,13,-1
 370 270 l 1,0,1
EndSplineSet
EndChar

StartChar: hyphen
Encoding: 45 45 35
Width: 943
GlyphClass: 2
Flags: W
LayerCount: 2
Fore
SplineSet
153 629 m 1,0,-1
 828 639 l 1,1,-1
 818 432 l 1,2,3
 721 428 721 428 678 424.5 c 128,-1,4
 635 421 635 421 607 419.5 c 128,-1,5
 579 418 579 418 546 416 c 0,6,7
 469 413 469 413 397 413 c 128,-1,8
 325 413 325 413 297.5 413.5 c 128,-1,9
 270 414 270 414 248 415.5 c 128,-1,10
 226 417 226 417 199.5 419 c 128,-1,11
 173 421 173 421 125 424 c 1,12,-1
 153 629 l 1,0,-1
EndSplineSet
EndChar

StartChar: period
Encoding: 46 46 36
Width: 503
GlyphClass: 2
Flags: W
LayerCount: 2
Fore
SplineSet
129 -2 m 1,0,1
 137 131 137 131 137 180.5 c 128,-1,2
 137 230 137 230 135 260 c 1,3,-1
 377 285 l 1,4,5
 388 243 388 243 388 175 c 0,6,7
 388 30 388 30 358 -25 c 1,8,-1
 129 -2 l 1,0,1
EndSplineSet
EndChar

StartChar: slash
Encoding: 47 47 37
Width: 759
GlyphClass: 2
Flags: W
LayerCount: 2
Fore
SplineSet
522 1393 m 1,0,-1
 741 1333 l 1,1,-1
 217 -174 l 1,2,-1
 26 -135 l 1,3,-1
 522 1393 l 1,0,-1
EndSplineSet
EndChar

StartChar: zero
Encoding: 48 48 38
Width: 1077
GlyphClass: 2
Flags: W
LayerCount: 2
Fore
SplineSet
911 674 m 1,0,1
 913 640 913 640 913 588 c 128,-1,2
 913 536 913 536 906.5 463 c 128,-1,3
 900 390 900 390 890 323 c 0,4,5
 872 191 872 191 855.5 138 c 128,-1,6
 839 85 839 85 834.5 67 c 128,-1,7
 830 49 830 49 823 34 c 0,8,9
 807 -1 807 -1 780.5 -10 c 128,-1,10
 754 -19 754 -19 715.5 -23 c 128,-1,11
 677 -27 677 -27 638 -28 c 0,12,13
 572 -31 572 -31 530 -31 c 0,14,15
 286 -31 286 -31 236 26 c 0,16,17
 184 84 184 84 152 428 c 0,18,19
 141 546 141 546 141 600.5 c 128,-1,20
 141 655 141 655 142 686.5 c 128,-1,21
 143 718 143 718 146 747 c 0,22,23
 155 854 155 854 164.5 882 c 128,-1,24
 174 910 174 910 185 923 c 0,25,26
 208 950 208 950 264 963 c 0,27,28
 557 1028 557 1028 874 1028 c 1,29,-1
 900 1027 l 2,30,31
 904 1026 904 1026 907 1026 c 1,32,-1
 925 795 l 1,33,34
 901 797 901 797 882 797 c 2,35,-1
 835 797 l 2,36,37
 647 797 647 797 537 779.5 c 128,-1,38
 427 762 427 762 407 756 c 1,39,40
 393 653 393 653 393 491.5 c 128,-1,41
 393 330 393 330 430 182 c 1,42,-1
 624 182 l 1,43,44
 656 332 656 332 669 582 c 2,45,-1
 672 641 l 1,46,-1
 911 674 l 1,0,1
EndSplineSet
EndChar

StartChar: one
Encoding: 49 49 39
Width: 853
GlyphClass: 2
Flags: W
LayerCount: 2
Fore
SplineSet
739 -59 m 1,0,1
 372 -47 372 -47 123 -4 c 1,2,-1
 143 186 l 1,3,-1
 348 176 l 1,4,-1
 338 651 l 1,5,6
 188 651 188 651 94 666 c 1,7,-1
 139 895 l 1,8,-1
 338 856 l 1,9,-1
 338 1001 l 1,10,-1
 571 1032 l 1,11,12
 587 954 587 954 587 854 c 0,13,14
 587 715 587 715 583 649 c 2,15,-1
 551 166 l 1,16,-1
 755 156 l 1,17,-1
 739 -59 l 1,0,1
EndSplineSet
EndChar

StartChar: two
Encoding: 50 50 40
Width: 960
GlyphClass: 2
Flags: W
LayerCount: 2
Fore
SplineSet
794 -63 m 1,0,1
 397 -43 397 -43 131 57 c 1,2,3
 122 121 122 121 122 188 c 0,4,5
 122 310 122 310 141 418 c 1,6,7
 300 467 300 467 481 571 c 0,8,9
 533 601 533 601 567 627 c 1,10,-1
 563 713 l 1,11,12
 407 768 407 768 145 801 c 1,13,-1
 213 1026 l 1,14,15
 504 981 504 981 585.5 957.5 c 128,-1,16
 667 934 667 934 708 919.5 c 128,-1,17
 749 905 749 905 761.5 893.5 c 128,-1,18
 774 882 774 882 781 869.5 c 128,-1,19
 788 857 788 857 791 845 c 2,20,-1
 796 825 l 1,21,22
 814 758 814 758 814 688 c 0,23,24
 814 510 814 510 790 490 c 0,25,26
 666 381 666 381 351 297 c 1,27,-1
 345 221 l 1,28,29
 434 198 434 198 603.5 185 c 128,-1,30
 773 172 773 172 831 170 c 1,31,-1
 794 -63 l 1,0,1
EndSplineSet
EndChar

StartChar: three
Encoding: 51 51 41
Width: 950
GlyphClass: 2
Flags: W
LayerCount: 2
Fore
SplineSet
69 -143 m 1,0,-1
 307 -28 l 1,1,2
 454 46 454 46 553 115 c 1,3,4
 556 133 556 133 556 152 c 0,5,6
 556 192 556 192 547 219 c 1,7,-1
 391 315 l 1,8,-1
 298 266 l 2,9,10
 256 244 256 244 207 221 c 1,11,-1
 108 428 l 1,12,-1
 298 508 l 2,13,14
 401 551 401 551 516 616 c 1,15,16
 516 659 516 659 506 709 c 1,17,18
 391 751 391 751 155 787 c 2,19,-1
 88 797 l 1,20,-1
 160 1026 l 1,21,-1
 312 997 l 1,22,23
 530 954 530 954 680 895 c 1,24,25
 712 879 712 879 722 856 c 0,26,27
 753 787 753 787 753 674 c 0,28,29
 753 616 753 616 743 526 c 1,30,-1
 616 450 l 2,31,32
 595 437 595 437 577 428 c 1,33,-1
 575 412 l 1,34,-1
 729 358 l 1,35,36
 802 329 802 329 808 212 c 0,37,38
 809 181 809 181 809 147 c 0,39,40
 809 52 809 52 788 31 c 0,41,42
 683 -80 683 -80 480 -201 c 1,43,-1
 370 -265 l 1,44,45
 266 -322 266 -322 205 -348 c 1,46,-1
 69 -143 l 1,0,-1
EndSplineSet
EndChar

StartChar: four
Encoding: 52 52 42
Width: 1085
GlyphClass: 2
Flags: W
LayerCount: 2
Fore
SplineSet
823 232 m 1,0,1
 956 225 956 225 1016 225 c 1,2,-1
 989 4 l 1,3,4
 947 4 947 4 902 6 c 2,5,-1
 810 10 l 1,6,-1
 794 -262 l 1,7,-1
 583 -283 l 1,8,-1
 588 28 l 1,9,10
 266 58 266 58 82 111 c 1,11,-1
 78 268 l 1,12,13
 165 537 165 537 223 838 c 1,14,-1
 258 1016 l 1,15,-1
 489 981 l 1,16,17
 489 869 489 869 456 751 c 128,-1,18
 423 633 423 633 399 557 c 2,19,-1
 309 279 l 1,20,21
 340 272 340 272 396 266 c 2,22,-1
 496 256 l 2,23,24
 542 251 542 251 592 247 c 1,25,-1
 600 674 l 1,26,-1
 833 713 l 1,27,28
 839 673 839 673 839 606 c 0,29,30
 839 498 839 498 833 393 c 2,31,-1
 823 232 l 1,0,1
EndSplineSet
EndChar

StartChar: five
Encoding: 53 53 43
Width: 901
GlyphClass: 2
Flags: W
LayerCount: 2
Fore
SplineSet
702 1026 m 1,0,-1
 734 1025 l 2,1,2
 740 1024 740 1024 745 1024 c 1,3,-1
 755 788 l 1,4,5
 747 789 747 789 730 790 c 1,6,-1
 696 790 l 1,7,8
 678 791 678 791 661 791 c 2,9,-1
 635 791 l 2,10,11
 491 791 491 791 366 771 c 1,12,-1
 341 554 l 1,13,14
 523 520 523 520 692 452 c 0,15,16
 737 434 737 434 750 380 c 0,17,18
 772 294 772 294 772 208 c 0,19,20
 772 67 772 67 753 29 c 1,21,22
 627 -104 627 -104 338 -265 c 0,23,24
 223 -329 223 -329 166 -350 c 1,25,-1
 55 -131 l 1,26,27
 246 -43 246 -43 296 -18 c 0,28,29
 422 44 422 44 522 111 c 1,30,31
 526 139 526 139 526 176 c 0,32,33
 526 256 526 256 509.5 268 c 128,-1,34
 493 280 493 280 447 296.5 c 128,-1,35
 401 313 401 313 344 330 c 1,36,-1
 116 393 l 1,37,-1
 149 956 l 1,38,39
 454 1026 454 1026 702 1026 c 1,0,-1
EndSplineSet
EndChar

StartChar: six
Encoding: 54 54 44
Width: 1003
GlyphClass: 2
Flags: W
LayerCount: 2
Fore
SplineSet
356 528 m 2,0,1
 356 303 356 303 393 180 c 1,2,-1
 620 190 l 1,3,4
 661 289 661 289 661 432 c 0,5,6
 661 472 661 472 657 512 c 1,7,8
 607 533 607 533 531 549 c 2,9,-1
 436 569 l 1,10,-1
 502 788 l 1,11,12
 653 759 653 759 741 722 c 128,-1,13
 829 685 829 685 848 672 c 0,14,15
 881 650 881 650 892 604 c 128,-1,16
 903 558 903 558 903 479 c 128,-1,17
 903 400 903 400 892.5 331.5 c 128,-1,18
 882 263 882 263 868 203 c 0,19,20
 839 86 839 86 811 35 c 1,21,22
 768 -24 768 -24 610 -29 c 0,23,24
 546 -31 546 -31 485 -31 c 0,25,26
 224 -31 224 -31 184 66 c 1,27,28
 108 243 108 243 108 686 c 2,29,-1
 108 713 l 2,30,31
 108 854 108 854 422 1159 c 1,32,-1
 614 1341 l 1,33,-1
 774 1174 l 1,34,35
 518 928 518 928 466 874 c 1,36,-1
 364 762 l 1,37,38
 356 701 356 701 356 629 c 2,39,-1
 356 528 l 2,0,1
EndSplineSet
EndChar

StartChar: seven
Encoding: 55 55 45
Width: 831
GlyphClass: 2
Flags: W
LayerCount: 2
Fore
SplineSet
163.5 -174 m 128,-1,1
 169 -147 169 -147 178 -106 c 0,2,3
 246 180 246 180 273 252.5 c 128,-1,4
 300 325 300 325 321 371.5 c 128,-1,5
 342 418 342 418 360 452 c 2,6,-1
 510 727 l 1,7,-1
 504 756 l 1,8,9
 327 783 327 783 45 797 c 1,10,-1
 92 1026 l 1,11,12
 141 1021 141 1021 185 1017 c 2,13,-1
 270 1009 l 1,14,15
 545 982 545 982 710 938 c 1,16,-1
 737 715 l 1,17,-1
 516 266 l 1,18,-1
 383 -266 l 1,19,-1
 153 -223 l 1,20,0
 158 -201 158 -201 163.5 -174 c 128,-1,1
EndSplineSet
EndChar

StartChar: eight
Encoding: 56 56 46
Width: 1069
GlyphClass: 2
Flags: W
LayerCount: 2
Fore
SplineSet
855 1298 m 1,0,-1
 878 1297 l 2,1,2
 882 1296 882 1296 885 1296 c 1,3,-1
 910 1067 l 1,4,-1
 822 1063 l 2,5,6
 466 1047 466 1047 388 1020 c 1,7,8
 374 943 374 943 374 861 c 2,9,-1
 374 844 l 1,10,11
 412 805 412 805 458 768 c 1,12,-1
 551 696 l 1,13,-1
 646 797 l 1,14,15
 649 824 649 824 649 850 c 128,-1,16
 649 876 649 876 648 899 c 2,17,-1
 646 946 l 1,18,19
 666 949 666 949 682.5 950.5 c 128,-1,20
 699 952 699 952 719.5 954.5 c 128,-1,21
 740 957 740 957 761 959 c 2,22,-1
 875 971 l 1,23,24
 870 900 870 900 867 842 c 128,-1,25
 864 784 864 784 855 754 c 0,26,27
 838 699 838 699 801 676 c 2,28,-1
 686 602 l 1,29,-1
 837 495 l 2,30,31
 914 440 914 440 914 379 c 0,32,33
 914 258 914 258 874 118 c 0,34,35
 850 36 850 36 816 0 c 1,36,37
 770 -31 770 -31 588 -31 c 2,38,-1
 541 -31 l 2,39,40
 381 -31 381 -31 261 2 c 1,41,42
 198 18 198 18 185 82 c 1,43,44
 149 212 149 212 149 318 c 0,45,46
 149 401 149 401 167 432 c 128,-1,47
 185 463 185 463 204 477 c 2,48,-1
 343 575 l 1,49,-1
 228 651 l 2,50,51
 176 685 176 685 163 705 c 1,52,53
 144 738 144 738 144 789.5 c 128,-1,54
 144 841 144 841 146.5 896 c 128,-1,55
 149 951 149 951 155 1004 c 0,56,57
 169 1132 169 1132 186.5 1159 c 128,-1,58
 204 1186 204 1186 223.5 1197.5 c 128,-1,59
 243 1209 243 1209 283 1220.5 c 128,-1,60
 323 1232 323 1232 391 1246.5 c 128,-1,61
 459 1261 459 1261 537 1272 c 0,62,63
 721 1298 721 1298 855 1298 c 1,0,-1
384 375 m 1,64,65
 384 280 384 280 400 197 c 1,66,67
 464 181 464 181 545 181 c 128,-1,68
 626 181 626 181 650 184 c 1,69,70
 672 278 672 278 672 356 c 2,71,-1
 672 367 l 1,72,-1
 502 489 l 1,73,-1
 384 375 l 1,64,65
EndSplineSet
EndChar

StartChar: nine
Encoding: 57 57 47
Width: 1038
GlyphClass: 2
Flags: W
LayerCount: 2
Fore
SplineSet
633 801 m 1,0,-1
 567 803 l 1,1,2
 444 803 444 803 360 780 c 1,3,4
 344 708 344 708 344 654 c 0,5,6
 344 551 344 551 358 451 c 1,7,8
 410 428 410 428 551 401 c 1,9,-1
 483 184 l 1,10,11
 281 222 281 222 184 291 c 0,12,13
 157 311 157 311 145.5 349 c 128,-1,14
 134 387 134 387 127 424.5 c 128,-1,15
 120 462 120 462 116 502 c 0,16,17
 106 586 106 586 106 642.5 c 128,-1,18
 106 699 106 699 108.5 737 c 128,-1,19
 111 775 111 775 116 810 c 0,20,21
 129 887 129 887 145 912 c 0,22,23
 189 979 189 979 325 1000 c 0,24,25
 497 1026 497 1026 602.5 1026 c 128,-1,26
 708 1026 708 1026 738 1023.5 c 128,-1,27
 768 1021 768 1021 791 1012 c 0,28,29
 838 994 838 994 858 940 c 0,30,31
 901 823 901 823 901 675 c 0,32,33
 901 452 901 452 884 301 c 1,34,35
 864 98 864 98 372 -346 c 1,36,-1
 200 -193 l 1,37,38
 366 -37 366 -37 427 28 c 1,39,40
 567 182 567 182 636 267 c 1,41,42
 659 388 659 388 659 526.5 c 128,-1,43
 659 665 659 665 633 801 c 1,0,-1
EndSplineSet
EndChar

StartChar: colon
Encoding: 58 58 48
Width: 501
GlyphClass: 2
Flags: W
LayerCount: 2
Fore
SplineSet
370 1042 m 1,0,1
 394 962 394 962 394 885 c 128,-1,2
 394 808 394 808 381 737 c 1,3,-1
 135 743 l 1,4,-1
 116 1012 l 1,5,-1
 370 1042 l 1,0,1
393 162 m 0,6,7
 393 12 393 12 362 -45 c 1,8,-1
 123 -23 l 1,9,10
 133 85 133 85 133 152.5 c 128,-1,11
 133 220 133 220 131 250 c 1,12,-1
 381 276 l 1,13,14
 393 237 393 237 393 162 c 0,6,7
EndSplineSet
EndChar

StartChar: semicolon
Encoding: 59 59 49
Width: 557
GlyphClass: 2
Flags: W
LayerCount: 2
Fore
SplineSet
366 1022 m 1,0,1
 388 944 388 944 388 868.5 c 128,-1,2
 388 793 388 793 377 729 c 1,3,-1
 139 733 l 1,4,-1
 123 991 l 1,5,-1
 366 1022 l 1,0,1
411 270 m 1,6,7
 439 210 439 210 439 124.5 c 128,-1,8
 439 39 439 39 430 -17 c 128,-1,9
 421 -73 421 -73 402 -124 c 0,10,11
 368 -213 368 -213 282 -332 c 1,12,-1
 137 -322 l 1,13,14
 203 -208 203 -208 228 -83 c 0,15,16
 235 -44 235 -44 235 -12 c 1,17,-1
 157 -4 l 1,18,-1
 135 236 l 1,19,-1
 411 270 l 1,6,7
EndSplineSet
EndChar

StartChar: less
Encoding: 60 60 50
Width: 1050
GlyphClass: 2
Flags: W
LayerCount: 2
Fore
SplineSet
147 602 m 1,0,-1
 782 1038 l 1,1,-1
 899 877 l 1,2,-1
 346 504 l 1,3,-1
 899 152 l 1,4,-1
 778 -18 l 1,5,-1
 106 430 l 1,6,-1
 147 602 l 1,0,-1
EndSplineSet
EndChar

StartChar: equal
Encoding: 61 61 51
Width: 1104
GlyphClass: 2
Flags: W
LayerCount: 2
Fore
SplineSet
215 827 m 1,0,-1
 938 827 l 1,1,-1
 923 647 l 1,2,3
 798 637 798 637 666 637 c 128,-1,4
 534 637 534 637 476 638 c 1,5,-1
 362 638 l 1,6,7
 233 640 233 640 176 643 c 1,8,-1
 215 827 l 1,0,-1
215 436 m 1,9,-1
 938 436 l 1,10,-1
 923 256 l 1,11,12
 718 242 718 242 598.5 242 c 128,-1,13
 479 242 479 242 430 242.5 c 128,-1,14
 381 243 381 243 334.5 244.5 c 128,-1,15
 288 246 288 246 246.5 247 c 128,-1,16
 205 248 205 248 176 250 c 1,17,-1
 215 436 l 1,9,-1
EndSplineSet
EndChar

StartChar: greater
Encoding: 62 62 52
Width: 1050
GlyphClass: 2
Flags: W
LayerCount: 2
Fore
SplineSet
690 506 m 1,0,-1
 137 858 l 1,1,-1
 258 1028 l 1,2,-1
 930 580 l 1,3,-1
 889 408 l 1,4,-1
 254 -28 l 1,5,-1
 137 133 l 1,6,-1
 690 506 l 1,0,-1
EndSplineSet
EndChar

StartChar: question
Encoding: 63 63 53
Width: 780
GlyphClass: 2
Flags: W
LayerCount: 2
Fore
SplineSet
161 453 m 1,0,1
 154 488 154 488 154 520.5 c 128,-1,2
 154 553 154 553 167 571.5 c 128,-1,3
 180 590 180 590 213.5 620.5 c 128,-1,4
 247 651 247 651 287 684 c 1,5,-1
 368 748 l 1,6,7
 410 779 410 779 442 807 c 1,8,9
 446 841 446 841 446 905.5 c 128,-1,10
 446 970 446 970 428 1068 c 1,11,12
 356 1075 356 1075 281 1091 c 2,13,-1
 160 1116 l 2,14,15
 115 1126 115 1126 74 1137 c 1,16,-1
 107 1380 l 1,17,-1
 638 1277 l 1,18,19
 696 1267 696 1267 692 1207 c 1,20,-1
 672 768 l 1,21,22
 672 741 672 741 633 707 c 1,23,-1
 386 501 l 1,24,25
 365 480 365 480 365 417 c 1,26,-1
 161 453 l 1,0,1
387 285 m 1,27,28
 407 229 407 229 407 124.5 c 128,-1,29
 407 20 407 20 387 -25 c 1,30,-1
 157 -16 l 1,31,32
 157 156 157 156 147 246 c 1,33,-1
 387 285 l 1,27,28
EndSplineSet
EndChar

StartChar: at
Encoding: 64 64 54
Width: 1775
GlyphClass: 2
Flags: W
LayerCount: 2
Fore
SplineSet
1214 221 m 1,0,1
 1275 199 1275 199 1398 199 c 1,2,3
 1460 376 1460 376 1460 629 c 0,4,5
 1460 819 1460 819 1395 984 c 0,6,7
 1373 1040 1373 1040 1345 1075 c 1,8,9
 1222 1128 1222 1128 1046 1148 c 0,10,11
 989 1155 989 1155 937.5 1155 c 128,-1,12
 886 1155 886 1155 823.5 1149 c 128,-1,13
 761 1143 761 1143 696 1132 c 0,14,15
 549 1105 549 1105 461 1063 c 1,16,17
 397 971 397 971 359 716 c 0,18,19
 342 603 342 603 342 528.5 c 128,-1,20
 342 454 342 454 346.5 378 c 128,-1,21
 351 302 351 302 362 225 c 0,22,23
 386 43 386 43 432 -31 c 1,24,25
 586 -133 586 -133 1020 -216 c 0,26,27
 1089 -229 1089 -229 1151 -238 c 1,28,-1
 1108 -453 l 1,29,30
 707 -394 707 -394 382 -241 c 0,31,32
 314 -209 314 -209 258 -174 c 1,33,34
 198 -92 198 -92 154 119 c 0,35,36
 114 314 114 314 114 464.5 c 128,-1,37
 114 615 114 615 123 700.5 c 128,-1,38
 132 786 132 786 148 854 c 1,39,40
 179 976 179 976 233 1065.5 c 128,-1,41
 287 1155 287 1155 363.5 1210 c 128,-1,42
 440 1265 440 1265 533 1300 c 0,43,44
 712 1366 712 1366 930 1366 c 0,45,46
 1174 1366 1174 1366 1374 1280 c 0,47,48
 1426 1257 1426 1257 1456 1239 c 0,49,50
 1671 1109 1671 1109 1671 621 c 0,51,52
 1671 372 1671 372 1574 166 c 0,53,54
 1532 76 1532 76 1460 2 c 1,55,56
 1432 -2 1432 -2 1391.5 -2 c 128,-1,57
 1351 -2 1351 -2 1294.5 7.5 c 128,-1,58
 1238 17 1238 17 1186 33 c 0,59,60
 1073 68 1073 68 1026 115 c 1,61,-1
 1022 176 l 1,62,-1
 1016 770 l 1,63,-1
 813 754 l 1,64,65
 772 672 772 672 772 434 c 0,66,67
 772 291 772 291 794 217 c 1,68,-1
 973 186 l 1,69,-1
 911 -27 l 1,70,-1
 633 41 l 2,71,72
 608 48 608 48 596.5 73.5 c 128,-1,73
 585 99 585 99 573 144 c 0,74,75
 542 262 542 262 542 409 c 0,76,77
 542 703 542 703 614 887 c 0,78,79
 624 913 624 913 632.5 928.5 c 128,-1,80
 641 944 641 944 659 946 c 2,81,-1
 940 981 l 1,82,-1
 1028 891 l 1,83,-1
 1071 987 l 1,84,-1
 1241 987 l 1,85,-1
 1233 594 l 1,86,-1
 1214 221 l 1,0,1
EndSplineSet
EndChar

StartChar: A
Encoding: 65 65 55
Width: 1157
GlyphClass: 2
Flags: W
LayerCount: 2
Fore
SplineSet
642 331 m 2,0,-1
 576 331 l 2,1,2
 520 331 520 331 399 354 c 1,3,-1
 323 -16 l 1,4,-1
 85 37 l 1,5,-1
 202 557 l 1,6,-1
 338 1237 l 1,7,8
 564 1277 564 1277 815 1298 c 1,9,-1
 973 612 l 1,10,-1
 1095 10 l 1,11,-1
 852 -29 l 1,12,-1
 745 561 l 1,13,-1
 641 1059 l 1,14,15
 584 1059 584 1059 522 1040 c 1,16,-1
 436 547 l 1,17,-1
 694 541 l 1,18,-1
 663 332 l 1,19,20
 652 331 652 331 642 331 c 2,0,-1
EndSplineSet
EndChar

StartChar: B
Encoding: 66 66 56
Width: 1115
GlyphClass: 2
Flags: W
LayerCount: 2
Fore
SplineSet
175 932 m 1,0,-1
 409 973 l 1,1,-1
 415 784 l 1,2,-1
 415 670 l 1,3,-1
 704 723 l 1,4,5
 765 820 765 820 765 944 c 0,6,7
 765 977 765 977 759 1006 c 1,8,9
 513 1075 513 1075 63 1075 c 1,10,-1
 99 1313 l 1,11,12
 544 1307 544 1307 861 1239 c 1,13,14
 908 1227 908 1227 965 1136 c 0,15,16
 1019 1050 1019 1050 1019 1016 c 128,-1,17
 1019 982 1019 982 1014 944.5 c 128,-1,18
 1009 907 1009 907 999 864 c 0,19,20
 962 705 962 705 919 666 c 0,21,22
 891 640 891 640 761 600 c 1,23,-1
 759 592 l 1,24,-1
 958 502 l 1,25,26
 972 442 972 442 972 383.5 c 128,-1,27
 972 325 972 325 965 281 c 128,-1,28
 958 237 958 237 948 198 c 0,29,30
 914 76 914 76 875 50 c 0,31,32
 813 9 813 9 404 -28 c 0,33,34
 277 -39 277 -39 204 -41 c 1,35,-1
 175 932 l 1,0,-1
429 170 m 1,36,37
 614 186 614 186 699 213 c 1,38,39
 730 315 730 315 730 366.5 c 128,-1,40
 730 418 730 418 727.5 444.5 c 128,-1,41
 725 471 725 471 710 483 c 1,42,-1
 423 512 l 1,43,-1
 429 170 l 1,36,37
EndSplineSet
EndChar

StartChar: C
Encoding: 67 67 57
Width: 876
GlyphClass: 2
Flags: W
LayerCount: 2
Fore
SplineSet
201 86.5 m 128,-1,1
 191 94 191 94 183 106 c 0,2,3
 138 174 138 174 118 510 c 0,4,5
 113 585 113 585 113 657 c 128,-1,6
 113 729 113 729 116 790.5 c 128,-1,7
 119 852 119 852 124 907 c 0,8,9
 135 1031 135 1031 144 1056 c 1,10,-1
 156 1094 l 2,11,12
 172 1142 172 1142 229 1165 c 0,13,14
 254 1175 254 1175 294 1188 c 2,15,-1
 382 1218 l 1,16,17
 431 1233 431 1233 484 1248 c 2,18,-1
 586 1278 l 1,19,20
 689 1307 689 1307 760 1322 c 1,21,-1
 814 1079 l 1,22,23
 789 1073 789 1073 753 1066 c 2,24,-1
 509 1020 l 1,25,-1
 440 1006 l 2,26,27
 410 999 410 999 395 995 c 1,28,29
 367 883 367 883 367 670 c 0,30,31
 367 392 367 392 401 260 c 1,32,33
 443 250 443 250 492 240 c 2,34,-1
 698 198 l 1,35,-1
 795 180 l 1,36,-1
 739 -51 l 1,37,38
 649 -35 649 -35 575 -17 c 0,39,40
 294 50 294 50 252.5 64.5 c 128,-1,0
 211 79 211 79 201 86.5 c 128,-1,1
EndSplineSet
EndChar

StartChar: D
Encoding: 68 68 58
Width: 1144
GlyphClass: 2
Flags: W
LayerCount: 2
Fore
SplineSet
416 209 m 1,0,-1
 437 211 l 1,1,2
 470 216 470 216 504.5 220.5 c 128,-1,3
 539 225 539 225 576 232 c 0,4,5
 665 247 665 247 717 264 c 1,6,7
 783 537 783 537 783 836 c 0,8,9
 783 948 783 948 772 1030 c 1,10,11
 500 1081 500 1081 82 1081 c 2,12,-1
 55 1081 l 1,13,-1
 100 1323 l 1,14,-1
 121 1323 l 2,15,16
 501 1323 501 1323 782 1262 c 0,17,18
 836 1251 836 1251 862.5 1241 c 128,-1,19
 889 1231 889 1231 915 1207 c 128,-1,20
 941 1183 941 1183 966 1154 c 1,21,22
 1024 1083 1024 1083 1028 1046 c 0,23,24
 1036 972 1036 972 1036 880 c 128,-1,25
 1036 788 1036 788 1028 686 c 128,-1,26
 1020 584 1020 584 1004 485 c 0,27,28
 971 270 971 270 915 133 c 0,29,30
 903 102 903 102 888.5 88.5 c 128,-1,31
 874 75 874 75 830 60.5 c 128,-1,32
 786 46 786 46 721.5 33 c 128,-1,33
 657 20 657 20 578 11 c 0,34,35
 431 -6 431 -6 186 -18 c 1,36,-1
 186 940 l 1,37,-1
 432 993 l 1,38,-1
 436 778 l 1,39,-1
 416 209 l 1,0,-1
EndSplineSet
EndChar

StartChar: E
Encoding: 69 69 59
Width: 970
GlyphClass: 2
Flags: W
LayerCount: 2
Fore
SplineSet
387 223 m 1,0,-1
 872 150 l 1,1,-1
 819 -68 l 1,2,-1
 668 -48 l 1,3,4
 335 -2 335 -2 168 43 c 1,5,-1
 155 1196 l 1,6,7
 508 1286 508 1286 827 1317 c 1,8,-1
 862 1079 l 1,9,-1
 383 1024 l 1,10,-1
 393 725 l 1,11,-1
 823 743 l 1,12,-1
 807 508 l 1,13,-1
 395 522 l 1,14,-1
 387 223 l 1,0,-1
EndSplineSet
EndChar

StartChar: F
Encoding: 70 70 60
Width: 880
GlyphClass: 2
Flags: W
LayerCount: 2
Fore
SplineSet
149 1196 m 1,0,1
 457 1273 457 1273 784 1313 c 1,2,-1
 825 1075 l 1,3,-1
 393 1028 l 1,4,-1
 405 709 l 1,5,-1
 772 725 l 1,6,-1
 762 487 l 1,7,-1
 409 498 l 1,8,-1
 393 0 l 1,9,-1
 178 -18 l 1,10,-1
 149 1196 l 1,0,1
EndSplineSet
EndChar

StartChar: G
Encoding: 71 71 61
Width: 1071
GlyphClass: 2
Flags: W
LayerCount: 2
Fore
SplineSet
598 727 m 1,0,1
 803 714 803 714 975 672 c 1,2,-1
 897 -6 l 1,3,4
 822 -17 822 -17 747.5 -17 c 128,-1,5
 673 -17 673 -17 593 -7.5 c 128,-1,6
 513 2 513 2 444 16 c 0,7,8
 304 44 304 44 264.5 66 c 128,-1,9
 225 88 225 88 209.5 105.5 c 128,-1,10
 194 123 194 123 186 160.5 c 128,-1,11
 178 198 178 198 169 250.5 c 128,-1,12
 160 303 160 303 153 365 c 0,13,14
 137 507 137 507 137 594.5 c 128,-1,15
 137 682 137 682 138 729.5 c 128,-1,16
 139 777 139 777 142 823 c 0,17,18
 152 1008 152 1008 166 1051 c 128,-1,19
 180 1094 180 1094 192 1117.5 c 128,-1,20
 204 1141 204 1141 226 1154 c 0,21,22
 311 1203 311 1203 538 1259 c 1,23,-1
 643 1284 l 2,24,25
 780 1316 780 1316 893 1333 c 1,26,-1
 946 1092 l 1,27,28
 917 1086 917 1086 872 1078 c 2,29,-1
 667 1044 l 2,30,31
 471 1012 471 1012 420 995 c 1,32,33
 391 881 391 881 391 665 c 0,34,35
 391 380 391 380 426 244 c 1,36,37
 544 201 544 201 669 201 c 2,38,-1
 688 201 l 2,39,40
 697 201 697 201 704 203 c 1,41,-1
 733 504 l 1,42,-1
 573 512 l 1,43,-1
 598 727 l 1,0,1
EndSplineSet
EndChar

StartChar: H
Encoding: 72 72 62
Width: 1228
GlyphClass: 2
Flags: W
LayerCount: 2
Fore
SplineSet
166 1268 m 1,0,-1
 409 1300 l 1,1,-1
 430 680 l 1,2,-1
 817 694 l 1,3,-1
 827 1264 l 1,4,-1
 1071 1298 l 1,5,-1
 1073 750 l 1,6,-1
 1030 0 l 1,7,-1
 813 -18 l 1,8,-1
 811 473 l 1,9,-1
 694 467 l 1,10,-1
 428 469 l 1,11,-1
 411 0 l 1,12,-1
 192 -18 l 1,13,-1
 166 1268 l 1,0,-1
EndSplineSet
EndChar

StartChar: I
Encoding: 73 73 63
Width: 784
GlyphClass: 2
Flags: W
LayerCount: 2
Fore
SplineSet
696 1096 m 1,0,-1
 524 1077 l 1,1,-1
 526 653 l 1,2,-1
 497 189 l 1,3,-1
 680 182 l 1,4,-1
 663 -25 l 1,5,6
 308 -20 308 -20 92 18 c 1,7,-1
 112 205 l 1,8,-1
 285 198 l 1,9,-1
 270 1061 l 1,10,11
 178 1057 178 1057 86 1051 c 1,12,-1
 67 1243 l 1,13,14
 236 1270 236 1270 415 1281 c 2,15,-1
 669 1298 l 1,16,-1
 696 1096 l 1,0,-1
EndSplineSet
EndChar

StartChar: J
Encoding: 74 74 64
Width: 716
GlyphClass: 2
Flags: W
LayerCount: 2
Fore
SplineSet
32 -55 m 1,0,1
 144 3 144 3 223.5 62 c 128,-1,2
 303 121 303 121 325 143 c 1,3,-1
 311 711 l 1,4,-1
 311 1063 l 1,5,-1
 67 1090 l 1,6,-1
 104 1315 l 1,7,-1
 228 1299 l 2,8,9
 468 1269 468 1269 575 1235 c 1,10,-1
 551 113 l 2,11,12
 551 67 551 67 534 42 c 0,13,14
 496 -16 496 -16 437 -63 c 128,-1,15
 378 -110 378 -110 336 -140 c 0,16,17
 236 -212 236 -212 164 -248 c 1,18,-1
 32 -55 l 1,0,1
EndSplineSet
EndChar

StartChar: K
Encoding: 75 75 65
Width: 1099
GlyphClass: 2
Flags: W
LayerCount: 2
Fore
SplineSet
162 1266 m 1,0,-1
 411 1300 l 1,1,-1
 418 653 l 1,2,-1
 465 645 l 1,3,-1
 841 1311 l 1,4,-1
 1059 1182 l 1,5,6
 1002 1059 1002 1059 916 936 c 1,7,-1
 790 760 l 1,8,-1
 714 663 l 2,9,10
 678 618 678 618 647 586 c 1,11,12
 726 505 726 505 765 461 c 0,13,14
 962 231 962 231 1046 92 c 1,15,-1
 841 -57 l 1,16,-1
 495 475 l 1,17,-1
 410 436 l 1,18,-1
 393 0 l 1,19,-1
 170 -20 l 1,20,-1
 162 1266 l 1,0,-1
305 389 m 1,21,22
 305 388 305 388 305.5 388 c 128,-1,23
 306 388 306 388 306 389 c 1,24,-1
 305 389 l 1,21,22
EndSplineSet
EndChar

StartChar: L
Encoding: 76 76 66
Width: 782
GlyphClass: 2
Flags: W
LayerCount: 2
Fore
SplineSet
166 1260 m 1,0,-1
 418 1300 l 1,1,-1
 418 752 l 1,2,-1
 387 264 l 1,3,4
 464 234 464 234 595 216.5 c 128,-1,5
 726 199 726 199 753 195 c 1,6,-1
 696 -27 l 1,7,8
 589 -13 589 -13 523 -1 c 2,9,-1
 406 21 l 2,10,11
 225 56 225 56 166 84 c 1,12,-1
 166 1260 l 1,0,-1
EndSplineSet
EndChar

StartChar: M
Encoding: 77 77 67
Width: 1704
GlyphClass: 2
Flags: W
LayerCount: 2
Fore
SplineSet
164 705 m 1,0,1
 170 831 170 831 183 944 c 2,2,3
 183 944 183 944 202 1111 c 0,4,5
 209 1165 209 1165 214 1221 c 1,6,7
 429 1281 429 1281 658 1296 c 1,8,-1
 803 696 l 1,9,-1
 850 225 l 1,10,-1
 893 229 l 1,11,-1
 986 1223 l 1,12,13
 1128 1273 1128 1273 1330 1294 c 0,14,15
 1392 1300 1392 1300 1446 1300 c 1,16,-1
 1572 676 l 1,17,-1
 1662 2 l 1,18,-1
 1403 -25 l 1,19,-1
 1324 653 l 1,20,-1
 1258 1086 l 1,21,-1
 1197 1078 l 1,22,-1
 1156 643 l 1,23,-1
 1059 29 l 1,24,25
 887 -3 887 -3 679 -8 c 1,26,-1
 470 1073 l 1,27,-1
 404 1063 l 1,28,-1
 396 662 l 1,29,-1
 336 -19 l 1,30,-1
 86 12 l 1,31,-1
 164 705 l 1,0,1
EndSplineSet
EndChar

StartChar: N
Encoding: 78 78 68
Width: 1350
GlyphClass: 2
Flags: W
LayerCount: 2
Fore
SplineSet
166 110 m 2,0,1
 166 416 166 416 175 780 c 1,2,-1
 156 1227 l 1,3,4
 175 1231 175 1231 206 1237 c 2,5,6
 206 1237 206 1237 276 1250 c 0,7,8
 314 1257 314 1257 356 1264 c 2,9,-1
 440 1278 l 1,10,11
 513 1289 513 1289 590 1294 c 1,12,-1
 854 459 l 1,13,-1
 915 172 l 1,14,-1
 973 178 l 1,15,-1
 960 500 l 1,16,-1
 969 1278 l 1,17,-1
 1225 1300 l 1,18,19
 1217 999 1217 999 1175 518 c 1,20,-1
 1160 27 l 1,21,22
 981 -6 981 -6 751 -18 c 1,23,-1
 487 827 l 1,24,-1
 428 1091 l 1,25,-1
 375 1083 l 1,26,-1
 385 782 l 1,27,-1
 395 2 l 1,28,-1
 166 -18 l 1,29,-1
 166 110 l 2,0,1
EndSplineSet
EndChar

StartChar: O
Encoding: 79 79 69
Width: 1161
GlyphClass: 2
Flags: W
LayerCount: 2
Fore
SplineSet
262.5 21 m 128,-1,1
 238 38 238 38 218.5 89.5 c 128,-1,2
 199 141 199 141 181.5 226.5 c 128,-1,3
 164 312 164 312 152 407 c 0,4,5
 129 589 129 589 129 720 c 0,6,7
 129 947 129 947 141 1006.5 c 128,-1,8
 153 1066 153 1066 166 1098 c 128,-1,9
 179 1130 179 1130 200 1155 c 0,10,11
 239 1203 239 1203 308 1228 c 128,-1,12
 377 1253 377 1253 456 1269.5 c 128,-1,13
 535 1286 535 1286 624 1297 c 0,14,15
 801 1319 801 1319 1005 1323 c 1,16,-1
 1042 1081 l 1,17,18
 685 1067 685 1067 470 1022 c 0,19,20
 426 1012 426 1012 397 1001 c 1,21,22
 385 933 385 933 385 808 c 128,-1,23
 385 683 385 683 388 614 c 128,-1,24
 391 545 391 545 397 476 c 0,25,26
 410 320 410 320 438 210 c 1,27,28
 452 208 452 208 467 208 c 128,-1,29
 482 208 482 208 522 208 c 0,30,31
 616 208 616 208 714 231 c 1,32,33
 764 556 764 556 764 950 c 1,34,-1
 1013 934 l 1,35,36
 1018 864 1018 864 1018 811.5 c 128,-1,37
 1018 759 1018 759 1014.5 699.5 c 128,-1,38
 1011 640 1011 640 1005 578.5 c 128,-1,39
 999 517 999 517 991 455.5 c 128,-1,40
 983 394 983 394 975 338.5 c 128,-1,41
 967 283 967 283 959 236 c 2,42,-1
 945 158 l 1,43,44
 928 76 928 76 906.5 54 c 128,-1,45
 885 32 885 32 865.5 23.5 c 128,-1,46
 846 15 846 15 816 9 c 128,-1,47
 786 3 786 3 750.5 -1.5 c 128,-1,48
 715 -6 715 -6 676 -9 c 128,-1,49
 637 -12 637 -12 601 -14 c 0,50,51
 541 -16 541 -16 490 -16 c 0,52,53
 371 -16 371 -16 329 -6 c 128,-1,0
 287 4 287 4 262.5 21 c 128,-1,1
EndSplineSet
EndChar

StartChar: P
Encoding: 80 80 70
Width: 1081
GlyphClass: 2
Flags: W
LayerCount: 2
Fore
SplineSet
176 924 m 1,0,-1
 432 965 l 1,1,-1
 432 764 l 1,2,-1
 424 485 l 1,3,4
 461 491 461 491 494 498 c 1,5,-1
 559 514 l 2,6,7
 591 522 591 522 622 532 c 2,8,-1
 688 555 l 1,9,10
 735 704 735 704 735 919 c 0,11,12
 735 999 735 999 727 1020 c 1,13,14
 595 1062 595 1062 245 1072 c 0,15,16
 155 1074 155 1074 78 1077 c 1,17,-1
 116 1313 l 1,18,19
 588 1295 588 1295 807 1243 c 0,20,21
 842 1234 842 1234 888 1188 c 0,22,23
 975 1101 975 1101 982.5 1048.5 c 128,-1,24
 990 996 990 996 990 900.5 c 128,-1,25
 990 805 990 805 965 672 c 128,-1,26
 940 539 940 539 884 408 c 0,27,28
 862 356 862 356 784 344 c 1,29,-1
 430 281 l 1,30,-1
 418 2 l 1,31,-1
 194 -20 l 1,32,-1
 176 924 l 1,0,-1
EndSplineSet
EndChar

StartChar: Q
Encoding: 81 81 71
Width: 1159
GlyphClass: 2
Flags: W
LayerCount: 2
Fore
SplineSet
519.5 -234 m 128,-1,1
 512 -186 512 -186 512 -119 c 128,-1,2
 512 -52 512 -52 514 -16 c 1,3,-1
 485 -16 l 2,4,5
 371 -16 371 -16 329 -6 c 128,-1,6
 287 4 287 4 262.5 21 c 128,-1,7
 238 38 238 38 218.5 89.5 c 128,-1,8
 199 141 199 141 181.5 226.5 c 128,-1,9
 164 312 164 312 152 407 c 0,10,11
 129 589 129 589 129 704 c 128,-1,12
 129 819 129 819 130.5 857 c 128,-1,13
 132 895 132 895 135 931 c 0,14,15
 149 1095 149 1095 180 1141 c 0,16,17
 219 1197 219 1197 298 1225 c 128,-1,18
 377 1253 377 1253 456 1269.5 c 128,-1,19
 535 1286 535 1286 624 1297 c 0,20,21
 801 1319 801 1319 1005 1323 c 1,22,-1
 1042 1081 l 1,23,24
 687 1067 687 1067 472 1022 c 0,25,26
 428 1012 428 1012 399 1001 c 1,27,28
 387 933 387 933 387 808 c 128,-1,29
 387 683 387 683 390 614.5 c 128,-1,30
 393 546 393 546 399 477 c 0,31,32
 412 324 412 324 440 213 c 1,33,34
 454 211 454 211 469 211 c 128,-1,35
 484 211 484 211 524 211 c 0,36,37
 629 211 629 211 714 231 c 1,38,39
 764 556 764 556 764 950 c 1,40,-1
 1013 934 l 1,41,42
 1018 864 1018 864 1018 798.5 c 128,-1,43
 1018 733 1018 733 1011.5 645.5 c 128,-1,44
 1005 558 1005 558 994 471 c 0,45,46
 955 140 955 140 920 75 c 0,47,48
 901 39 901 39 869 25 c 0,49,50
 817 2 817 2 683 -8 c 1,51,52
 721 -151 721 -151 808 -296 c 1,53,-1
 870 -395 l 1,54,-1
 647 -526 l 1,55,56
 567 -395 567 -395 547 -338.5 c 128,-1,0
 527 -282 527 -282 519.5 -234 c 128,-1,1
EndSplineSet
EndChar

StartChar: R
Encoding: 82 82 72
Width: 1095
GlyphClass: 2
Flags: W
LayerCount: 2
Fore
SplineSet
164 932 m 1,0,-1
 407 973 l 1,1,-1
 407 772 l 1,2,-1
 401 530 l 1,3,-1
 688 600 l 1,4,5
 749 793 749 793 749 950 c 0,6,7
 749 983 749 983 745 1012 c 1,8,9
 576 1065 576 1065 78 1085 c 1,10,-1
 116 1321 l 1,11,12
 543 1304 543 1304 856 1239 c 0,13,14
 883 1233 883 1233 942 1160 c 0,15,16
 1000 1088 1000 1088 1002.5 1059 c 128,-1,17
 1005 1030 1005 1030 1005 1002 c 2,18,-1
 1005 946 l 2,19,20
 1005 816 1005 816 939 610 c 0,21,22
 903 498 903 498 868 466 c 0,23,24
 852 451 852 451 839 444 c 1,25,-1
 741 412 l 1,26,27
 887 253 887 253 1011 63 c 1,28,-1
 803 -78 l 1,29,-1
 553 362 l 1,30,-1
 407 354 l 1,31,-1
 399 0 l 1,32,-1
 182 -18 l 1,33,-1
 164 932 l 1,0,-1
EndSplineSet
EndChar

StartChar: S
Encoding: 83 83 73
Width: 901
GlyphClass: 2
Flags: W
LayerCount: 2
Fore
SplineSet
98 205 m 1,0,1
 391 227 391 227 547 272 c 1,2,3
 554 318 554 318 554 376.5 c 128,-1,4
 554 435 554 435 551 485 c 1,5,-1
 196 614 l 2,6,7
 160 627 160 627 142 661.5 c 128,-1,8
 124 696 124 696 115 752 c 0,9,10
 95 875 95 875 95 940 c 0,11,12
 95 1043 95 1043 100 1089 c 0,13,14
 108 1171 108 1171 205 1200 c 1,15,16
 432 1282 432 1282 739 1335 c 1,17,-1
 800 1094 l 1,18,-1
 672 1076 l 1,19,20
 482 1048 482 1048 356 1016 c 1,21,22
 352 990 352 990 352 948 c 0,23,24
 352 862 352 862 356 813 c 1,25,-1
 725 651 l 2,26,27
 786 625 786 625 807 560 c 0,28,29
 813 541 813 541 813 533 c 128,-1,30
 813 525 813 525 811.5 498.5 c 128,-1,31
 810 472 810 472 807 428 c 0,32,33
 799 310 799 310 787 225.5 c 128,-1,34
 775 141 775 141 728.5 110.5 c 128,-1,35
 682 80 682 80 615.5 56.5 c 128,-1,36
 549 33 549 33 472 14 c 1,37,38
 347 -15 347 -15 141 -45 c 1,39,-1
 98 205 l 1,0,1
EndSplineSet
EndChar

StartChar: T
Encoding: 84 84 74
Width: 883
GlyphClass: 2
Flags: W
LayerCount: 2
Fore
SplineSet
859 1065 m 1,0,1
 742 1060 742 1060 574 1047 c 1,2,-1
 583 631 l 1,3,-1
 560 0 l 1,4,-1
 337 -18 l 1,5,-1
 325 1038 l 1,6,7
 238 1036 238 1036 164.5 1032 c 128,-1,8
 91 1028 91 1028 40 1028 c 1,9,-1
 58 1245 l 1,10,11
 404 1290 404 1290 833 1290 c 1,12,-1
 859 1065 l 1,0,1
EndSplineSet
EndChar

StartChar: U
Encoding: 85 85 75
Width: 1151
GlyphClass: 2
Flags: W
LayerCount: 2
Fore
SplineSet
193 248 m 0,0,1
 132 797 132 797 125 1260 c 1,2,-1
 379 1300 l 1,3,-1
 420 270 l 1,4,5
 502 222 502 222 662 222 c 0,6,7
 688 222 688 222 731 227 c 1,8,-1
 784 1307 l 1,9,-1
 1059 1272 l 1,10,-1
 966 285 l 2,11,12
 963 248 963 248 915.5 194 c 128,-1,13
 868 140 868 140 839 110 c 0,14,15
 779 48 779 48 759.5 29.5 c 128,-1,16
 740 11 740 11 723 10 c 0,17,18
 559 2 559 2 508 -0.5 c 128,-1,19
 457 -3 457 -3 449.5 -2.5 c 128,-1,20
 442 -2 442 -2 424 8.5 c 128,-1,21
 406 19 406 19 385.5 34 c 128,-1,22
 365 49 365 49 346 66 c 2,23,-1
 270 131 l 2,24,25
 200 191 200 191 193 248 c 0,0,1
EndSplineSet
EndChar

StartChar: V
Encoding: 86 86 76
Width: 1092
GlyphClass: 2
Flags: W
LayerCount: 2
Fore
SplineSet
244 520 m 1,0,-1
 72 1225 l 1,1,-1
 326 1298 l 1,2,-1
 481 530 l 1,3,-1
 522 205 l 1,4,-1
 580 211 l 1,5,6
 580 211 580 211 682 740 c 1,7,8
 732 1009 732 1009 778 1298 c 1,9,-1
 1036 1233 l 1,10,-1
 999 1071 l 2,11,12
 991 1034 991 1034 976 972 c 0,13,14
 841 423 841 423 816 329 c 2,15,16
 816 329 816 329 772 170 c 0,17,18
 731 20 731 20 718 0 c 1,19,20
 718 0 718 0 540 -11 c 0,21,22
 455 -16 455 -16 368 -16 c 1,23,-1
 244 520 l 1,0,-1
EndSplineSet
EndChar

StartChar: W
Encoding: 87 87 77
Width: 1605
GlyphClass: 2
Flags: W
LayerCount: 2
Fore
SplineSet
232 430 m 1,0,-1
 60 1239 l 1,1,-1
 321 1300 l 1,2,-1
 467 446 l 1,3,-1
 488 180 l 1,4,-1
 533 178 l 1,5,-1
 710 754 l 1,6,-1
 634 1137 l 1,7,-1
 893 1182 l 1,8,-1
 1018 598 l 1,9,-1
 1088 184 l 1,10,-1
 1142 188 l 1,11,12
 1152 252 1152 252 1164 340 c 0,13,14
 1201 604 1201 604 1216 724 c 2,15,-1
 1243 945 l 1,16,17
 1270 1176 1270 1176 1279 1298 c 1,18,-1
 1557 1257 l 1,19,20
 1557 1257 1557 1257 1530 1087 c 1,21,22
 1471 692 1471 692 1404 434 c 2,23,-1
 1292 0 l 1,24,-1
 938 -16 l 1,25,-1
 828 422 l 1,26,-1
 802 422 l 1,27,-1
 687 0 l 1,28,-1
 323 -16 l 1,29,-1
 232 430 l 1,0,-1
EndSplineSet
EndChar

StartChar: X
Encoding: 88 88 78
Width: 1136
GlyphClass: 2
Flags: W
LayerCount: 2
Fore
SplineSet
106 51 m 1,0,1
 128 228 128 228 236 483 c 0,2,3
 278 580 278 580 309 631 c 1,4,-1
 413 690 l 1,5,6
 207 978 207 978 173 1031 c 2,7,-1
 118 1119 l 2,8,9
 96 1154 96 1154 86 1176 c 1,10,-1
 317 1319 l 1,11,12
 492 999 492 999 518 948 c 0,13,14
 591 806 591 806 607 772 c 1,15,-1
 610 774 l 1,16,-1
 747 1145 l 1,17,-1
 781 1244 l 2,18,19
 796 1288 796 1288 803 1313 c 1,20,-1
 1042 1243 l 1,21,22
 1024 1156 1024 1156 963 1021 c 2,23,-1
 877 832 l 1,24,25
 822 717 822 717 790 668 c 1,26,-1
 710 627 l 1,27,28
 863 431 863 431 905 375 c 1,29,30
 1046 178 1046 178 1069 129 c 1,31,-1
 846 -16 l 1,32,33
 593 421 593 421 569 465 c 2,34,-1
 527 541 l 1,35,-1
 501 528 l 1,36,37
 451 379 451 379 428 306 c 1,38,-1
 382 151 l 2,39,40
 358 69 358 69 342 -2 c 1,41,-1
 106 51 l 1,0,1
EndSplineSet
EndChar

StartChar: Y
Encoding: 89 89 79
Width: 1042
GlyphClass: 2
Flags: W
LayerCount: 2
Fore
SplineSet
404 439 m 1,0,1
 354 443 354 443 303 451 c 1,2,3
 232 630 232 630 168 834 c 2,4,5
 168 834 168 834 39 1245 c 1,6,-1
 299 1311 l 1,7,-1
 347 1149 l 1,8,-1
 465 614 l 1,9,10
 476 613 476 613 487 613 c 128,-1,11
 498 613 498 613 515 613 c 0,12,13
 562 613 562 613 600 621 c 1,14,-1
 737 1298 l 1,15,-1
 1007 1270 l 1,16,-1
 967 1114 l 2,17,18
 948 1041 948 1041 929 976 c 1,19,20
 929 976 929 976 890 850 c 0,21,22
 871 788 871 788 849 726 c 1,23,-1
 746 451 l 1,24,25
 711 445 711 445 652 440 c 1,26,-1
 622 0 l 1,27,-1
 407 -16 l 1,28,-1
 404 439 l 1,0,1
EndSplineSet
EndChar

StartChar: Z
Encoding: 90 90 80
Width: 929
GlyphClass: 2
Flags: W
LayerCount: 2
Fore
SplineSet
57 279 m 1,0,-1
 626 1014 l 1,1,-1
 602 1061 l 1,2,-1
 575 1061 l 2,3,4
 334 1061 334 1061 75 1106 c 1,5,-1
 114 1327 l 1,6,-1
 270 1310 l 2,7,8
 600 1275 600 1275 798 1270 c 1,9,-1
 889 993 l 1,10,-1
 768 824 l 1,11,-1
 624 632 l 1,12,-1
 471 437 l 1,13,-1
 325 256 l 1,14,-1
 338 217 l 1,15,-1
 369 217 l 2,16,17
 609 217 609 217 874 170 c 1,18,-1
 837 -57 l 1,19,20
 750 -50 750 -50 658 -40 c 2,21,-1
 292 -4 l 2,22,23
 202 4 202 4 121 10 c 1,24,-1
 57 279 l 1,0,-1
EndSplineSet
EndChar

StartChar: bracketleft
Encoding: 91 91 81
Width: 639
GlyphClass: 2
Flags: W
LayerCount: 2
Fore
SplineSet
215 -403 m 1,0,1
 184 393 184 393 180 1544 c 1,2,-1
 569 1612 l 1,3,-1
 598 1395 l 1,4,-1
 422 1378 l 1,5,-1
 401 625 l 1,6,-1
 422 -240 l 1,7,-1
 618 -266 l 1,8,-1
 567 -485 l 1,9,-1
 215 -403 l 1,0,1
EndSplineSet
EndChar

StartChar: backslash
Encoding: 92 92 82
Width: 759
GlyphClass: 2
Flags: W
LayerCount: 2
Fore
SplineSet
30 1333 m 1,0,-1
 237 1417 l 1,1,-1
 737 -119 l 1,2,-1
 555 -174 l 1,3,-1
 30 1333 l 1,0,-1
EndSplineSet
EndChar

StartChar: bracketright
Encoding: 93 93 83
Width: 565
GlyphClass: 2
Flags: W
LayerCount: 2
Fore
SplineSet
239 -252 m 1,0,-1
 250 502 l 1,1,-1
 239 1366 l 1,2,-1
 39 1397 l 1,3,-1
 94 1614 l 1,4,-1
 452 1526 l 1,5,6
 459 1152 459 1152 459 778 c 0,7,8
 459 219 459 219 450 -422 c 1,9,-1
 69 -481 l 1,10,-1
 45 -264 l 1,11,-1
 239 -252 l 1,0,-1
EndSplineSet
EndChar

StartChar: asciicircum
Encoding: 94 94 84
Width: 940
GlyphClass: 2
Flags: W
LayerCount: 2
Fore
SplineSet
26 563 m 1,0,-1
 331 1264 l 1,1,-1
 575 1290 l 1,2,-1
 919 569 l 1,3,-1
 764 483 l 1,4,-1
 458 1010 l 1,5,-1
 186 483 l 1,6,-1
 26 563 l 1,0,-1
EndSplineSet
EndChar

StartChar: underscore
Encoding: 95 95 85
Width: 1255
GlyphClass: 2
Flags: W
LayerCount: 2
Fore
SplineSet
1268 0 m 1,0,-1
 1252 -174 l 1,1,-1
 -23 -174 l 1,2,-1
 6 0 l 1,3,-1
 1268 0 l 1,0,-1
EndSplineSet
EndChar

StartChar: grave
Encoding: 96 96 86
Width: 528
GlyphClass: 2
Flags: W
LayerCount: 2
Fore
SplineSet
395 1117 m 1,0,1
 347 1145 347 1145 310 1173 c 0,2,3
 155 1294 155 1294 110 1344 c 0,4,5
 42 1419 42 1419 22 1455 c 1,6,-1
 217 1591 l 1,7,-1
 504 1220 l 1,8,-1
 395 1117 l 1,0,1
EndSplineSet
EndChar

StartChar: a
Encoding: 97 97 87
Width: 914
GlyphClass: 2
Flags: W
LayerCount: 2
Fore
SplineSet
807 -72 m 1,0,1
 395 -30 395 -30 161 53 c 0,2,3
 118 69 118 69 104 237 c 0,4,5
 92 391 92 391 130 504 c 0,6,7
 146 551 146 551 168 556 c 0,8,9
 262 581 262 581 366 592 c 2,10,-1
 574 615 l 1,11,-1
 570 756 l 1,12,13
 461 777 461 777 353.5 789.5 c 128,-1,14
 246 802 246 802 140 819 c 1,15,-1
 193 1038 l 1,16,-1
 362 1013 l 2,17,18
 594 979 594 979 731 930 c 0,19,20
 797 906 797 906 797 833 c 2,21,-1
 801 285 l 1,22,-1
 588 264 l 1,23,-1
 582 435 l 1,24,-1
 525 424 l 1,25,26
 429 408 429 408 342 384 c 1,27,28
 331 331 331 331 331 296 c 0,29,30
 331 245 331 245 335 217 c 1,31,32
 476 185 476 185 770 152 c 2,33,-1
 852 143 l 1,34,-1
 807 -72 l 1,0,1
EndSplineSet
EndChar

StartChar: b
Encoding: 98 98 88
Width: 995
GlyphClass: 2
Flags: W
LayerCount: 2
Fore
SplineSet
145 1427 m 1,0,-1
 387 1473 l 1,1,-1
 391 752 l 1,2,-1
 368 188 l 1,3,4
 378 187 378 187 388 187 c 2,5,-1
 408 187 l 2,6,7
 515 187 515 187 585 211 c 1,8,9
 645 430 645 430 645 656 c 0,10,11
 645 726 645 726 639 766 c 1,12,13
 620 772 620 772 590 778 c 2,14,-1
 532 788 l 1,15,-1
 461 799 l 1,16,-1
 512 1022 l 1,17,18
 713 990 713 990 778.5 969 c 128,-1,19
 844 948 844 948 860 925.5 c 128,-1,20
 876 903 876 903 881 870 c 0,21,22
 889 816 889 816 889 729 c 0,23,24
 889 460 889 460 862 324.5 c 128,-1,25
 835 189 835 189 814 124 c 128,-1,26
 793 59 793 59 782 42 c 0,27,28
 760 5 760 5 559 -16 c 0,29,30
 460 -27 460 -27 381 -27 c 0,31,32
 242 -27 242 -27 148 -20 c 1,33,-1
 145 1427 l 1,0,-1
EndSplineSet
EndChar

StartChar: c
Encoding: 99 99 89
Width: 799
GlyphClass: 2
Flags: W
LayerCount: 2
Fore
SplineSet
200 47 m 1,0,1
 145 65 145 65 136 130 c 0,2,3
 116 268 116 268 116 382.5 c 128,-1,4
 116 497 116 497 118.5 552.5 c 128,-1,5
 121 608 121 608 126 660 c 0,6,7
 144 877 144 877 175 914 c 0,8,9
 191 934 191 934 227.5 944.5 c 128,-1,10
 264 955 264 955 325.5 966.5 c 128,-1,11
 387 978 387 978 455.5 988.5 c 128,-1,12
 524 999 524 999 590.5 1008 c 128,-1,13
 657 1017 657 1017 704 1024 c 1,14,-1
 739 799 l 1,15,-1
 662 791 l 2,16,17
 448 769 448 769 389 754 c 1,18,19
 373 692 373 692 367 580 c 128,-1,20
 361 468 361 468 361 416 c 0,21,22
 361 287 361 287 371 223 c 1,23,-1
 753 152 l 1,24,-1
 694 -63 l 1,25,26
 612 -50 612 -50 540 -35 c 2,27,-1
 419 -10 l 1,28,29
 255 26 255 26 200 47 c 1,0,1
EndSplineSet
EndChar

StartChar: d
Encoding: 100 100 90
Width: 994
GlyphClass: 2
Flags: W
LayerCount: 2
Fore
SplineSet
195 49 m 1,0,1
 146 59 146 59 135 136 c 0,2,3
 117 266 117 266 117 412 c 0,4,5
 117 657 117 657 158 872 c 0,6,7
 168 924 168 924 208 938 c 1,8,-1
 308 962 l 2,9,10
 469 1001 469 1001 619 1020 c 1,11,-1
 619 1430 l 1,12,-1
 851 1473 l 1,13,-1
 857 1012 l 1,14,-1
 836 309 l 1,15,-1
 625 289 l 1,16,-1
 617 803 l 1,17,18
 496 794 496 794 390 754 c 1,19,20
 361 575 361 575 361 458 c 0,21,22
 361 291 361 291 369 233 c 1,23,24
 494 200 494 200 667.5 177 c 128,-1,25
 841 154 841 154 906 143 c 1,26,-1
 844 -72 l 1,27,28
 456 -11 456 -11 365.5 8 c 128,-1,29
 275 27 275 27 195 49 c 1,0,1
EndSplineSet
EndChar

StartChar: e
Encoding: 101 101 91
Width: 948
GlyphClass: 2
Flags: W
LayerCount: 2
Fore
SplineSet
118 666 m 1,0,1
 118 800 118 800 146 821 c 128,-1,2
 174 842 174 842 209 863.5 c 128,-1,3
 244 885 244 885 286 906 c 128,-1,4
 328 927 328 927 373.5 946 c 128,-1,5
 419 965 419 965 463 980 c 0,6,7
 557 1012 557 1012 603.5 1012 c 128,-1,8
 650 1012 650 1012 679 1007.5 c 128,-1,9
 708 1003 708 1003 732 993 c 0,10,11
 787 970 787 970 794 926 c 0,12,13
 827 717 827 717 827 428 c 2,14,-1
 827 369 l 1,15,-1
 348 363 l 1,16,-1
 348 233 l 1,17,18
 426 214 426 214 534 198 c 1,19,-1
 706 170 l 2,20,21
 772 160 772 160 841 147 c 1,22,-1
 782 -72 l 1,23,24
 507 -29 507 -29 198 67 c 0,25,26
 127 90 127 90 125 150 c 1,27,-1
 118 666 l 1,0,1
602 584 m 2,28,29
 602 678 602 678 583 782 c 1,30,31
 543 782 543 782 519 778 c 128,-1,32
 495 774 495 774 471 767 c 128,-1,33
 447 760 447 760 422 751 c 0,34,35
 363 730 363 730 344 715 c 1,36,-1
 344 535 l 1,37,-1
 602 563 l 1,38,-1
 602 584 l 2,28,29
EndSplineSet
EndChar

StartChar: f
Encoding: 102 102 92
Width: 597
GlyphClass: 2
Flags: W
LayerCount: 2
Fore
SplineSet
120.5 373.5 m 128,-1,1
 116 542 116 542 113 666 c 2,2,3
 113 666 113 666 108 876 c 0,4,5
 106 961 106 961 104.5 1016.5 c 128,-1,6
 103 1072 103 1072 102.5 1102 c 128,-1,7
 102 1132 102 1132 101.5 1146 c 128,-1,8
 101 1160 101 1160 101 1162 c 2,9,-1
 101 1165 l 2,10,11
 101 1201 101 1201 125 1230.5 c 128,-1,12
 149 1260 149 1260 172 1283 c 128,-1,13
 195 1306 195 1306 224 1339 c 2,14,-1
 347 1477 l 1,15,-1
 506 1309 l 1,16,-1
 345 1130 l 1,17,-1
 355 942 l 1,18,-1
 562 985 l 1,19,-1
 584 758 l 1,20,-1
 355 741 l 1,21,-1
 343 0 l 1,22,-1
 130 -16 l 1,23,0
 125 205 125 205 120.5 373.5 c 128,-1,1
EndSplineSet
EndChar

StartChar: g
Encoding: 103 103 93
Width: 977
GlyphClass: 2
Flags: W
LayerCount: 2
Fore
SplineSet
406 211 m 1,0,1
 538 211 538 211 613 221 c 1,2,-1
 609 647 l 1,3,-1
 832 688 l 1,4,5
 836 495 836 495 838.5 358.5 c 128,-1,6
 841 222 841 222 843 129 c 128,-1,7
 845 36 845 36 846 -19 c 2,8,-1
 848 -104 l 2,9,10
 848 -133 848 -133 848 -142 c 2,11,-1
 848 -154 l 2,12,13
 848 -205 848 -205 772 -259 c 0,14,15
 540 -422 540 -422 299 -549 c 1,16,-1
 177 -330 l 1,17,18
 504 -177 504 -177 632 -103 c 1,19,-1
 617 125 l 1,20,-1
 474 0 l 1,21,-1
 308 0 l 2,22,23
 237 0 237 0 214 48 c 2,24,-1
 200 78 l 1,25,26
 109 297 109 297 109 638 c 0,27,28
 109 833 109 833 138 884 c 0,29,30
 149 904 149 904 203.5 920.5 c 128,-1,31
 258 937 258 937 340.5 956.5 c 128,-1,32
 423 976 423 976 508 993 c 128,-1,33
 593 1010 593 1010 678 1025 c 2,34,-1
 843 1055 l 1,35,-1
 892 825 l 1,36,-1
 577 776 l 2,37,38
 403 748 403 748 361 733 c 1,39,40
 351 693 351 693 351 622 c 0,41,42
 351 366 351 366 406 211 c 1,0,1
EndSplineSet
EndChar

StartChar: h
Encoding: 104 104 94
Width: 1022
GlyphClass: 2
Flags: W
LayerCount: 2
Fore
SplineSet
645 555 m 1,0,1
 645 698 645 698 633 764 c 1,2,-1
 563 764 l 2,3,4
 503 764 503 764 470 752 c 0,5,6
 417 734 417 734 385 719 c 1,7,-1
 370 12 l 1,8,-1
 153 0 l 1,9,10
 150 385 150 385 142 582 c 0,11,12
 130 847 130 847 130 1040 c 0,13,14
 130 1170 130 1170 135 1425 c 1,15,-1
 374 1475 l 1,16,-1
 385 842 l 1,17,-1
 544 983 l 1,18,-1
 766 983 l 2,19,20
 803 983 803 983 834 955 c 0,21,22
 889 904 889 904 891 865 c 128,-1,23
 893 826 893 826 893 786 c 2,24,-1
 893 708 l 2,25,26
 893 574 893 574 889 516 c 2,27,-1
 858 -35 l 1,28,-1
 636 -72 l 1,29,-1
 645 555 l 1,0,1
EndSplineSet
EndChar

StartChar: i
Encoding: 105 105 95
Width: 529
GlyphClass: 2
Flags: W
LayerCount: 2
Fore
SplineSet
399 1505 m 1,0,1
 410 1466 410 1466 410 1417.5 c 128,-1,2
 410 1369 410 1369 407 1335.5 c 128,-1,3
 404 1302 404 1302 400 1273 c 0,4,5
 390 1210 390 1210 377 1187 c 1,6,-1
 147 1197 l 1,7,8
 164 1285 164 1285 164 1478 c 1,9,-1
 399 1505 l 1,0,1
391 1001 m 1,10,11
 396 898 396 898 396 828 c 128,-1,12
 396 758 396 758 393 664 c 2,13,-1
 370 0 l 1,14,-1
 157 -18 l 1,15,-1
 137 969 l 1,16,-1
 391 1001 l 1,10,11
EndSplineSet
EndChar

StartChar: j
Encoding: 106 106 96
Width: 524
GlyphClass: 2
Flags: W
LayerCount: 2
Fore
SplineSet
400 1505 m 1,0,1
 410 1463 410 1463 410 1416.5 c 128,-1,2
 410 1370 410 1370 407 1336.5 c 128,-1,3
 404 1303 404 1303 400 1274 c 0,4,5
 390 1211 390 1211 377 1187 c 1,6,-1
 148 1197 l 1,7,8
 164 1296 164 1296 164 1478 c 1,9,-1
 400 1505 l 1,0,1
390 999 m 1,10,11
 395 896 395 896 395 827 c 128,-1,12
 395 758 395 758 392 664 c 1,13,-1
 380 -188 l 1,14,15
 374 -283 374 -283 296 -352 c 2,16,-1
 68 -551 l 1,17,-1
 -87 -372 l 1,18,-1
 158 -178 l 1,19,-1
 138 967 l 1,20,-1
 390 999 l 1,10,11
EndSplineSet
EndChar

StartChar: k
Encoding: 107 107 97
Width: 975
GlyphClass: 2
Flags: W
LayerCount: 2
Fore
SplineSet
130 1427 m 1,0,-1
 372 1473 l 1,1,-1
 376 812 l 1,2,-1
 370 611 l 1,3,-1
 404 604 l 1,4,-1
 742 1040 l 1,5,-1
 919 903 l 1,6,7
 883 849 883 849 840 802 c 2,8,-1
 755 709 l 1,9,10
 711 664 711 664 669 626 c 1,11,-1
 585 553 l 1,12,13
 598 541 598 541 626 512 c 0,14,15
 884 234 884 234 972 74 c 1,16,-1
 775 -66 l 1,17,-1
 431 453 l 1,18,-1
 362 420 l 1,19,-1
 345 8 l 1,20,-1
 134 -8 l 1,21,-1
 130 1427 l 1,0,-1
EndSplineSet
EndChar

StartChar: l
Encoding: 108 108 98
Width: 502
GlyphClass: 2
Flags: W
LayerCount: 2
Fore
SplineSet
128 1427 m 1,0,-1
 376 1473 l 1,1,-1
 383 752 l 1,2,-1
 352 0 l 1,3,-1
 141 -18 l 1,4,-1
 128 1427 l 1,0,-1
EndSplineSet
EndChar

StartChar: m
Encoding: 109 109 99
Width: 1550
GlyphClass: 2
Flags: W
LayerCount: 2
Fore
SplineSet
137 956 m 1,0,-1
 350 983 l 1,1,-1
 385 831 l 1,2,-1
 561 983 l 1,3,-1
 759 983 l 2,4,5
 794 983 794 983 832 944 c 1,6,7
 890 887 890 887 897 834 c 1,8,-1
 1069 983 l 1,9,-1
 1310 983 l 2,10,11
 1323 983 1323 983 1358.5 956 c 128,-1,12
 1394 929 1394 929 1407.5 911 c 128,-1,13
 1421 893 1421 893 1421 870 c 2,14,-1
 1386 -2 l 1,15,-1
 1163 -20 l 1,16,-1
 1159 747 l 1,17,18
 1147 751 1147 751 1114 751 c 0,19,20
 1036 751 1036 751 977 729 c 2,21,-1
 907 703 l 1,22,-1
 876 -2 l 1,23,-1
 661 -20 l 1,24,-1
 657 747 l 1,25,26
 645 751 645 751 612 751 c 0,27,28
 528 751 528 751 469 729 c 1,29,-1
 401 705 l 1,30,-1
 374 6 l 1,31,-1
 155 -8 l 1,32,-1
 137 956 l 1,0,-1
EndSplineSet
EndChar

StartChar: n
Encoding: 110 110 100
Width: 1046
GlyphClass: 2
Flags: W
LayerCount: 2
Fore
SplineSet
137 956 m 1,0,-1
 350 983 l 1,1,-1
 385 831 l 1,2,-1
 561 983 l 1,3,-1
 807 983 l 2,4,5
 826 983 826 983 860 954 c 0,6,7
 917 907 917 907 917 870 c 1,8,-1
 882 -2 l 1,9,-1
 659 -20 l 1,10,-1
 655 752 l 1,11,12
 643 756 643 756 622 756 c 128,-1,13
 601 756 601 756 583.5 754 c 128,-1,14
 566 752 566 752 546 748 c 0,15,16
 499 740 499 740 469 729 c 2,17,-1
 395 702 l 1,18,-1
 368 8 l 1,19,-1
 155 -8 l 1,20,-1
 137 956 l 1,0,-1
EndSplineSet
EndChar

StartChar: o
Encoding: 111 111 101
Width: 989
GlyphClass: 2
Flags: W
LayerCount: 2
Fore
SplineSet
370 592 m 2,0,1
 370 351 370 351 395 174 c 1,2,-1
 592 184 l 1,3,4
 646 398 646 398 646 602 c 0,5,6
 646 684 646 684 635 748 c 1,7,8
 575 778 575 778 211 778 c 2,9,-1
 160 778 l 2,10,11
 139 778 139 778 114 776 c 1,12,-1
 157 1008 l 1,13,14
 174 1009 174 1009 188.5 1010.5 c 128,-1,15
 203 1012 203 1012 218 1012 c 2,16,-1
 248 1014 l 2,17,18
 263 1014 263 1014 332 1014 c 0,19,20
 530 1014 530 1014 766 961 c 1,21,22
 841 942 841 942 858 894 c 0,23,24
 884 820 884 820 884 653 c 0,25,26
 884 348 884 348 791 63 c 0,27,28
 783 37 783 37 772.5 19 c 128,-1,29
 762 1 762 1 736 -4.5 c 128,-1,30
 710 -10 710 -10 675 -15 c 128,-1,31
 640 -20 640 -20 606 -24 c 0,32,33
 532 -31 532 -31 504 -31 c 128,-1,34
 476 -31 476 -31 444 -30.5 c 128,-1,35
 412 -30 412 -30 374 -28 c 0,36,37
 274 -23 274 -23 239 -10.5 c 128,-1,38
 204 2 204 2 191.5 32 c 128,-1,39
 179 62 179 62 167 128 c 0,40,41
 139 282 139 282 139 479 c 0,42,43
 139 554 139 554 143 628 c 1,44,-1
 370 673 l 1,45,-1
 370 592 l 2,0,1
EndSplineSet
EndChar

StartChar: p
Encoding: 112 112 102
Width: 971
GlyphClass: 2
Flags: W
LayerCount: 2
Fore
SplineSet
369 -508 m 1,0,-1
 158 -522 l 1,1,-1
 150 625 l 1,2,-1
 383 670 l 1,3,-1
 393 178 l 1,4,-1
 575 213 l 1,5,6
 631 442 631 442 631 602 c 0,7,8
 631 694 631 694 621 750 c 1,9,10
 570 778 570 778 212 778 c 2,11,-1
 152 778 l 2,12,13
 123 778 123 778 97 776 c 1,14,-1
 141 1008 l 1,15,16
 206 1013 206 1013 260.5 1013 c 128,-1,17
 315 1013 315 1013 386.5 1009 c 128,-1,18
 458 1005 458 1005 530 998 c 0,19,20
 805 969 805 969 842 918 c 0,21,22
 879 866 879 866 879 693 c 0,23,24
 879 392 879 392 781 90 c 0,25,26
 773 65 773 65 762.5 46.5 c 128,-1,27
 752 28 752 28 729 25 c 2,28,-1
 387 -20 l 1,29,-1
 369 -508 l 1,0,-1
EndSplineSet
EndChar

StartChar: q
Encoding: 113 113 103
Width: 966
GlyphClass: 2
Flags: W
LayerCount: 2
Fore
SplineSet
207 49 m 0,0,1
 200 62 200 62 189 87.5 c 128,-1,2
 178 113 178 113 162 174 c 128,-1,3
 146 235 146 235 132 312 c 0,4,5
 102 488 102 488 102 599 c 0,6,7
 102 852 102 852 131 905 c 0,8,9
 142 925 142 925 174 935 c 0,10,11
 382 996 382 996 803 1071 c 1,12,-1
 825 1075 l 1,13,-1
 874 848 l 1,14,15
 686 811 686 811 557.5 792.5 c 128,-1,16
 429 774 429 774 372 756 c 1,17,18
 356 696 356 696 356 610.5 c 128,-1,19
 356 525 356 525 358.5 477.5 c 128,-1,20
 361 430 361 430 366 382 c 0,21,22
 379 272 379 272 403 205 c 1,23,24
 484 186 484 186 604 178 c 1,25,-1
 614 700 l 1,26,-1
 850 690 l 1,27,-1
 819 -510 l 1,28,-1
 610 -524 l 1,29,-1
 602 -37 l 1,30,-1
 301 0 l 1,31,32
 228 10 228 10 207 49 c 0,0,1
EndSplineSet
EndChar

StartChar: r
Encoding: 114 114 104
Width: 702
GlyphClass: 2
Flags: W
LayerCount: 2
Fore
SplineSet
137 776 m 1,0,-1
 135 961 l 1,1,-1
 348 983 l 1,2,-1
 383 831 l 1,3,-1
 536 999 l 1,4,-1
 655 999 l 1,5,-1
 705 765 l 1,6,7
 705 765 705 765 548 731 c 0,8,9
 473 715 473 715 393 696 c 1,10,-1
 379 12 l 1,11,-1
 153 -8 l 1,12,-1
 137 776 l 1,0,-1
EndSplineSet
EndChar

StartChar: s
Encoding: 115 115 105
Width: 836
GlyphClass: 2
Flags: W
LayerCount: 2
Fore
SplineSet
95 160 m 1,0,1
 95 160 95 160 309 173 c 0,2,3
 408 179 408 179 508 193 c 1,4,-1
 515 319 l 1,5,-1
 164 457 l 2,6,7
 133 469 133 469 117 503.5 c 128,-1,8
 101 538 101 538 101 558 c 128,-1,9
 101 578 101 578 101.5 583.5 c 128,-1,10
 102 589 102 589 104 610 c 2,11,-1
 126 799 l 2,12,13
 136 879 136 879 207 910 c 0,14,15
 251 930 251 930 318 946 c 0,16,17
 455 978 455 978 510 989 c 2,18,-1
 607 1010 l 1,19,20
 649 1018 649 1018 682 1024 c 1,21,-1
 728 795 l 1,22,-1
 338 737 l 1,23,-1
 322 641 l 1,24,-1
 691 469 l 2,25,26
 758 438 758 438 748 350 c 2,27,-1
 721 109 l 2,28,29
 712 32 712 32 596 6 c 1,30,31
 472 -28 472 -28 321.5 -44.5 c 128,-1,32
 171 -61 171 -61 123 -63 c 1,33,-1
 95 160 l 1,0,1
EndSplineSet
EndChar

StartChar: t
Encoding: 116 116 106
Width: 714
GlyphClass: 2
Flags: W
LayerCount: 2
Fore
SplineSet
135 1221 m 1,0,-1
 379 1268 l 1,1,-1
 379 954 l 1,2,-1
 630 1001 l 1,3,-1
 649 774 l 1,4,-1
 383 754 l 1,5,-1
 364 213 l 1,6,7
 438 190 438 190 492 177 c 0,8,9
 627 145 627 145 657 137 c 1,10,-1
 604 -72 l 1,11,12
 382 -23 382 -23 215 41 c 0,13,14
 147 66 147 66 147 131 c 2,15,-1
 135 1221 l 1,0,-1
EndSplineSet
EndChar

StartChar: u
Encoding: 117 117 107
Width: 1022
GlyphClass: 2
Flags: W
LayerCount: 2
Fore
SplineSet
257 10 m 1,0,1
 230 13 230 13 198 49 c 1,2,3
 146 104 146 104 144 153 c 2,4,-1
 124 975 l 1,5,-1
 358 1000 l 1,6,-1
 382 226 l 1,7,8
 416 209 416 209 456 209 c 0,9,10
 514 209 514 209 641 270 c 1,11,-1
 664 985 l 1,12,-1
 895 985 l 1,13,-1
 880 10 l 1,14,-1
 714 -10 l 1,15,-1
 671 150 l 1,16,-1
 462 2 l 1,17,-1
 257 10 l 1,0,1
EndSplineSet
EndChar

StartChar: v
Encoding: 118 118 108
Width: 966
GlyphClass: 2
Flags: W
LayerCount: 2
Fore
SplineSet
332 -6 m 1,0,1
 332 -6 332 -6 192 476 c 1,2,3
 192 476 192 476 49 948 c 1,4,-1
 313 1012 l 1,5,-1
 446 403 l 1,6,-1
 469 186 l 1,7,-1
 522 190 l 1,8,-1
 580 444 l 2,9,10
 603 544 603 544 620 645 c 2,11,-1
 682 999 l 1,12,-1
 937 971 l 1,13,14
 863 617 863 617 742 253 c 1,15,-1
 655 4 l 1,16,17
 541 -12 541 -12 464 -12 c 128,-1,18
 387 -12 387 -12 332 -6 c 1,0,1
EndSplineSet
EndChar

StartChar: w
Encoding: 119 119 109
Width: 1514
GlyphClass: 2
Flags: W
LayerCount: 2
Fore
SplineSet
211 395 m 1,0,-1
 73 950 l 1,1,-1
 325 1010 l 1,2,-1
 432 446 l 1,3,-1
 450 186 l 1,4,-1
 497 184 l 1,5,-1
 649 727 l 1,6,-1
 600 954 l 1,7,-1
 866 999 l 1,8,-1
 1036 188 l 1,9,-1
 1079 193 l 1,10,11
 1098 314 1098 314 1115 440 c 2,12,-1
 1188 999 l 1,13,-1
 1448 967 l 1,14,-1
 1406 741 l 1,15,16
 1335 349 1335 349 1220 0 c 1,17,-1
 897 -16 l 1,18,-1
 774 422 l 1,19,-1
 751 422 l 1,20,-1
 639 0 l 1,21,-1
 307 -16 l 1,22,-1
 211 395 l 1,0,-1
EndSplineSet
EndChar

StartChar: x
Encoding: 120 120 110
Width: 942
GlyphClass: 2
Flags: W
LayerCount: 2
Fore
SplineSet
63 20 m 1,0,1
 87 212 87 212 185 407 c 0,2,3
 211 459 211 459 235 494 c 1,4,-1
 324 541 l 1,5,6
 217 675 217 675 172 737 c 1,7,-1
 95 848 l 1,8,9
 62 898 62 898 47 930 c 1,10,-1
 245 1075 l 1,11,-1
 500 624 l 1,12,-1
 522 636 l 1,13,14
 528 654 528 654 540 685 c 2,15,-1
 629 919 l 1,16,-1
 656 996 l 2,17,18
 668 1031 668 1031 675 1056 c 1,19,-1
 901 979 l 1,20,21
 884 895 884 895 835 798 c 2,22,-1
 764 659 l 1,23,24
 722 579 722 579 688 526 c 1,25,-1
 611 487 l 1,26,27
 732 335 732 335 767 286 c 2,28,-1
 828 201 l 2,29,30
 882 125 882 125 905 78 c 1,31,-1
 706 -68 l 1,32,33
 466 354 466 354 441 401 c 1,34,-1
 415 389 l 1,35,-1
 397 341 l 2,36,37
 386 311 386 311 374 274 c 2,38,-1
 349 198 l 2,39,40
 304 59 304 59 295 -14 c 1,41,-1
 63 20 l 1,0,1
EndSplineSet
EndChar

StartChar: y
Encoding: 121 121 111
Width: 1021
GlyphClass: 2
Flags: W
LayerCount: 2
Fore
SplineSet
122 981 m 1,0,-1
 359 1030 l 1,1,-1
 378 223 l 1,2,3
 420 209 420 209 443.5 209 c 128,-1,4
 467 209 467 209 483.5 209.5 c 128,-1,5
 500 210 500 210 522 214 c 0,6,7
 577 225 577 225 638 256 c 1,8,-1
 646 971 l 1,9,-1
 873 999 l 1,10,-1
 885 -126 l 2,11,12
 885 -177 885 -177 820 -223 c 0,13,14
 654 -338 654 -338 576 -387 c 2,15,-1
 432 -476 l 1,16,17
 364 -515 364 -515 299 -549 c 1,18,-1
 177 -330 l 1,19,20
 537 -162 537 -162 669 -82 c 1,21,-1
 654 164 l 1,22,-1
 505 0 l 1,23,-1
 249 0 l 1,24,25
 219 3 219 3 188 29 c 0,26,27
 140 68 140 68 140 113 c 2,28,-1
 122 981 l 1,0,-1
EndSplineSet
EndChar

StartChar: z
Encoding: 122 122 112
Width: 860
GlyphClass: 2
Flags: W
LayerCount: 2
Fore
SplineSet
749 -66 m 1,0,1
 448 10 448 10 118 41 c 1,2,3
 84 165 84 165 77 322 c 1,4,-1
 544 729 l 1,5,-1
 526 793 l 1,6,7
 497 791 497 791 466 791 c 2,8,9
 466 791 466 791 401 791 c 0,10,11
 187 791 187 791 67 823 c 1,12,-1
 120 1042 l 1,13,14
 507 990 507 990 753 969 c 1,15,-1
 796 690 l 1,16,17
 657 529 657 529 428 350 c 1,18,-1
 329 272 l 1,19,-1
 342 215 l 1,20,21
 596 215 596 215 800 164 c 1,22,-1
 749 -66 l 1,0,1
EndSplineSet
EndChar

StartChar: braceleft
Encoding: 123 123 113
Width: 680
GlyphClass: 2
Flags: W
LayerCount: 2
Fore
SplineSet
276 362 m 1,0,-1
 274 385 l 1,1,-1
 112 530 l 1,2,-1
 137 657 l 1,3,-1
 291 750 l 1,4,5
 291 853 291 853 256 1010 c 2,6,-1
 208 1223 l 2,7,8
 180 1351 180 1351 180 1388 c 0,9,10
 180 1470 180 1470 237 1491 c 1,11,-1
 518 1616 l 1,12,-1
 606 1421 l 1,13,-1
 508 1383 l 2,14,15
 473 1370 473 1370 457 1363 c 2,16,-1
 436 1354 l 1,17,18
 436 1339 436 1339 442 1301 c 2,19,-1
 475 1102 l 2,20,21
 514 869 514 869 514 812 c 128,-1,22
 514 755 514 755 513 735 c 128,-1,23
 512 715 512 715 507 698 c 0,24,25
 496 664 496 664 463 645 c 2,26,-1
 352 584 l 1,27,-1
 352 567 l 1,28,-1
 458 498 l 2,29,30
 504 468 504 468 504 384 c 128,-1,31
 504 300 504 300 494.5 225.5 c 128,-1,32
 485 151 485 151 473 74 c 0,33,34
 442 -125 442 -125 442 -238 c 1,35,-1
 643 -279 l 1,36,-1
 587 -485 l 1,37,-1
 284 -416 l 1,38,39
 209 -386 209 -386 198 -314 c 0,40,41
 194 -291 194 -291 194 -268.5 c 128,-1,42
 194 -246 194 -246 200 -200 c 128,-1,43
 206 -154 206 -154 215 -94 c 2,44,-1
 235 33 l 1,45,46
 276 286 276 286 276 362 c 1,0,-1
EndSplineSet
EndChar

StartChar: bar
Encoding: 124 124 114
Width: 626
GlyphClass: 2
Flags: W
LayerCount: 2
Fore
SplineSet
211 1468 m 1,0,-1
 426 1513 l 1,1,-1
 426 752 l 1,2,-1
 395 -588 l 1,3,-1
 215 -604 l 1,4,-1
 211 1468 l 1,0,-1
EndSplineSet
EndChar

StartChar: braceright
Encoding: 125 125 115
Width: 680
GlyphClass: 2
Flags: W
LayerCount: 2
Fore
SplineSet
390 768 m 1,0,-1
 392 745 l 1,1,-1
 554 600 l 1,2,-1
 529 473 l 1,3,-1
 375 380 l 1,4,5
 375 277 375 277 410 120 c 2,6,-1
 458 -93 l 2,7,8
 486 -221 486 -221 486 -258 c 0,9,10
 486 -340 486 -340 429 -361 c 1,11,-1
 148 -486 l 1,12,-1
 60 -291 l 1,13,-1
 158 -254 l 2,14,15
 193 -240 193 -240 209 -233 c 2,16,-1
 230 -224 l 1,17,18
 230 -209 230 -209 224 -171 c 2,19,-1
 191 28 l 2,20,21
 152 261 152 261 152 318 c 128,-1,22
 152 375 152 375 153 395 c 128,-1,23
 154 415 154 415 159 432 c 0,24,25
 170 466 170 466 203 485 c 2,26,-1
 314 546 l 1,27,-1
 314 563 l 1,28,-1
 208 632 l 2,29,30
 162 662 162 662 162 746 c 128,-1,31
 162 830 162 830 171.5 904.5 c 128,-1,32
 181 979 181 979 193 1056 c 0,33,34
 224 1255 224 1255 224 1368 c 1,35,-1
 23 1409 l 1,36,-1
 79 1615 l 1,37,-1
 382 1546 l 1,38,39
 457 1516 457 1516 468 1444 c 0,40,41
 472 1421 472 1421 472 1398.5 c 128,-1,42
 472 1376 472 1376 466 1330 c 128,-1,43
 460 1284 460 1284 451 1224 c 2,44,-1
 431 1097 l 1,45,46
 390 844 390 844 390 768 c 1,0,-1
EndSplineSet
EndChar

StartChar: asciitilde
Encoding: 126 126 116
Width: 1007
GlyphClass: 2
Flags: W
LayerCount: 2
Fore
SplineSet
43 584 m 1,0,1
 98 667 98 667 234 766 c 1,2,3
 291 809 291 809 314 809 c 128,-1,4
 337 809 337 809 371 798.5 c 128,-1,5
 405 788 405 788 446 773 c 128,-1,6
 487 758 487 758 530 740 c 2,7,-1
 675 680 l 1,8,9
 702 670 702 670 707.5 670 c 128,-1,10
 713 670 713 670 722 674.5 c 128,-1,11
 731 679 731 679 751 692 c 2,12,-1
 893 791 l 1,13,-1
 975 694 l 1,14,15
 927 621 927 621 871 565 c 0,16,17
 759 455 759 455 696 455 c 0,18,19
 650 455 650 455 549 500 c 2,20,-1
 352 586 l 2,21,22
 327 596 327 596 323 596 c 128,-1,23
 319 596 319 596 307.5 589.5 c 128,-1,24
 296 583 296 583 270 570 c 0,25,26
 174 522 174 522 106 492 c 1,27,-1
 43 584 l 1,0,1
EndSplineSet
EndChar

StartChar: exclamdown
Encoding: 161 161 118
Width: 589
GlyphClass: 2
Flags: W
LayerCount: 2
Fore
SplineSet
164 693 m 1,0,1
 153 732 153 732 153 777 c 128,-1,2
 153 822 153 822 156 853 c 128,-1,3
 159 884 159 884 164 911 c 0,4,5
 173 968 173 968 186 992 c 1,6,-1
 409 967 l 1,7,8
 402 913 402 913 400 855 c 2,9,-1
 396 764 l 2,10,11
 394 731 394 731 393 705 c 1,12,-1
 164 693 l 1,0,1
188 513 m 1,13,-1
 379 501 l 1,14,-1
 389 -365 l 1,15,-1
 145 -410 l 1,16,-1
 141 -126 l 1,17,-1
 188 513 l 1,13,-1
EndSplineSet
EndChar

StartChar: cent
Encoding: 162 162 119
Width: 796
GlyphClass: 2
Flags: W
LayerCount: 2
Fore
SplineSet
200 47 m 1,0,1
 147 65 147 65 137 130 c 0,2,3
 116 275 116 275 116 367 c 0,4,5
 116 482 116 482 118 548 c 0,6,7
 123 707 123 707 153 868 c 1,8,9
 159 922 159 922 198 935 c 0,10,11
 266 958 266 958 401 978 c 1,12,-1
 418 1278 l 1,13,-1
 612 1284 l 1,14,-1
 573 1003 l 1,15,-1
 661 1014 l 2,16,17
 702 1019 702 1019 732 1024 c 1,18,-1
 766 805 l 1,19,20
 646 792 646 792 589 784 c 2,21,-1
 498 771 l 2,22,23
 419 760 419 760 389 752 c 1,24,25
 364 594 364 594 364 477 c 0,26,27
 364 295 364 295 374 229 c 1,28,29
 618 174 618 174 753 147 c 1,30,-1
 694 -63 l 1,31,32
 566 -40 566 -40 497 -26 c 1,33,-1
 481 -273 l 1,34,-1
 296 -257 l 1,35,-1
 330 8 l 1,36,-1
 337 8 l 1,37,38
 234 33 234 33 200 47 c 1,0,1
EndSplineSet
EndChar

StartChar: sterling
Encoding: 163 163 120
Width: 839
GlyphClass: 2
Flags: W
LayerCount: 2
Fore
SplineSet
334 226 m 1,0,1
 342 193 342 193 347 188 c 1,2,3
 595 188 595 188 799 137 c 1,4,-1
 753 -88 l 1,5,-1
 92 33 l 1,6,7
 52 118 52 118 36 231 c 1,8,-1
 255 424 l 1,9,10
 170 431 170 431 92 445 c 1,11,-1
 112 594 l 1,12,13
 206 588 206 588 324 588 c 1,14,-1
 233 871 l 1,15,16
 260 941 260 941 270 951 c 1,17,18
 434 1037 434 1037 761 1079 c 1,19,-1
 786 838 l 1,20,21
 705 838 705 838 597.5 820.5 c 128,-1,22
 490 803 490 803 467 797 c 1,23,24
 476 724 476 724 515 591 c 1,25,26
 643 595 643 595 717 600 c 1,27,-1
 708 414 l 1,28,29
 661 410 661 410 598 410 c 2,30,-1
 511 410 l 2,31,32
 488 410 488 410 465 411 c 1,33,-1
 334 226 l 1,0,1
EndSplineSet
EndChar

StartChar: currency
Encoding: 164 164 121
Width: 1058
GlyphClass: 2
Flags: W
LayerCount: 2
Fore
SplineSet
683 189 m 1,0,1
 642 180 642 180 553 180 c 128,-1,2
 464 180 464 180 375 211 c 1,3,4
 316 133 316 133 293 105 c 2,5,-1
 252 56 l 1,6,7
 233 35 233 35 219 23 c 1,8,-1
 78 137 l 1,9,-1
 252 310 l 1,10,11
 209 420 209 420 209 529.5 c 128,-1,12
 209 639 209 639 231 701 c 1,13,14
 231 701 231 701 138 798 c 1,15,16
 89 853 89 853 73 879 c 1,17,-1
 207 1004 l 1,18,-1
 351 806 l 1,19,20
 436 840 436 840 538 840 c 128,-1,21
 640 840 640 840 711 817 c 1,22,23
 820 963 820 963 862 999 c 1,24,-1
 995 885 l 1,25,-1
 830 716 l 1,26,27
 860 651 860 651 860 541 c 0,28,29
 860 417 860 417 801 290 c 1,30,-1
 896 191 l 1,31,32
 945 138 945 138 962 109 c 1,33,-1
 831 -18 l 1,34,-1
 683 189 l 1,0,1
567 350 m 0,35,36
 617 350 617 350 639 360 c 1,37,38
 684 430 684 430 684 532 c 0,39,40
 684 607 684 607 651 645 c 1,41,42
 616 659 616 659 576 659 c 128,-1,43
 536 659 536 659 516.5 658 c 128,-1,44
 497 657 497 657 478 654 c 0,45,46
 432 647 432 647 409 633 c 1,47,48
 383 604 383 604 383 518.5 c 128,-1,49
 383 433 383 433 416 391.5 c 128,-1,50
 449 350 449 350 567 350 c 0,35,36
EndSplineSet
EndChar

StartChar: yen
Encoding: 165 165 122
Width: 942
GlyphClass: 2
Flags: W
LayerCount: 2
Fore
SplineSet
795 181 m 1,0,1
 670 181 670 181 581 184 c 1,2,-1
 569 0 l 1,3,-1
 364 -17 l 1,4,-1
 363 192 l 1,5,-1
 266 198 l 2,6,7
 121 207 121 207 46 223 c 1,8,-1
 67 350 l 1,9,10
 165 340 165 340 362 336 c 1,11,-1
 361 455 l 1,12,13
 140 459 140 459 48 479 c 1,14,-1
 63 607 l 1,15,16
 133 601 133 601 260 601 c 1,17,-1
 110 922 l 2,18,19
 84 978 84 978 62 1033 c 1,20,-1
 309 1090 l 1,21,-1
 450 631 l 1,22,-1
 478 631 l 2,23,24
 490 631 490 631 513 635 c 1,25,-1
 658 1085 l 1,26,-1
 897 1048 l 1,27,28
 878 989 878 989 854 934 c 1,29,30
 786 788 786 788 754 725 c 128,-1,31
 722 662 722 662 697 606 c 1,32,33
 769 608 769 608 822.5 609 c 128,-1,34
 876 610 876 610 899 612 c 1,35,-1
 883 458 l 1,36,37
 777 452 777 452 598 452 c 1,38,-1
 598 446 l 1,39,-1
 590 333 l 1,40,41
 704 333 704 333 786 333 c 128,-1,42
 868 333 868 333 891 334 c 1,43,-1
 871 182 l 1,44,-1
 795 181 l 1,0,1
EndSplineSet
EndChar

StartChar: brokenbar
Encoding: 166 166 123
Width: 626
GlyphClass: 2
Flags: W
LayerCount: 2
Fore
SplineSet
213 1468 m 1,0,-1
 426 1513 l 1,1,-1
 430 989 l 1,2,-1
 415 680 l 1,3,-1
 215 645 l 1,4,-1
 213 1468 l 1,0,-1
422 270 m 1,5,-1
 399 -588 l 1,6,-1
 217 -604 l 1,7,-1
 215 236 l 1,8,-1
 422 270 l 1,5,-1
EndSplineSet
EndChar

StartChar: section
Encoding: 167 167 124
Width: 932
GlyphClass: 2
Flags: W
LayerCount: 2
Fore
SplineSet
154 -100 m 2,0,-1
 372 -65 l 2,1,2
 429 -56 429 -56 479 -49 c 1,3,-1
 499 47 l 1,4,5
 257 217 257 217 246 225 c 128,-1,6
 235 233 235 233 232.5 234.5 c 128,-1,7
 230 236 230 236 222 242 c 0,8,9
 185 272 185 272 169 327 c 0,10,11
 121 483 121 483 106 610 c 1,12,-1
 307 664 l 1,13,14
 324 497 324 497 366 406 c 1,15,16
 436 421 436 421 544 471 c 1,17,-1
 555 635 l 1,18,-1
 205 768 l 2,19,20
 174 780 174 780 157.5 815 c 128,-1,21
 141 850 141 850 141 869.5 c 128,-1,22
 141 889 141 889 141.5 894.5 c 128,-1,23
 142 900 142 900 144 922 c 2,24,-1
 166 1110 l 2,25,26
 176 1191 176 1191 247 1222 c 0,27,28
 291 1242 291 1242 358 1258 c 0,29,30
 546 1302 546 1302 618 1315 c 2,31,-1
 723 1335 l 1,32,-1
 768 1106 l 1,33,-1
 379 1049 l 1,34,-1
 362 952 l 1,35,-1
 731 780 l 2,36,37
 790 752 790 752 790 684 c 0,38,39
 790 682 790 682 789 675 c 128,-1,40
 788 668 788 668 785 640 c 128,-1,41
 782 612 782 612 775 554 c 2,42,-1
 756 393 l 2,43,44
 751 352 751 352 724 334 c 0,45,46
 680 303 680 303 658 297.5 c 128,-1,47
 636 292 636 292 627 289 c 2,48,-1
 601 280 l 2,49,50
 584 275 584 275 553 266 c 1,51,-1
 654 194 l 1,52,53
 708 154 708 154 716.5 134.5 c 128,-1,54
 725 115 725 115 725 105.5 c 128,-1,55
 725 96 725 96 724.5 91.5 c 128,-1,56
 724 87 724 87 720 66 c 2,57,-1
 688 -119 l 1,58,59
 678 -198 678 -198 569 -238 c 1,60,61
 442 -286 442 -286 214 -320 c 0,62,63
 157 -329 157 -329 116 -332 c 1,64,-1
 65 -113 l 1,65,66
 103 -108 103 -108 154 -100 c 2,0,-1
EndSplineSet
EndChar

StartChar: dieresis
Encoding: 168 168 125
Width: 708
GlyphClass: 2
Flags: W
LayerCount: 2
Fore
SplineSet
256 1453 m 1,0,1
 291 1395 291 1395 291 1262 c 0,2,3
 291 1191 291 1191 278 1167 c 1,4,-1
 80 1156 l 1,5,6
 63 1302 63 1302 39 1398 c 1,7,-1
 256 1453 l 1,0,1
649 1443 m 1,8,9
 664 1411 664 1411 664 1367.5 c 128,-1,10
 664 1324 664 1324 659.5 1291.5 c 128,-1,11
 655 1259 655 1259 648 1230 c 0,12,13
 635 1169 635 1169 616 1142 c 1,14,-1
 413 1177 l 1,15,16
 431 1256 431 1256 431 1320 c 128,-1,17
 431 1384 431 1384 426 1427 c 1,18,-1
 649 1443 l 1,8,9
EndSplineSet
EndChar

StartChar: copyright
Encoding: 169 169 126
Width: 1687
GlyphClass: 2
Flags: W
LayerCount: 2
Fore
SplineSet
323 123 m 1,0,1
 238 241 238 241 202 498 c 0,2,3
 192 566 192 566 192 618 c 128,-1,4
 192 670 192 670 194.5 731.5 c 128,-1,5
 197 793 197 793 205 852 c 0,6,7
 223 988 223 988 262 1052 c 0,8,9
 352 1200 352 1200 530 1250 c 0,10,11
 722 1303 722 1303 917 1303 c 0,12,13
 1094 1303 1094 1303 1247 1246 c 0,14,15
 1348 1208 1348 1208 1394.5 1149 c 128,-1,16
 1441 1090 1441 1090 1465 1025 c 0,17,18
 1513 895 1513 895 1513 678 c 0,19,20
 1513 522 1513 522 1447 304 c 0,21,22
 1407 170 1407 170 1365.5 104.5 c 128,-1,23
 1324 39 1324 39 1297 18.5 c 128,-1,24
 1270 -2 1270 -2 1228 -15 c 128,-1,25
 1186 -28 1186 -28 1138 -36 c 0,26,27
 1060 -50 1060 -50 947.5 -51.5 c 128,-1,28
 835 -53 835 -53 739 -37 c 128,-1,29
 643 -21 643 -21 564 4 c 0,30,31
 413 53 413 53 323 123 c 1,0,1
396 681 m 0,32,33
 396 406 396 406 479 256 c 1,34,35
 579 174 579 174 816 147 c 0,36,37
 886 139 886 139 953 139 c 0,38,39
 1095 139 1095 139 1177 174 c 1,40,41
 1266 302 1266 302 1294 526 c 0,42,43
 1304 601 1304 601 1304 662.5 c 128,-1,44
 1304 724 1304 724 1300 773.5 c 128,-1,45
 1296 823 1296 823 1286 872 c 0,46,47
 1264 981 1264 981 1216 1040 c 1,48,49
 1128 1079 1128 1079 970 1091 c 0,50,51
 930 1094 930 1094 894 1094 c 128,-1,52
 858 1094 858 1094 801 1089 c 128,-1,53
 744 1084 744 1084 684 1074 c 0,54,55
 544 1049 544 1049 467 1012 c 1,56,57
 415 937 415 937 400 762 c 0,58,59
 396 717 396 717 396 681 c 0,32,33
630 412 m 1,60,61
 620 499 620 499 620 564.5 c 128,-1,62
 620 630 620 630 621.5 655 c 128,-1,63
 623 680 623 680 626 710 c 0,64,65
 636 832 636 832 644.5 854.5 c 128,-1,66
 653 877 653 877 660 885 c 0,67,68
 671 898 671 898 698 909 c 1,69,70
 855 944 855 944 1040 965 c 1,71,-1
 1065 793 l 1,72,-1
 938 780 l 2,73,74
 856 771 856 771 819 762 c 1,75,76
 805 690 805 690 805 640 c 2,77,-1
 805 571 l 2,78,79
 805 514 805 514 809 492 c 1,80,-1
 1071 432 l 1,81,-1
 1030 270 l 1,82,83
 990 276 990 276 938 286 c 2,84,-1
 834 308 l 1,85,86
 670 344 670 344 646 372 c 0,87,88
 635 386 635 386 630 412 c 1,60,61
EndSplineSet
EndChar

StartChar: ordfeminine
Encoding: 170 170 127
Width: 786
GlyphClass: 2
Flags: W
LayerCount: 2
Fore
SplineSet
444 1036 m 1,0,1
 420 1041 420 1041 125 1085 c 1,2,-1
 166 1286 l 1,3,-1
 390 1250 l 2,4,5
 608 1215 608 1215 628 1169 c 0,6,7
 637 1148 637 1148 637 1128 c 2,8,-1
 639 733 l 1,9,-1
 456 719 l 1,10,-1
 450 813 l 1,11,12
 386 803 386 803 303 776 c 1,13,-1
 298 748 l 2,14,15
 296 737 296 737 296 723.5 c 128,-1,16
 296 710 296 710 299 688 c 1,17,18
 389 668 389 668 484 656 c 1,19,-1
 684 633 l 1,20,-1
 649 438 l 1,21,22
 306 472 306 472 147 531 c 0,23,24
 102 547 102 547 102 738 c 0,25,26
 102 834 102 834 120 875.5 c 128,-1,27
 138 917 138 917 151 920 c 0,28,29
 222 940 222 940 295.5 947.5 c 128,-1,30
 369 955 369 955 444 965 c 1,31,-1
 444 1036 l 1,0,1
678 48 m 1,32,33
 331 61 331 61 100 138 c 1,34,-1
 123 316 l 1,35,36
 380 261 380 261 702 249 c 1,37,-1
 678 48 l 1,32,33
EndSplineSet
EndChar

StartChar: guillemotleft
Encoding: 171 171 128
Width: 1206
GlyphClass: 2
Flags: W
LayerCount: 2
Fore
SplineSet
624 587 m 1,0,-1
 958 991 l 1,1,-1
 1103 872 l 1,2,-1
 870 516 l 1,3,-1
 1107 157 l 1,4,-1
 966 41 l 1,5,-1
 602 446 l 1,6,-1
 624 587 l 1,0,-1
80 446 m 1,7,-1
 102 587 l 1,8,-1
 436 991 l 1,9,-1
 581 872 l 1,10,-1
 348 516 l 1,11,-1
 585 157 l 1,12,-1
 444 41 l 1,13,-1
 80 446 l 1,7,-1
EndSplineSet
EndChar

StartChar: logicalnot
Encoding: 172 172 129
Width: 1271
GlyphClass: 2
Flags: W
LayerCount: 2
Fore
SplineSet
139 715 m 1,0,-1
 1157 715 l 1,1,-1
 1157 98 l 1,2,-1
 960 78 l 1,3,-1
 960 522 l 1,4,-1
 125 522 l 1,5,-1
 139 715 l 1,0,-1
EndSplineSet
EndChar

StartChar: registered
Encoding: 174 174 131
Width: 1687
GlyphClass: 2
Flags: W
LayerCount: 2
Fore
SplineSet
323 123 m 1,0,1
 238 241 238 241 202 498 c 0,2,3
 192 566 192 566 192 618 c 128,-1,4
 192 670 192 670 194.5 731.5 c 128,-1,5
 197 793 197 793 205 852 c 0,6,7
 223 988 223 988 262 1052 c 0,8,9
 352 1200 352 1200 530 1250 c 0,10,11
 722 1303 722 1303 917 1303 c 0,12,13
 1094 1303 1094 1303 1247 1246 c 0,14,15
 1348 1208 1348 1208 1394.5 1149 c 128,-1,16
 1441 1090 1441 1090 1465 1025 c 0,17,18
 1513 895 1513 895 1513 678 c 0,19,20
 1513 522 1513 522 1447 304 c 0,21,22
 1407 170 1407 170 1365.5 104.5 c 128,-1,23
 1324 39 1324 39 1297 18.5 c 128,-1,24
 1270 -2 1270 -2 1228 -15 c 128,-1,25
 1186 -28 1186 -28 1138 -36 c 0,26,27
 1060 -50 1060 -50 947.5 -51.5 c 128,-1,28
 835 -53 835 -53 739 -37 c 128,-1,29
 643 -21 643 -21 564 4 c 0,30,31
 413 53 413 53 323 123 c 1,0,1
396 681 m 0,32,33
 396 406 396 406 479 256 c 1,34,35
 579 174 579 174 816 147 c 0,36,37
 886 139 886 139 953 139 c 0,38,39
 1095 139 1095 139 1177 174 c 1,40,41
 1266 302 1266 302 1294 526 c 0,42,43
 1304 601 1304 601 1304 662.5 c 128,-1,44
 1304 724 1304 724 1300 773.5 c 128,-1,45
 1296 823 1296 823 1286 872 c 0,46,47
 1264 981 1264 981 1216 1040 c 1,48,49
 1128 1079 1128 1079 970 1091 c 0,50,51
 930 1094 930 1094 894 1094 c 128,-1,52
 858 1094 858 1094 801 1089 c 128,-1,53
 744 1084 744 1084 684 1074 c 0,54,55
 544 1049 544 1049 467 1012 c 1,56,57
 415 937 415 937 400 762 c 0,58,59
 396 717 396 717 396 681 c 0,32,33
602 755 m 1,60,-1
 774 774 l 1,61,-1
 774 657 l 1,62,-1
 772 580 l 1,63,64
 880 586 880 586 942 619 c 1,65,66
 962 674 962 674 962 700 c 2,67,-1
 962 735 l 2,68,69
 962 744 962 744 960 757 c 1,70,71
 831 804 831 804 557 818 c 1,72,-1
 602 987 l 1,73,74
 874 973 874 973 1048 909 c 1,75,76
 1103 891 1103 891 1135 835 c 0,77,78
 1143 821 1143 821 1143 806.5 c 128,-1,79
 1143 792 1143 792 1140.5 760 c 128,-1,80
 1138 728 1138 728 1132 691 c 0,81,82
 1111 576 1111 576 1075 526 c 0,83,84
 1068 517 1068 517 1059 513 c 2,85,-1
 996 489 l 1,86,87
 1010 478 1010 478 1022 468 c 1,88,-1
 1044 446 l 1,89,90
 1093 401 1093 401 1129 342 c 1,91,-1
 981 251 l 1,92,-1
 863 465 l 1,93,-1
 774 460 l 1,94,-1
 770 290 l 1,95,-1
 621 281 l 1,96,-1
 602 755 l 1,60,-1
EndSplineSet
EndChar

StartChar: macron
Encoding: 175 175 132
Width: 807
GlyphClass: 2
Flags: W
LayerCount: 2
Fore
SplineSet
82 1382 m 1,0,-1
 735 1382 l 1,1,-1
 721 1167 l 1,2,-1
 96 1167 l 1,3,-1
 82 1382 l 1,0,-1
EndSplineSet
EndChar

StartChar: degree
Encoding: 176 176 133
Width: 682
GlyphClass: 2
Flags: W
LayerCount: 2
Fore
SplineSet
476.5 756.5 m 128,-1,1
 420 729 420 729 347.5 729 c 128,-1,2
 275 729 275 729 219 752.5 c 128,-1,3
 163 776 163 776 124 820 c 0,4,5
 43 910 43 910 43 1061 c 0,6,7
 43 1187 43 1187 130 1257 c 1,8,9
 214 1323 214 1323 352 1323 c 0,10,11
 551 1323 551 1323 621 1183 c 0,12,13
 645 1135 645 1135 645 1068 c 128,-1,14
 645 1001 645 1001 626.5 939 c 128,-1,15
 608 877 608 877 570.5 830.5 c 128,-1,0
 533 784 533 784 476.5 756.5 c 128,-1,1
231 1049 m 0,16,17
 231 913 231 913 338 913 c 0,18,19
 394 913 394 913 415 932 c 0,20,21
 454 967 454 967 454 1032 c 128,-1,22
 454 1097 454 1097 426 1118 c 128,-1,23
 398 1139 398 1139 361.5 1139 c 128,-1,24
 325 1139 325 1139 304.5 1134.5 c 128,-1,25
 284 1130 284 1130 268 1120 c 0,26,27
 231 1096 231 1096 231 1049 c 0,16,17
EndSplineSet
EndChar

StartChar: plusminus
Encoding: 177 177 134
Width: 1153
GlyphClass: 2
Flags: W
LayerCount: 2
Fore
SplineSet
471 522 m 1,0,-1
 471 530 l 1,1,-1
 450 530 l 2,2,3
 305 530 305 530 249 534 c 128,-1,4
 193 538 193 538 145 541 c 1,5,-1
 166 719 l 1,6,-1
 476 722 l 1,7,-1
 469 977 l 1,8,-1
 688 1022 l 1,9,-1
 688 860 l 1,10,-1
 682 725 l 1,11,-1
 1018 729 l 1,12,-1
 1007 549 l 1,13,14
 915 545 915 545 836.5 541 c 128,-1,15
 758 537 758 537 674 534 c 1,16,-1
 674 522 l 1,17,-1
 657 256 l 1,18,-1
 473 240 l 1,19,-1
 471 522 l 1,0,-1
145 141 m 1,20,-1
 1038 152 l 1,21,-1
 1028 -29 l 1,22,-1
 750 -41 l 2,23,24
 612 -47 612 -47 506 -47 c 128,-1,25
 400 -47 400 -47 361 -46.5 c 128,-1,26
 322 -46 322 -46 286 -45 c 0,27,28
 227 -43 227 -43 125 -37 c 1,29,-1
 145 141 l 1,20,-1
EndSplineSet
EndChar

StartChar: twosuperior
Encoding: 178 178 135
Width: 751
GlyphClass: 2
Flags: W
LayerCount: 2
Fore
SplineSet
671 1373 m 1,0,1
 687 1341 687 1341 687 1262 c 0,2,3
 687 1146 687 1146 680 1094 c 1,4,5
 675 1070 675 1070 641.5 1049.5 c 128,-1,6
 608 1029 608 1029 564 1008 c 128,-1,7
 520 987 520 987 471 967 c 0,8,9
 362 922 362 922 284 903 c 1,10,-1
 278 836 l 1,11,12
 413 802 413 802 702 791 c 1,13,-1
 669 586 l 1,14,15
 440 596 440 596 219 651 c 0,16,17
 147 669 147 669 86 692 c 1,18,19
 79 741 79 741 79 801 c 0,20,21
 79 910 79 910 96 1010 c 1,22,23
 238 1053 238 1053 395 1144 c 0,24,25
 441 1170 441 1170 471 1192 c 1,26,-1
 467 1268 l 1,27,28
 308 1321 308 1321 98 1346 c 1,29,-1
 157 1544 l 1,30,-1
 288 1523 l 2,31,32
 467 1495 467 1495 612 1444 c 0,33,34
 655 1428 655 1428 671 1373 c 1,0,1
EndSplineSet
EndChar

StartChar: threesuperior
Encoding: 179 179 136
Width: 747
GlyphClass: 2
Flags: W
LayerCount: 2
Fore
SplineSet
112 1139 m 1,0,1
 293 1165 293 1165 420 1204 c 1,2,-1
 420 1280 l 1,3,4
 339 1312 339 1312 235 1326 c 128,-1,5
 131 1340 131 1340 94 1346 c 1,6,-1
 149 1542 l 1,7,-1
 282 1521 l 2,8,9
 460 1493 460 1493 594 1446 c 1,10,11
 636 1355 636 1355 636 1203 c 2,12,-1
 636 1180 l 2,13,14
 636 1168 636 1168 635 1157 c 1,15,16
 575 1114 575 1114 504 1075 c 1,17,-1
 504 1063 l 1,18,-1
 635 997 l 1,19,20
 655 974 655 974 655 912 c 0,21,22
 655 816 655 816 633 721 c 1,23,24
 487 626 487 626 212 596 c 0,25,26
 146 588 146 588 108 588 c 1,27,-1
 84 782 l 1,28,29
 267 800 267 800 426 838 c 1,30,31
 427 843 427 843 427 850 c 2,32,-1
 427 863 l 2,33,34
 427 925 427 925 418 954 c 1,35,-1
 332 997 l 1,36,37
 294 982 294 982 252 970 c 2,38,-1
 166 944 l 1,39,-1
 112 1139 l 1,0,1
EndSplineSet
EndChar

StartChar: acute
Encoding: 180 180 137
Width: 553
GlyphClass: 2
Flags: W
LayerCount: 2
Fore
SplineSet
45 1220 m 1,0,-1
 334 1589 l 1,1,-1
 508 1425 l 1,2,3
 459 1354 459 1354 361 1270 c 1,4,5
 228 1161 228 1161 153 1117 c 1,6,-1
 45 1220 l 1,0,-1
EndSplineSet
EndChar

StartChar: mu
Encoding: 181 181 138
AltUni2: 0003bc.ffffffff.0
Width: 1265
GlyphClass: 2
Flags: W
LayerCount: 2
Fore
SplineSet
186 -524 m 1,0,1
 179 -342 179 -342 179 -163.5 c 128,-1,2
 179 15 179 15 183.5 155 c 128,-1,3
 188 295 188 295 194 429 c 128,-1,4
 200 563 200 563 206 697 c 128,-1,5
 212 831 212 831 215 979 c 1,6,-1
 446 1004 l 1,7,-1
 465 250 l 1,8,9
 517 221 517 221 565 221 c 0,10,11
 645 221 645 221 745 270 c 1,12,-1
 772 985 l 1,13,-1
 999 985 l 1,14,-1
 987 193 l 1,15,-1
 1007 184 l 1,16,-1
 1163 246 l 1,17,-1
 1222 55 l 1,18,19
 1112 0 1112 0 973 0 c 0,20,21
 901 0 901 0 841 18 c 1,22,-1
 764 170 l 1,23,-1
 630 2 l 1,24,25
 614 -1 614 -1 575 -1 c 0,26,27
 494 -1 494 -1 482 8.5 c 128,-1,28
 470 18 470 18 455.5 36 c 128,-1,29
 441 54 441 54 428.5 73.5 c 128,-1,30
 416 93 416 93 404 113 c 2,31,-1
 383 150 l 1,32,-1
 370 147 l 1,33,34
 370 131 370 131 378 53 c 0,35,36
 398 -132 398 -132 406 -211 c 2,37,-1
 420 -362 l 2,38,39
 427 -433 427 -433 432 -498 c 1,40,-1
 186 -524 l 1,0,1
EndSplineSet
EndChar

StartChar: paragraph
Encoding: 182 182 139
Width: 1175
GlyphClass: 2
Flags: W
LayerCount: 2
Fore
SplineSet
239.5 265.5 m 128,-1,1
 232 279 232 279 223 301 c 128,-1,2
 214 323 214 323 203 366.5 c 128,-1,3
 192 410 192 410 182 464.5 c 128,-1,4
 172 519 172 519 163.5 581.5 c 128,-1,5
 155 644 155 644 148 710 c 0,6,7
 135 847 135 847 135 927.5 c 128,-1,8
 135 1008 135 1008 137 1044.5 c 128,-1,9
 139 1081 139 1081 147 1112 c 0,10,11
 165 1181 165 1181 213 1195 c 0,12,13
 346 1233 346 1233 504 1258 c 2,14,-1
 863 1313 l 2,15,16
 927 1323 927 1323 981 1333 c 1,17,-1
 1030 1104 l 1,18,-1
 714 1056 l 1,19,20
 542 1031 542 1031 495 1016 c 1,21,22
 485 972 485 972 485 913 c 128,-1,23
 485 854 485 854 487.5 788.5 c 128,-1,24
 490 723 490 723 496 654 c 0,25,26
 508 492 508 492 534 410 c 1,27,28
 588 397 588 397 651 397 c 1,29,-1
 651 926 l 1,30,-1
 870 967 l 1,31,-1
 886 -164 l 2,32,33
 886 -190 886 -190 864.5 -216 c 128,-1,34
 843 -242 843 -242 814 -271 c 128,-1,35
 785 -300 785 -300 742.5 -336.5 c 128,-1,36
 700 -373 700 -373 652 -410 c 0,37,38
 520 -510 520 -510 458 -551 c 1,39,-1
 331 -346 l 1,40,41
 383 -314 383 -314 426 -284 c 2,42,-1
 510 -226 l 1,43,44
 550 -197 550 -197 589 -166 c 1,45,-1
 671 -98 l 1,46,-1
 657 197 l 1,47,-1
 334 217 l 1,48,49
 283 219 283 219 265 235.5 c 128,-1,0
 247 252 247 252 239.5 265.5 c 128,-1,1
EndSplineSet
EndChar

StartChar: periodcentered
Encoding: 183 183 140
Width: 588
GlyphClass: 2
Flags: W
LayerCount: 2
Fore
SplineSet
169 457 m 1,0,1
 177 590 177 590 177 639.5 c 128,-1,2
 177 689 177 689 175 719 c 1,3,-1
 417 744 l 1,4,5
 428 702 428 702 428 634 c 0,6,7
 428 489 428 489 398 434 c 1,8,-1
 169 457 l 1,0,1
EndSplineSet
EndChar

StartChar: cedilla
Encoding: 184 184 141
Width: 575
GlyphClass: 2
Flags: W
LayerCount: 2
Fore
SplineSet
280 -274 m 1,0,1
 207 -252 207 -252 100 -233 c 1,2,-1
 182 43 l 1,3,-1
 323 64 l 1,4,-1
 291 -112 l 1,5,6
 341 -125 341 -125 373 -135 c 1,7,-1
 420 -152 l 2,8,9
 450 -162 450 -162 456 -171 c 128,-1,10
 462 -180 462 -180 465 -190 c 0,11,12
 469 -202 469 -202 469 -224 c 128,-1,13
 469 -246 469 -246 464.5 -277 c 128,-1,14
 460 -308 460 -308 453 -338 c 0,15,16
 437 -409 437 -409 423.5 -429 c 128,-1,17
 410 -449 410 -449 373 -465.5 c 128,-1,18
 336 -482 336 -482 292 -498 c 0,19,20
 216 -524 216 -524 143 -542 c 1,21,-1
 98 -385 l 1,22,23
 154 -369 154 -369 194 -356 c 2,24,-1
 274 -332 l 1,25,-1
 280 -274 l 1,0,1
EndSplineSet
EndChar

StartChar: onesuperior
Encoding: 185 185 142
Width: 661
GlyphClass: 2
Flags: W
LayerCount: 2
Fore
SplineSet
596 586 m 1,0,1
 292 594 292 594 55 633 c 1,2,-1
 76 801 l 1,3,-1
 253 792 l 1,4,-1
 246 1174 l 1,5,6
 131 1174 131 1174 33 1188 c 1,7,-1
 71 1386 l 1,8,-1
 246 1356 l 1,9,-1
 246 1481 l 1,10,-1
 448 1509 l 1,11,12
 463 1430 463 1430 463 1342 c 0,13,14
 463 1223 463 1223 459 1171 c 2,15,-1
 431 783 l 1,16,-1
 608 774 l 1,17,-1
 596 586 l 1,0,1
EndSplineSet
EndChar

StartChar: ordmasculine
Encoding: 186 186 143
Width: 800
GlyphClass: 2
Flags: W
LayerCount: 2
Fore
SplineSet
330 920 m 1,0,1
 330 788 330 788 346 655 c 1,2,-1
 461 664 l 1,3,4
 499 830 499 830 499 900 c 0,5,6
 499 1002 499 1002 493 1026 c 1,7,8
 455 1050 455 1050 187 1050 c 2,9,-1
 149 1050 l 2,10,11
 131 1050 131 1050 114 1049 c 1,12,-1
 137 1237 l 1,13,14
 185 1241 185 1241 258 1241 c 0,15,16
 427 1241 427 1241 637 1199 c 1,17,18
 683 1191 683 1191 692 1130 c 2,19,-1
 699 1082 l 2,20,21
 706 1031 706 1031 706 941 c 0,22,23
 706 749 706 749 638 543 c 0,24,25
 632 524 632 524 624.5 510.5 c 128,-1,26
 617 497 617 497 598 493 c 128,-1,27
 579 489 579 489 550 485.5 c 128,-1,28
 521 482 521 482 491 480 c 0,29,30
 437 475 437 475 410 475 c 2,31,-1
 359 475 l 2,32,33
 249 475 249 475 215 487 c 128,-1,34
 181 499 181 499 172.5 520 c 128,-1,35
 164 541 164 541 154 590 c 0,36,37
 133 699 133 699 133 785 c 0,38,39
 133 898 133 898 137 954 c 1,40,-1
 331 987 l 1,41,-1
 330 920 l 1,0,1
666 54 m 1,42,43
 359 54 359 54 106 124 c 1,44,-1
 120 300 l 1,45,46
 390 255 390 255 684 255 c 1,47,-1
 666 54 l 1,42,43
EndSplineSet
EndChar

StartChar: guillemotright
Encoding: 187 187 144
Width: 1209
GlyphClass: 2
Flags: W
LayerCount: 2
Fore
SplineSet
847 510 m 1,0,-1
 610 869 l 1,1,-1
 751 985 l 1,2,-1
 1115 580 l 1,3,-1
 1093 439 l 1,4,-1
 759 35 l 1,5,-1
 614 154 l 1,6,-1
 847 510 l 1,0,-1
322 510 m 1,7,-1
 85 869 l 1,8,-1
 226 985 l 1,9,-1
 590 580 l 1,10,-1
 568 439 l 1,11,-1
 234 35 l 1,12,-1
 89 154 l 1,13,-1
 322 510 l 1,7,-1
EndSplineSet
EndChar

StartChar: onequarter
Encoding: 188 188 145
Width: 1895
GlyphClass: 2
Flags: W
LayerCount: 2
Fore
SplineSet
635 586 m 1,0,1
 331 594 331 594 94 633 c 1,2,-1
 114 801 l 1,3,-1
 292 792 l 1,4,-1
 284 1174 l 1,5,6
 169 1174 169 1174 71 1188 c 1,7,-1
 110 1386 l 1,8,-1
 284 1356 l 1,9,-1
 284 1481 l 1,10,-1
 487 1509 l 1,11,12
 501 1423 501 1423 501 1339 c 0,13,14
 501 1225 501 1225 497 1171 c 2,15,-1
 469 783 l 1,16,-1
 647 774 l 1,17,-1
 635 586 l 1,0,1
1177 1436 m 1,18,-1
 1370 1327 l 1,19,-1
 567 -98 l 1,20,-1
 418 -14 l 1,21,-1
 1177 1436 l 1,18,-1
1703 211 m 1,22,23
 1777 207 1777 207 1831 207 c 1,24,-1
 1808 23 l 1,25,26
 1753 23 1753 23 1692 26 c 1,27,-1
 1679 -186 l 1,28,-1
 1497 -201 l 1,29,-1
 1501 39 l 1,30,31
 1198 68 1198 68 1077 104 c 1,32,-1
 1075 225 l 1,33,34
 1153 464 1153 464 1196 668 c 1,35,-1
 1224 805 l 1,36,-1
 1421 778 l 1,37,38
 1421 655 1421 655 1353 451 c 1,39,-1
 1284 248 l 1,40,41
 1316 238 1316 238 1504 224 c 1,42,-1
 1509 541 l 1,43,-1
 1710 571 l 1,44,45
 1715 528 1715 528 1715 478 c 0,46,47
 1715 386 1715 386 1710 324 c 1,48,-1
 1703 211 l 1,22,23
EndSplineSet
EndChar

StartChar: onehalf
Encoding: 189 189 146
Width: 1814
GlyphClass: 2
Flags: W
LayerCount: 2
Fore
SplineSet
635 586 m 1,0,1
 331 594 331 594 94 633 c 1,2,-1
 114 801 l 1,3,-1
 292 792 l 1,4,-1
 284 1174 l 1,5,6
 169 1174 169 1174 71 1188 c 1,7,-1
 110 1386 l 1,8,-1
 284 1356 l 1,9,-1
 284 1481 l 1,10,-1
 487 1509 l 1,11,12
 501 1423 501 1423 501 1339 c 0,13,14
 501 1225 501 1225 497 1171 c 2,15,-1
 469 783 l 1,16,-1
 647 774 l 1,17,-1
 635 586 l 1,0,1
1177 1436 m 1,18,-1
 1370 1327 l 1,19,-1
 567 -98 l 1,20,-1
 418 -14 l 1,21,-1
 1177 1436 l 1,18,-1
1106 -92 m 1,22,23
 1098 -34 1098 -34 1098 22 c 0,24,25
 1098 133 1098 133 1116 225 c 1,26,27
 1249 265 1249 265 1415 359 c 0,28,29
 1461 385 1461 385 1491 408 c 1,30,-1
 1487 483 l 1,31,32
 1328 536 1328 536 1118 561 c 1,33,-1
 1177 760 l 1,34,-1
 1308 739 l 2,35,36
 1487 711 1487 711 1632 660 c 0,37,38
 1677 644 1677 644 1691 584 c 0,39,40
 1707 520 1707 520 1707 458 c 0,41,42
 1707 303 1707 303 1684 282 c 0,43,44
 1671 270 1671 270 1649 256.5 c 128,-1,45
 1627 243 1627 243 1583 221.5 c 128,-1,46
 1539 200 1539 200 1490 180 c 0,47,48
 1389 140 1389 140 1304 119 c 1,49,-1
 1298 51 l 1,50,51
 1433 17 1433 17 1722 6 c 1,52,-1
 1689 -199 l 1,53,54
 1347 -185 1347 -185 1106 -92 c 1,22,23
EndSplineSet
EndChar

StartChar: threequarters
Encoding: 190 190 147
Width: 1822
GlyphClass: 2
Flags: W
LayerCount: 2
Fore
SplineSet
635 586 m 1,0,1
 331 594 331 594 94 633 c 1,2,-1
 114 801 l 1,3,-1
 292 792 l 1,4,-1
 284 1174 l 1,5,6
 169 1174 169 1174 71 1188 c 1,7,-1
 110 1386 l 1,8,-1
 284 1356 l 1,9,-1
 284 1481 l 1,10,-1
 487 1509 l 1,11,12
 501 1423 501 1423 501 1339 c 0,13,14
 501 1225 501 1225 497 1171 c 2,15,-1
 469 783 l 1,16,-1
 647 774 l 1,17,-1
 635 586 l 1,0,1
1177 1436 m 1,18,-1
 1370 1327 l 1,19,-1
 567 -98 l 1,20,-1
 418 -14 l 1,21,-1
 1177 1436 l 1,18,-1
1138 340 m 1,22,23
 1313 365 1313 365 1446 406 c 1,24,-1
 1446 481 l 1,25,26
 1365 513 1365 513 1261 527 c 128,-1,27
 1157 541 1157 541 1120 547 c 1,28,-1
 1175 743 l 1,29,-1
 1308 723 l 2,30,31
 1481 696 1481 696 1620 647 c 1,32,33
 1662 556 1662 556 1662 404 c 2,34,-1
 1662 381 l 2,35,36
 1662 369 1662 369 1661 358 c 1,37,-1
 1592 313 l 2,38,39
 1559 292 1559 292 1530 276 c 1,40,-1
 1530 264 l 1,41,-1
 1661 199 l 1,42,43
 1681 176 1681 176 1681 128 c 128,-1,44
 1681 80 1681 80 1678 51 c 128,-1,45
 1675 22 1675 22 1672 -6 c 0,46,47
 1663 -78 1663 -78 1659 -78 c 1,48,49
 1513 -173 1513 -173 1238 -204 c 0,50,51
 1172 -211 1172 -211 1134 -211 c 1,52,-1
 1110 -16 l 1,53,54
 1300 3 1300 3 1452 39 c 1,55,56
 1453 44 1453 44 1453 50 c 2,57,-1
 1453 64 l 2,58,59
 1453 124 1453 124 1444 156 c 1,60,-1
 1358 199 l 1,61,62
 1320 183 1320 183 1278 170 c 2,63,-1
 1192 145 l 1,64,-1
 1138 340 l 1,22,23
EndSplineSet
EndChar

StartChar: questiondown
Encoding: 191 191 148
Width: 723
GlyphClass: 2
Flags: W
LayerCount: 2
Fore
SplineSet
570 972 m 1,0,1
 570 800 570 800 580 710 c 1,2,-1
 340 671 l 1,3,4
 320 727 320 727 320 836 c 128,-1,5
 320 945 320 945 340 981 c 1,6,-1
 570 972 l 1,0,1
55 188 m 1,7,8
 55 215 55 215 94 249 c 1,9,-1
 341 455 l 1,10,11
 362 476 362 476 362 539 c 1,12,-1
 566 503 l 1,13,14
 573 468 573 468 573 435.5 c 128,-1,15
 573 403 573 403 560 384.5 c 128,-1,16
 547 366 547 366 513.5 335.5 c 128,-1,17
 480 305 480 305 440 272 c 1,18,-1
 358 208 l 2,19,20
 317 177 317 177 285 149 c 1,21,22
 281 115 281 115 281 76 c 0,23,24
 281 -17 281 -17 299 -115 c 1,25,26
 428 -132 428 -132 520 -153 c 2,27,-1
 653 -184 l 1,28,-1
 620 -424 l 1,29,-1
 89 -321 l 1,30,31
 31 -311 31 -311 35 -251 c 1,32,-1
 55 188 l 1,7,8
EndSplineSet
EndChar

StartChar: Agrave
Encoding: 192 192 149
Width: 1151
GlyphClass: 2
Flags: W
LayerCount: 2
Fore
SplineSet
677 1404 m 1,0,1
 570 1428 570 1428 473 1484 c 0,2,3
 301 1582 301 1582 249 1646 c 1,4,-1
 413 1820 l 1,5,-1
 757 1527 l 1,6,-1
 677 1404 l 1,0,1
642 331 m 2,7,-1
 576 331 l 2,8,9
 520 331 520 331 399 354 c 1,10,-1
 323 -16 l 1,11,-1
 85 37 l 1,12,-1
 202 557 l 1,13,-1
 338 1237 l 1,14,15
 564 1277 564 1277 815 1298 c 1,16,-1
 973 612 l 1,17,-1
 1095 10 l 1,18,-1
 852 -29 l 1,19,-1
 745 561 l 1,20,-1
 641 1059 l 1,21,22
 584 1059 584 1059 522 1040 c 1,23,-1
 436 547 l 1,24,-1
 694 541 l 1,25,-1
 663 332 l 1,26,27
 652 331 652 331 642 331 c 2,7,-1
EndSplineSet
EndChar

StartChar: Aacute
Encoding: 193 193 150
Width: 1151
GlyphClass: 2
Flags: W
LayerCount: 2
Fore
SplineSet
366 1519 m 1,0,-1
 719 1820 l 1,1,-1
 868 1634 l 1,2,3
 815 1569 815 1569 720 1515 c 0,4,5
 553 1420 553 1420 446 1396 c 1,6,-1
 366 1519 l 1,0,-1
642 331 m 2,7,-1
 576 331 l 2,8,9
 520 331 520 331 399 354 c 1,10,-1
 323 -16 l 1,11,-1
 85 37 l 1,12,-1
 202 557 l 1,13,-1
 338 1237 l 1,14,15
 564 1277 564 1277 815 1298 c 1,16,-1
 973 612 l 1,17,-1
 1095 10 l 1,18,-1
 852 -29 l 1,19,-1
 745 561 l 1,20,-1
 641 1059 l 1,21,22
 584 1059 584 1059 522 1040 c 1,23,-1
 436 547 l 1,24,-1
 694 541 l 1,25,-1
 663 332 l 1,26,27
 652 331 652 331 642 331 c 2,7,-1
EndSplineSet
EndChar

StartChar: Acircumflex
Encoding: 194 194 151
Width: 1151
GlyphClass: 2
Flags: W
LayerCount: 2
Fore
SplineSet
539 1580 m 1,0,1
 439 1472 439 1472 336 1398 c 1,2,-1
 227 1496 l 1,3,-1
 451 1793 l 1,4,-1
 641 1799 l 1,5,-1
 872 1494 l 1,6,-1
 748 1398 l 1,7,8
 630 1496 630 1496 600 1523 c 2,9,-1
 539 1580 l 1,0,1
642 331 m 2,10,-1
 576 331 l 2,11,12
 520 331 520 331 399 354 c 1,13,-1
 323 -16 l 1,14,-1
 85 37 l 1,15,-1
 202 557 l 1,16,-1
 338 1237 l 1,17,18
 564 1277 564 1277 815 1298 c 1,19,-1
 973 612 l 1,20,-1
 1095 10 l 1,21,-1
 852 -29 l 1,22,23
 852 -29 852 -29 745 561 c 1,24,-1
 641 1059 l 1,25,26
 584 1059 584 1059 522 1040 c 1,27,-1
 436 547 l 1,28,-1
 694 541 l 1,29,-1
 663 332 l 1,30,31
 652 331 652 331 642 331 c 2,10,-1
EndSplineSet
EndChar

StartChar: Atilde
Encoding: 195 195 152
Width: 1151
GlyphClass: 2
Flags: W
LayerCount: 2
Fore
SplineSet
196 1535 m 1,0,1
 236 1595 236 1595 288 1643 c 0,2,3
 384 1732 384 1732 417.5 1732 c 128,-1,4
 451 1732 451 1732 485.5 1718 c 128,-1,5
 520 1704 520 1704 552 1687 c 2,6,-1
 612 1656 l 2,7,8
 639 1642 639 1642 646 1642 c 128,-1,9
 653 1642 653 1642 657.5 1644 c 128,-1,10
 662 1646 662 1646 677 1655.5 c 128,-1,11
 692 1665 692 1665 722 1686 c 2,12,-1
 804 1744 l 1,13,-1
 880 1650 l 1,14,-1
 836 1586 l 1,15,16
 722 1423 722 1423 637 1423 c 0,17,18
 595 1423 595 1423 538.5 1454.5 c 128,-1,19
 482 1486 482 1486 458 1500.5 c 128,-1,20
 434 1515 434 1515 429 1515 c 128,-1,21
 424 1515 424 1515 419.5 1513.5 c 128,-1,22
 415 1512 415 1512 399 1505 c 2,23,-1
 260 1443 l 1,24,-1
 196 1535 l 1,0,1
642 331 m 2,25,-1
 576 331 l 2,26,27
 520 331 520 331 399 354 c 1,28,-1
 323 -16 l 1,29,-1
 85 37 l 1,30,-1
 202 557 l 1,31,-1
 338 1237 l 1,32,33
 564 1277 564 1277 815 1298 c 1,34,-1
 973 612 l 1,35,-1
 1095 10 l 1,36,-1
 852 -29 l 1,37,-1
 745 561 l 1,38,-1
 641 1059 l 1,39,40
 584 1059 584 1059 522 1040 c 1,41,-1
 436 547 l 1,42,-1
 694 541 l 1,43,-1
 663 332 l 1,44,45
 652 331 652 331 642 331 c 2,25,-1
EndSplineSet
EndChar

StartChar: Adieresis
Encoding: 196 196 153
Width: 1151
GlyphClass: 2
Flags: W
LayerCount: 2
Fore
SplineSet
442 1774 m 1,0,1
 477 1716 477 1716 477 1581 c 0,2,3
 477 1510 477 1510 465 1488 c 1,4,-1
 266 1477 l 1,5,6
 249 1623 249 1623 225 1719 c 1,7,-1
 442 1774 l 1,0,1
852 1764 m 1,8,9
 867 1732 867 1732 867 1688.5 c 128,-1,10
 867 1645 867 1645 862.5 1612.5 c 128,-1,11
 858 1580 858 1580 852 1551 c 0,12,13
 838 1490 838 1490 819 1463 c 1,14,-1
 617 1498 l 1,15,16
 634 1572 634 1572 634 1639 c 128,-1,17
 634 1706 634 1706 629 1748 c 1,18,-1
 852 1764 l 1,8,9
642 331 m 2,19,-1
 576 331 l 2,20,21
 520 331 520 331 399 354 c 1,22,-1
 323 -16 l 1,23,-1
 85 37 l 1,24,-1
 202 557 l 1,25,-1
 338 1237 l 1,26,27
 564 1277 564 1277 815 1298 c 1,28,-1
 973 612 l 1,29,-1
 1095 10 l 1,30,-1
 852 -29 l 1,31,-1
 745 561 l 1,32,-1
 641 1059 l 1,33,34
 584 1059 584 1059 522 1040 c 1,35,-1
 436 547 l 1,36,-1
 694 541 l 1,37,-1
 663 332 l 1,38,39
 652 331 652 331 642 331 c 2,19,-1
EndSplineSet
EndChar

StartChar: Aring
Encoding: 197 197 154
Width: 1151
GlyphClass: 2
Flags: W
LayerCount: 2
Fore
SplineSet
640.5 1386 m 128,-1,1
 598 1367 598 1367 546 1367 c 128,-1,2
 494 1367 494 1367 452 1384.5 c 128,-1,3
 410 1402 410 1402 380 1434 c 1,4,5
 315 1500 315 1500 315 1609 c 0,6,7
 315 1710 315 1710 382 1766 c 0,8,9
 444 1818 444 1818 551 1818 c 0,10,11
 706 1818 706 1818 756 1705 c 0,12,13
 774 1666 774 1666 774 1613.5 c 128,-1,14
 774 1561 774 1561 758 1516 c 128,-1,15
 742 1471 742 1471 712.5 1438 c 128,-1,0
 683 1405 683 1405 640.5 1386 c 128,-1,1
542 1527 m 0,16,17
 601 1527 601 1527 614 1595 c 1,18,19
 619 1664 619 1664 548 1664 c 0,20,21
 496 1664 496 1664 482 1628 c 0,22,23
 477 1615 477 1615 480 1592 c 128,-1,24
 483 1569 483 1569 495 1548 c 128,-1,25
 507 1527 507 1527 542 1527 c 0,16,17
642 331 m 2,26,-1
 576 331 l 2,27,28
 520 331 520 331 399 354 c 1,29,-1
 323 -16 l 1,30,-1
 85 37 l 1,31,-1
 202 557 l 1,32,-1
 338 1237 l 1,33,34
 564 1277 564 1277 815 1298 c 1,35,-1
 973 612 l 1,36,-1
 1095 10 l 1,37,-1
 852 -29 l 1,38,-1
 745 561 l 1,39,-1
 641 1059 l 1,40,41
 584 1059 584 1059 522 1040 c 1,42,-1
 436 547 l 1,43,-1
 694 541 l 1,44,-1
 663 332 l 1,45,46
 652 331 652 331 642 331 c 2,26,-1
EndSplineSet
EndChar

StartChar: AE
Encoding: 198 198 155
Width: 1591
GlyphClass: 2
Flags: W
LayerCount: 2
Fore
SplineSet
1008 225 m 1,0,-1
 1493 152 l 1,1,-1
 1440 -68 l 1,2,-1
 1288 -48 l 1,3,4
 956 -2 956 -2 789 43 c 1,5,-1
 776 1075 l 1,6,-1
 536 1051 l 1,7,-1
 461 547 l 1,8,-1
 699 541 l 1,9,-1
 670 332 l 1,10,11
 659 331 659 331 649 331 c 128,-1,12
 639 331 639 331 620 331 c 128,-1,13
 601 331 601 331 576.5 332.5 c 128,-1,14
 552 334 552 334 527.5 337 c 128,-1,15
 503 340 503 340 478 344 c 2,16,-1
 424 354 l 1,17,-1
 325 -16 l 1,18,-1
 84 49 l 1,19,-1
 231 594 l 1,20,-1
 344 1227 l 1,21,22
 570 1278 570 1278 902 1308 c 1,23,-1
 1444 1354 l 1,24,-1
 1477 1124 l 1,25,26
 1470 1127 1470 1127 1284 1113 c 2,27,-1
 1004 1092 l 1,28,-1
 1014 725 l 1,29,-1
 1444 743 l 1,30,-1
 1428 508 l 1,31,-1
 1016 522 l 1,32,-1
 1008 225 l 1,0,-1
EndSplineSet
EndChar

StartChar: Ccedilla
Encoding: 199 199 156
Width: 884
GlyphClass: 2
Flags: W
LayerCount: 2
Fore
SplineSet
763 -51 m 1,0,1
 652 -30 652 -30 557 -7 c 1,2,-1
 539 -109 l 1,3,4
 563 -115 563 -115 588 -122 c 2,5,-1
 634 -136 l 2,6,7
 701 -157 701 -157 708 -167.5 c 128,-1,8
 715 -178 715 -178 718 -188 c 0,9,10
 722 -201 722 -201 722 -224 c 128,-1,11
 722 -247 722 -247 717.5 -278.5 c 128,-1,12
 713 -310 713 -310 706 -342 c 0,13,14
 688 -415 688 -415 676.5 -432 c 128,-1,15
 665 -449 665 -449 645 -460.5 c 128,-1,16
 625 -472 625 -472 597.5 -483 c 128,-1,17
 570 -494 570 -494 539 -504.5 c 128,-1,18
 508 -515 508 -515 478 -524 c 2,19,-1
 424 -540 l 2,20,21
 400 -547 400 -547 387 -550 c 1,22,-1
 341 -389 l 1,23,24
 398 -373 398 -373 440 -360 c 2,25,-1
 522 -335 l 1,26,-1
 528 -275 l 1,27,28
 463 -255 463 -255 417 -247 c 2,29,-1
 343 -233 l 1,30,-1
 420 26 l 1,31,32
 253 66 253 66 234 80 c 128,-1,33
 215 94 215 94 207 106 c 0,34,35
 162 174 162 174 142 510 c 0,36,37
 137 585 137 585 137 657 c 128,-1,38
 137 729 137 729 140 790.5 c 128,-1,39
 143 852 143 852 148 907 c 0,40,41
 159 1031 159 1031 168 1056 c 1,42,-1
 180 1094 l 2,43,44
 196 1142 196 1142 253 1165 c 0,45,46
 278 1175 278 1175 318 1188 c 2,47,-1
 406 1218 l 1,48,49
 455 1233 455 1233 508 1248 c 2,50,-1
 610 1278 l 1,51,52
 713 1307 713 1307 784 1322 c 1,53,-1
 838 1079 l 1,54,55
 813 1073 813 1073 777 1066 c 2,56,-1
 533 1020 l 1,57,-1
 464 1006 l 2,58,59
 434 999 434 999 419 995 c 1,60,61
 391 883 391 883 391 670 c 0,62,63
 391 392 391 392 425 260 c 1,64,65
 467 250 467 250 516 240 c 2,66,-1
 722 198 l 1,67,-1
 819 180 l 1,68,-1
 763 -51 l 1,0,1
EndSplineSet
EndChar

StartChar: Egrave
Encoding: 200 200 157
Width: 979
GlyphClass: 2
Flags: W
LayerCount: 2
Fore
SplineSet
643 1404 m 1,0,1
 536 1428 536 1428 439 1484 c 0,2,3
 267 1582 267 1582 215 1646 c 1,4,-1
 379 1820 l 1,5,-1
 723 1527 l 1,6,-1
 643 1404 l 1,0,1
397 223 m 1,7,-1
 882 150 l 1,8,-1
 829 -68 l 1,9,-1
 678 -48 l 1,10,11
 345 -2 345 -2 178 43 c 1,12,-1
 165 1196 l 1,13,14
 518 1286 518 1286 837 1317 c 1,15,-1
 872 1079 l 1,16,-1
 393 1024 l 1,17,-1
 403 725 l 1,18,-1
 833 743 l 1,19,-1
 817 508 l 1,20,-1
 405 522 l 1,21,-1
 397 223 l 1,7,-1
EndSplineSet
EndChar

StartChar: Eacute
Encoding: 201 201 158
Width: 979
GlyphClass: 2
Flags: W
LayerCount: 2
Fore
SplineSet
315 1519 m 1,0,-1
 668 1820 l 1,1,-1
 817 1634 l 1,2,3
 764 1569 764 1569 669 1515 c 0,4,5
 502 1420 502 1420 395 1396 c 1,6,-1
 315 1519 l 1,0,-1
397 223 m 1,7,-1
 882 150 l 1,8,-1
 829 -68 l 1,9,-1
 678 -48 l 1,10,11
 345 -2 345 -2 178 43 c 1,12,-1
 165 1196 l 1,13,14
 518 1286 518 1286 837 1317 c 1,15,-1
 872 1079 l 1,16,-1
 393 1024 l 1,17,-1
 403 725 l 1,18,-1
 833 743 l 1,19,-1
 817 508 l 1,20,-1
 405 522 l 1,21,-1
 397 223 l 1,7,-1
EndSplineSet
EndChar

StartChar: Ecircumflex
Encoding: 202 202 159
Width: 979
GlyphClass: 2
Flags: W
LayerCount: 2
Fore
SplineSet
504 1582 m 1,0,1
 404 1474 404 1474 301 1400 c 1,2,-1
 192 1498 l 1,3,-1
 416 1795 l 1,4,-1
 606 1801 l 1,5,-1
 837 1496 l 1,6,-1
 713 1400 l 1,7,8
 595 1498 595 1498 565 1525 c 2,9,-1
 504 1582 l 1,0,1
397 223 m 1,10,-1
 882 150 l 1,11,-1
 829 -68 l 1,12,-1
 678 -48 l 1,13,14
 345 -2 345 -2 178 43 c 1,15,-1
 165 1196 l 1,16,17
 518 1286 518 1286 837 1317 c 1,18,-1
 872 1079 l 1,19,-1
 393 1024 l 1,20,-1
 403 725 l 1,21,-1
 833 743 l 1,22,-1
 817 508 l 1,23,-1
 405 522 l 1,24,-1
 397 223 l 1,10,-1
EndSplineSet
EndChar

StartChar: Edieresis
Encoding: 203 203 160
Width: 979
GlyphClass: 2
Flags: W
LayerCount: 2
Fore
SplineSet
411 1776 m 1,0,1
 446 1718 446 1718 446 1583 c 0,2,3
 446 1512 446 1512 434 1490 c 1,4,-1
 235 1479 l 1,5,6
 218 1625 218 1625 194 1721 c 1,7,-1
 411 1776 l 1,0,1
821 1766 m 1,8,9
 836 1734 836 1734 836 1690.5 c 128,-1,10
 836 1647 836 1647 831.5 1614.5 c 128,-1,11
 827 1582 827 1582 820 1553 c 0,12,13
 807 1492 807 1492 788 1465 c 1,14,-1
 586 1500 l 1,15,16
 603 1574 603 1574 603 1641 c 128,-1,17
 603 1708 603 1708 598 1750 c 1,18,-1
 821 1766 l 1,8,9
397 223 m 1,19,-1
 882 150 l 1,20,-1
 829 -68 l 1,21,-1
 678 -48 l 1,22,23
 345 -2 345 -2 178 43 c 1,24,-1
 165 1196 l 1,25,26
 518 1286 518 1286 837 1317 c 1,27,-1
 872 1079 l 1,28,-1
 393 1024 l 1,29,-1
 403 725 l 1,30,-1
 833 743 l 1,31,-1
 817 508 l 1,32,-1
 405 522 l 1,33,-1
 397 223 l 1,19,-1
EndSplineSet
EndChar

StartChar: Igrave
Encoding: 204 204 161
Width: 784
GlyphClass: 2
Flags: W
LayerCount: 2
Fore
SplineSet
514 1404 m 1,0,1
 407 1428 407 1428 310 1484 c 0,2,3
 138 1582 138 1582 86 1646 c 1,4,-1
 250 1820 l 1,5,-1
 594 1527 l 1,6,-1
 514 1404 l 1,0,1
696 1096 m 1,7,-1
 524 1077 l 1,8,-1
 526 653 l 1,9,-1
 497 189 l 1,10,-1
 680 182 l 1,11,-1
 663 -25 l 1,12,13
 308 -20 308 -20 92 18 c 1,14,-1
 112 205 l 1,15,-1
 285 198 l 1,16,-1
 270 1061 l 1,17,18
 178 1057 178 1057 86 1051 c 1,19,-1
 67 1243 l 1,20,21
 236 1270 236 1270 415 1281 c 2,22,-1
 669 1298 l 1,23,-1
 696 1096 l 1,7,-1
EndSplineSet
EndChar

StartChar: Iacute
Encoding: 205 205 162
Width: 784
GlyphClass: 2
Flags: W
LayerCount: 2
Fore
SplineSet
216 1519 m 1,0,-1
 569 1820 l 1,1,-1
 718 1634 l 1,2,3
 665 1569 665 1569 570 1515 c 0,4,5
 403 1420 403 1420 296 1396 c 1,6,-1
 216 1519 l 1,0,-1
696 1096 m 1,7,-1
 524 1077 l 1,8,-1
 526 653 l 1,9,-1
 497 189 l 1,10,-1
 680 182 l 1,11,-1
 663 -25 l 1,12,13
 308 -20 308 -20 92 18 c 1,14,-1
 112 205 l 1,15,-1
 285 198 l 1,16,-1
 270 1061 l 1,17,18
 178 1057 178 1057 86 1051 c 1,19,-1
 67 1243 l 1,20,21
 236 1270 236 1270 415 1281 c 2,22,-1
 669 1298 l 1,23,-1
 696 1096 l 1,7,-1
EndSplineSet
EndChar

StartChar: Icircumflex
Encoding: 206 206 163
Width: 784
GlyphClass: 2
Flags: W
LayerCount: 2
Fore
SplineSet
385 1580 m 1,0,1
 285 1472 285 1472 182 1398 c 1,2,-1
 73 1496 l 1,3,-1
 297 1793 l 1,4,-1
 487 1799 l 1,5,-1
 718 1494 l 1,6,-1
 594 1398 l 1,7,8
 476 1496 476 1496 446 1523 c 2,9,-1
 385 1580 l 1,0,1
696 1096 m 1,10,-1
 524 1077 l 1,11,-1
 526 653 l 1,12,-1
 497 189 l 1,13,-1
 680 182 l 1,14,-1
 663 -25 l 1,15,16
 308 -20 308 -20 92 18 c 1,17,-1
 112 205 l 1,18,-1
 285 198 l 1,19,-1
 270 1061 l 1,20,21
 178 1057 178 1057 86 1051 c 1,22,-1
 67 1243 l 1,23,24
 236 1270 236 1270 415 1281 c 2,25,-1
 669 1298 l 1,26,-1
 696 1096 l 1,10,-1
EndSplineSet
EndChar

StartChar: Idieresis
Encoding: 207 207 164
Width: 784
GlyphClass: 2
Flags: W
LayerCount: 2
Fore
SplineSet
292 1774 m 1,0,1
 327 1716 327 1716 327 1581 c 0,2,3
 327 1510 327 1510 315 1488 c 1,4,-1
 116 1477 l 1,5,6
 99 1623 99 1623 75 1719 c 1,7,-1
 292 1774 l 1,0,1
702 1764 m 1,8,9
 717 1732 717 1732 717 1688.5 c 128,-1,10
 717 1645 717 1645 712.5 1612.5 c 128,-1,11
 708 1580 708 1580 702 1551 c 0,12,13
 688 1490 688 1490 669 1463 c 1,14,-1
 467 1498 l 1,15,16
 484 1572 484 1572 484 1639 c 128,-1,17
 484 1706 484 1706 479 1748 c 1,18,-1
 702 1764 l 1,8,9
696 1096 m 1,19,-1
 524 1077 l 1,20,-1
 526 653 l 1,21,-1
 497 189 l 1,22,-1
 680 182 l 1,23,-1
 663 -25 l 1,24,25
 308 -20 308 -20 92 18 c 1,26,-1
 112 205 l 1,27,-1
 285 198 l 1,28,-1
 270 1061 l 1,29,30
 178 1057 178 1057 86 1051 c 1,31,-1
 67 1243 l 1,32,33
 236 1270 236 1270 415 1281 c 2,34,-1
 669 1298 l 1,35,-1
 696 1096 l 1,19,-1
EndSplineSet
EndChar

StartChar: Eth
Encoding: 208 208 165
Width: 1210
GlyphClass: 2
Flags: W
LayerCount: 2
Fore
SplineSet
431 209 m 1,0,-1
 452 211 l 1,1,2
 485 216 485 216 519.5 220.5 c 128,-1,3
 554 225 554 225 591 232 c 0,4,5
 680 247 680 247 732 264 c 1,6,7
 798 537 798 537 798 836 c 0,8,9
 798 948 798 948 787 1030 c 1,10,11
 515 1081 515 1081 97 1081 c 2,12,-1
 70 1081 l 1,13,-1
 115 1323 l 1,14,-1
 136 1323 l 2,15,16
 516 1323 516 1323 798 1262 c 0,17,18
 851 1251 851 1251 877.5 1241 c 128,-1,19
 904 1231 904 1231 930 1207 c 128,-1,20
 956 1183 956 1183 980 1154 c 0,21,22
 1039 1083 1039 1083 1043 1046 c 0,23,24
 1051 972 1051 972 1051 880 c 128,-1,25
 1051 788 1051 788 1043 686 c 128,-1,26
 1035 584 1035 584 1020 485 c 0,27,28
 986 270 986 270 930 133 c 0,29,30
 918 102 918 102 903.5 88.5 c 128,-1,31
 889 75 889 75 845 60.5 c 128,-1,32
 801 46 801 46 736.5 33 c 128,-1,33
 672 20 672 20 593 11 c 0,34,35
 446 -6 446 -6 201 -18 c 1,36,-1
 201 523 l 1,37,38
 137 527 137 527 80 532 c 1,39,-1
 98 700 l 1,40,-1
 201 706 l 1,41,-1
 201 940 l 1,42,-1
 447 993 l 1,43,-1
 451 778 l 1,44,-1
 449 721 l 1,45,-1
 651 733 l 1,46,-1
 637 545 l 1,47,48
 535 534 535 534 442 530 c 1,49,-1
 431 209 l 1,0,-1
EndSplineSet
EndChar

StartChar: Ntilde
Encoding: 209 209 166
Width: 1345
GlyphClass: 2
Flags: W
LayerCount: 2
Fore
SplineSet
168 110 m 2,0,1
 168 416 168 416 177 780 c 1,2,-1
 158 1227 l 1,3,4
 177 1231 177 1231 208 1237 c 2,5,6
 208 1237 208 1237 278 1250 c 0,7,8
 316 1257 316 1257 358 1264 c 2,9,-1
 442 1278 l 1,10,11
 515 1289 515 1289 592 1294 c 1,12,-1
 856 459 l 1,13,-1
 917 172 l 1,14,-1
 975 178 l 1,15,-1
 962 500 l 1,16,-1
 971 1278 l 1,17,-1
 1227 1300 l 1,18,19
 1219 999 1219 999 1177 518 c 1,20,-1
 1162 27 l 1,21,22
 983 -6 983 -6 753 -18 c 1,23,-1
 489 827 l 1,24,-1
 430 1091 l 1,25,-1
 377 1083 l 1,26,-1
 387 782 l 1,27,-1
 397 2 l 1,28,-1
 168 -18 l 1,29,-1
 168 110 l 2,0,1
380 1512 m 1,30,31
 420 1572 420 1572 472 1620 c 0,32,33
 568 1709 568 1709 601.5 1709 c 128,-1,34
 635 1709 635 1709 669.5 1695 c 128,-1,35
 704 1681 704 1681 736 1664 c 2,36,-1
 796 1633 l 2,37,38
 823 1619 823 1619 830 1619 c 128,-1,39
 837 1619 837 1619 841.5 1621 c 128,-1,40
 846 1623 846 1623 861 1632.5 c 128,-1,41
 876 1642 876 1642 906 1662 c 1,42,-1
 988 1721 l 1,43,-1
 1064 1627 l 1,44,-1
 1020 1562 l 1,45,46
 906 1400 906 1400 821 1400 c 0,47,48
 779 1400 779 1400 722.5 1431.5 c 128,-1,49
 666 1463 666 1463 642 1477.5 c 128,-1,50
 618 1492 618 1492 613 1492 c 128,-1,51
 608 1492 608 1492 603.5 1490.5 c 128,-1,52
 599 1489 599 1489 583 1482 c 2,53,-1
 444 1420 l 1,54,-1
 380 1512 l 1,30,31
EndSplineSet
EndChar

StartChar: Ograve
Encoding: 210 210 167
Width: 1169
GlyphClass: 2
Flags: W
LayerCount: 2
Fore
SplineSet
712 1404 m 1,0,1
 605 1428 605 1428 508 1484 c 0,2,3
 336 1582 336 1582 284 1646 c 1,4,-1
 448 1820 l 1,5,-1
 792 1527 l 1,6,-1
 712 1404 l 1,0,1
270.5 21 m 128,-1,8
 246 38 246 38 226.5 89.5 c 128,-1,9
 207 141 207 141 189.5 226.5 c 128,-1,10
 172 312 172 312 160 407 c 0,11,12
 137 589 137 589 137 720 c 0,13,14
 137 947 137 947 149 1006.5 c 128,-1,15
 161 1066 161 1066 174 1098 c 128,-1,16
 187 1130 187 1130 208 1155 c 0,17,18
 247 1203 247 1203 316 1228 c 128,-1,19
 385 1253 385 1253 464 1269.5 c 128,-1,20
 543 1286 543 1286 632 1297 c 0,21,22
 809 1319 809 1319 1013 1323 c 1,23,-1
 1050 1081 l 1,24,25
 693 1067 693 1067 478 1022 c 0,26,27
 434 1012 434 1012 405 1001 c 1,28,29
 393 933 393 933 393 808 c 128,-1,30
 393 683 393 683 396 614 c 128,-1,31
 399 545 399 545 405 476 c 0,32,33
 418 320 418 320 446 210 c 1,34,35
 460 208 460 208 475 208 c 128,-1,36
 490 208 490 208 530 208 c 0,37,38
 624 208 624 208 722 231 c 1,39,40
 772 556 772 556 772 950 c 1,41,-1
 1021 934 l 1,42,43
 1026 864 1026 864 1026 811.5 c 128,-1,44
 1026 759 1026 759 1022.5 699.5 c 128,-1,45
 1019 640 1019 640 1013 578.5 c 128,-1,46
 1007 517 1007 517 999 455.5 c 128,-1,47
 991 394 991 394 983 338.5 c 128,-1,48
 975 283 975 283 967 236 c 2,49,-1
 953 158 l 1,50,51
 936 76 936 76 914.5 54 c 128,-1,52
 893 32 893 32 873.5 23.5 c 128,-1,53
 854 15 854 15 824 9 c 128,-1,54
 794 3 794 3 758.5 -1.5 c 128,-1,55
 723 -6 723 -6 684 -9 c 128,-1,56
 645 -12 645 -12 609 -14 c 0,57,58
 549 -16 549 -16 498 -16 c 0,59,60
 379 -16 379 -16 337 -6 c 128,-1,7
 295 4 295 4 270.5 21 c 128,-1,8
EndSplineSet
EndChar

StartChar: Oacute
Encoding: 211 211 168
Width: 1169
GlyphClass: 2
Flags: W
LayerCount: 2
Fore
SplineSet
415 1519 m 1,0,-1
 768 1820 l 1,1,-1
 917 1634 l 1,2,3
 864 1569 864 1569 769 1515 c 0,4,5
 602 1420 602 1420 495 1396 c 1,6,-1
 415 1519 l 1,0,-1
270.5 21 m 128,-1,8
 246 38 246 38 226.5 89.5 c 128,-1,9
 207 141 207 141 189.5 226.5 c 128,-1,10
 172 312 172 312 160 407 c 0,11,12
 137 589 137 589 137 720 c 0,13,14
 137 947 137 947 149 1006.5 c 128,-1,15
 161 1066 161 1066 174 1098 c 128,-1,16
 187 1130 187 1130 208 1155 c 0,17,18
 247 1203 247 1203 316 1228 c 128,-1,19
 385 1253 385 1253 464 1269.5 c 128,-1,20
 543 1286 543 1286 632 1297 c 0,21,22
 809 1319 809 1319 1013 1323 c 1,23,-1
 1050 1081 l 1,24,25
 693 1067 693 1067 478 1022 c 0,26,27
 434 1012 434 1012 405 1001 c 1,28,29
 393 933 393 933 393 808 c 128,-1,30
 393 683 393 683 396 614 c 128,-1,31
 399 545 399 545 405 476 c 0,32,33
 418 320 418 320 446 210 c 1,34,35
 460 208 460 208 475 208 c 128,-1,36
 490 208 490 208 530 208 c 0,37,38
 624 208 624 208 722 231 c 1,39,40
 772 556 772 556 772 950 c 1,41,-1
 1021 934 l 1,42,43
 1026 864 1026 864 1026 811.5 c 128,-1,44
 1026 759 1026 759 1022.5 699.5 c 128,-1,45
 1019 640 1019 640 1013 578.5 c 128,-1,46
 1007 517 1007 517 999 455.5 c 128,-1,47
 991 394 991 394 983 338.5 c 128,-1,48
 975 283 975 283 967 236 c 2,49,-1
 953 158 l 1,50,51
 936 76 936 76 914.5 54 c 128,-1,52
 893 32 893 32 873.5 23.5 c 128,-1,53
 854 15 854 15 824 9 c 128,-1,54
 794 3 794 3 758.5 -1.5 c 128,-1,55
 723 -6 723 -6 684 -9 c 128,-1,56
 645 -12 645 -12 609 -14 c 0,57,58
 549 -16 549 -16 498 -16 c 0,59,60
 379 -16 379 -16 337 -6 c 128,-1,7
 295 4 295 4 270.5 21 c 128,-1,8
EndSplineSet
EndChar

StartChar: Ocircumflex
Encoding: 212 212 169
Width: 1169
GlyphClass: 2
Flags: W
LayerCount: 2
Fore
SplineSet
590 1580 m 1,0,1
 490 1472 490 1472 387 1398 c 1,2,-1
 278 1496 l 1,3,-1
 502 1793 l 1,4,-1
 692 1799 l 1,5,-1
 923 1494 l 1,6,-1
 799 1398 l 1,7,8
 681 1496 681 1496 651 1523 c 2,9,-1
 590 1580 l 1,0,1
270.5 21 m 128,-1,11
 246 38 246 38 226.5 89.5 c 128,-1,12
 207 141 207 141 189.5 226.5 c 128,-1,13
 172 312 172 312 160 407 c 0,14,15
 137 589 137 589 137 720 c 0,16,17
 137 947 137 947 149 1006.5 c 128,-1,18
 161 1066 161 1066 174 1098 c 128,-1,19
 187 1130 187 1130 208 1155 c 0,20,21
 247 1203 247 1203 316 1228 c 128,-1,22
 385 1253 385 1253 464 1269.5 c 128,-1,23
 543 1286 543 1286 632 1297 c 0,24,25
 809 1319 809 1319 1013 1323 c 1,26,-1
 1050 1081 l 1,27,28
 693 1067 693 1067 478 1022 c 0,29,30
 434 1012 434 1012 405 1001 c 1,31,32
 393 933 393 933 393 808 c 128,-1,33
 393 683 393 683 396 614 c 128,-1,34
 399 545 399 545 405 476 c 0,35,36
 418 320 418 320 446 210 c 1,37,38
 460 208 460 208 475 208 c 128,-1,39
 490 208 490 208 530 208 c 0,40,41
 624 208 624 208 722 231 c 1,42,43
 772 556 772 556 772 950 c 1,44,-1
 1021 934 l 1,45,46
 1026 864 1026 864 1026 811.5 c 128,-1,47
 1026 759 1026 759 1022.5 699.5 c 128,-1,48
 1019 640 1019 640 1013 578.5 c 128,-1,49
 1007 517 1007 517 999 455.5 c 128,-1,50
 991 394 991 394 983 338.5 c 128,-1,51
 975 283 975 283 967 236 c 2,52,-1
 953 158 l 1,53,54
 936 76 936 76 914.5 54 c 128,-1,55
 893 32 893 32 873.5 23.5 c 128,-1,56
 854 15 854 15 824 9 c 128,-1,57
 794 3 794 3 758.5 -1.5 c 128,-1,58
 723 -6 723 -6 684 -9 c 128,-1,59
 645 -12 645 -12 609 -14 c 0,60,61
 549 -16 549 -16 498 -16 c 0,62,63
 379 -16 379 -16 337 -6 c 128,-1,10
 295 4 295 4 270.5 21 c 128,-1,11
EndSplineSet
EndChar

StartChar: Otilde
Encoding: 213 213 170
Width: 1169
GlyphClass: 2
Flags: W
LayerCount: 2
Fore
SplineSet
245 1535 m 1,0,1
 285 1595 285 1595 337 1643 c 0,2,3
 433 1732 433 1732 466.5 1732 c 128,-1,4
 500 1732 500 1732 534.5 1718 c 128,-1,5
 569 1704 569 1704 602 1687 c 2,6,-1
 661 1656 l 2,7,8
 688 1642 688 1642 695 1642 c 128,-1,9
 702 1642 702 1642 706.5 1644 c 128,-1,10
 711 1646 711 1646 726 1655.5 c 128,-1,11
 741 1665 741 1665 770 1686 c 2,12,-1
 853 1744 l 1,13,-1
 929 1650 l 1,14,-1
 885 1586 l 1,15,16
 771 1423 771 1423 686 1423 c 0,17,18
 644 1423 644 1423 587.5 1454.5 c 128,-1,19
 531 1486 531 1486 507 1500.5 c 128,-1,20
 483 1515 483 1515 478 1515 c 128,-1,21
 473 1515 473 1515 468.5 1513.5 c 128,-1,22
 464 1512 464 1512 448 1505 c 2,23,-1
 309 1443 l 1,24,-1
 245 1535 l 1,0,1
270.5 21 m 128,-1,26
 246 38 246 38 226.5 89.5 c 128,-1,27
 207 141 207 141 189.5 226.5 c 128,-1,28
 172 312 172 312 160 407 c 0,29,30
 137 589 137 589 137 720 c 0,31,32
 137 947 137 947 149 1006.5 c 128,-1,33
 161 1066 161 1066 174 1098 c 128,-1,34
 187 1130 187 1130 208 1155 c 0,35,36
 247 1203 247 1203 316 1228 c 128,-1,37
 385 1253 385 1253 464 1269.5 c 128,-1,38
 543 1286 543 1286 632 1297 c 0,39,40
 809 1319 809 1319 1013 1323 c 1,41,-1
 1050 1081 l 1,42,43
 693 1067 693 1067 478 1022 c 0,44,45
 434 1012 434 1012 405 1001 c 1,46,47
 393 933 393 933 393 808 c 128,-1,48
 393 683 393 683 396 614 c 128,-1,49
 399 545 399 545 405 476 c 0,50,51
 418 320 418 320 446 210 c 1,52,53
 460 208 460 208 475 208 c 128,-1,54
 490 208 490 208 530 208 c 0,55,56
 624 208 624 208 722 231 c 1,57,58
 772 556 772 556 772 950 c 1,59,-1
 1021 934 l 1,60,61
 1026 864 1026 864 1026 811.5 c 128,-1,62
 1026 759 1026 759 1022.5 699.5 c 128,-1,63
 1019 640 1019 640 1013 578.5 c 128,-1,64
 1007 517 1007 517 999 455.5 c 128,-1,65
 991 394 991 394 983 338.5 c 128,-1,66
 975 283 975 283 967 236 c 2,67,-1
 953 158 l 1,68,69
 936 76 936 76 914.5 54 c 128,-1,70
 893 32 893 32 873.5 23.5 c 128,-1,71
 854 15 854 15 824 9 c 128,-1,72
 794 3 794 3 758.5 -1.5 c 128,-1,73
 723 -6 723 -6 684 -9 c 128,-1,74
 645 -12 645 -12 609 -14 c 0,75,76
 549 -16 549 -16 498 -16 c 0,77,78
 379 -16 379 -16 337 -6 c 128,-1,25
 295 4 295 4 270.5 21 c 128,-1,26
EndSplineSet
EndChar

StartChar: Odieresis
Encoding: 214 214 171
Width: 1169
GlyphClass: 2
Flags: W
LayerCount: 2
Fore
SplineSet
491 1774 m 1,0,1
 526 1716 526 1716 526 1581 c 0,2,3
 526 1510 526 1510 514 1488 c 1,4,-1
 315 1477 l 1,5,6
 298 1623 298 1623 274 1719 c 1,7,-1
 491 1774 l 1,0,1
901 1764 m 1,8,9
 916 1732 916 1732 916 1688.5 c 128,-1,10
 916 1645 916 1645 911.5 1612.5 c 128,-1,11
 907 1580 907 1580 900 1551 c 0,12,13
 887 1490 887 1490 868 1463 c 1,14,-1
 666 1498 l 1,15,16
 683 1572 683 1572 683 1639 c 128,-1,17
 683 1706 683 1706 678 1748 c 1,18,-1
 901 1764 l 1,8,9
270.5 21 m 128,-1,20
 246 38 246 38 226.5 89.5 c 128,-1,21
 207 141 207 141 189.5 226.5 c 128,-1,22
 172 312 172 312 160 407 c 0,23,24
 137 589 137 589 137 720 c 0,25,26
 137 947 137 947 149 1006.5 c 128,-1,27
 161 1066 161 1066 174 1098 c 128,-1,28
 187 1130 187 1130 208 1155 c 0,29,30
 247 1203 247 1203 316 1228 c 128,-1,31
 385 1253 385 1253 464 1269.5 c 128,-1,32
 543 1286 543 1286 632 1297 c 0,33,34
 809 1319 809 1319 1013 1323 c 1,35,-1
 1050 1081 l 1,36,37
 693 1067 693 1067 478 1022 c 0,38,39
 434 1012 434 1012 405 1001 c 1,40,41
 393 933 393 933 393 808 c 128,-1,42
 393 683 393 683 396 614 c 128,-1,43
 399 545 399 545 405 476 c 0,44,45
 418 320 418 320 446 210 c 1,46,47
 460 208 460 208 475 208 c 128,-1,48
 490 208 490 208 530 208 c 0,49,50
 624 208 624 208 722 231 c 1,51,52
 772 556 772 556 772 950 c 1,53,-1
 1021 934 l 1,54,55
 1026 864 1026 864 1026 811.5 c 128,-1,56
 1026 759 1026 759 1022.5 699.5 c 128,-1,57
 1019 640 1019 640 1013 578.5 c 128,-1,58
 1007 517 1007 517 999 455.5 c 128,-1,59
 991 394 991 394 983 338.5 c 128,-1,60
 975 283 975 283 967 236 c 2,61,-1
 953 158 l 1,62,63
 936 76 936 76 914.5 54 c 128,-1,64
 893 32 893 32 873.5 23.5 c 128,-1,65
 854 15 854 15 824 9 c 128,-1,66
 794 3 794 3 758.5 -1.5 c 128,-1,67
 723 -6 723 -6 684 -9 c 128,-1,68
 645 -12 645 -12 609 -14 c 0,69,70
 549 -16 549 -16 498 -16 c 0,71,72
 379 -16 379 -16 337 -6 c 128,-1,19
 295 4 295 4 270.5 21 c 128,-1,20
EndSplineSet
EndChar

StartChar: multiply
Encoding: 215 215 172
Width: 1104
GlyphClass: 2
Flags: W
LayerCount: 2
Fore
SplineSet
142 211 m 1,0,-1
 447 520 l 1,1,2
 417 548 417 548 373 593 c 0,3,4
 184 790 184 790 134 860 c 1,5,-1
 303 1004 l 1,6,-1
 553 660 l 1,7,8
 759 939 759 939 814 994 c 1,9,-1
 983 860 l 1,10,-1
 672 541 l 1,11,12
 915 318 915 318 975 232 c 1,13,-1
 805 85 l 1,14,-1
 565 392 l 1,15,-1
 436 216 l 1,16,-1
 370 135 l 1,17,18
 338 98 338 98 315 77 c 1,19,-1
 142 211 l 1,0,-1
EndSplineSet
EndChar

StartChar: Oslash
Encoding: 216 216 173
Width: 1218
GlyphClass: 2
Flags: W
LayerCount: 2
Fore
SplineSet
492 -16 m 0,0,1
 465 -16 465 -16 429 -14 c 1,2,-1
 350 -228 l 1,3,-1
 229 -187 l 1,4,-1
 301 7 l 1,5,6
 251 27 251 27 229.5 84 c 128,-1,7
 208 141 208 141 190 226.5 c 128,-1,8
 172 312 172 312 160 407 c 0,9,10
 137 601 137 601 137 730.5 c 128,-1,11
 137 860 137 860 141.5 929.5 c 128,-1,12
 146 999 146 999 165 1058 c 0,13,14
 207 1188 207 1188 331 1231 c 1,15,16
 482 1286 482 1286 787 1309 c 1,17,-1
 866 1521 l 1,18,-1
 986 1474 l 1,19,-1
 928 1318 l 1,20,21
 962 1320 962 1320 996 1321 c 2,22,-1
 1063 1323 l 1,23,-1
 1099 1090 l 1,24,25
 961 1085 961 1085 835 1071 c 1,26,-1
 514 211 l 1,27,-1
 516 211 l 2,28,29
 703 211 703 211 788 231 c 1,30,31
 821 446 821 446 821 950 c 1,32,-1
 1067 934 l 1,33,34
 1071 878 1071 878 1071 805.5 c 128,-1,35
 1071 733 1071 733 1067 645.5 c 128,-1,36
 1063 558 1063 558 1056 471 c 0,37,38
 1028 152 1028 152 990 75 c 0,39,40
 964 23 964 23 882 9 c 0,41,42
 740 -16 740 -16 492 -16 c 0,0,1
692 1055 m 1,43,44
 485 1030 485 1030 407 1001 c 1,45,46
 387 911 387 911 387 816.5 c 128,-1,47
 387 722 387 722 388 676 c 128,-1,48
 389 630 389 630 392 570 c 0,49,50
 397 429 397 429 412 303 c 1,51,-1
 692 1055 l 1,43,44
EndSplineSet
EndChar

StartChar: Ugrave
Encoding: 217 217 174
Width: 1126
GlyphClass: 2
Flags: W
LayerCount: 2
Fore
SplineSet
675 1404 m 1,0,1
 568 1428 568 1428 471 1484 c 0,2,3
 299 1582 299 1582 247 1646 c 1,4,-1
 411 1820 l 1,5,-1
 755 1527 l 1,6,-1
 675 1404 l 1,0,1
177 248 m 0,7,8
 116 797 116 797 109 1260 c 1,9,-1
 363 1300 l 1,10,-1
 404 270 l 1,11,12
 486 222 486 222 646 222 c 0,13,14
 672 222 672 222 715 227 c 1,15,-1
 768 1307 l 1,16,-1
 1043 1272 l 1,17,-1
 950 285 l 2,18,19
 947 248 947 248 899.5 194 c 128,-1,20
 852 140 852 140 823 110 c 0,21,22
 763 48 763 48 743.5 29.5 c 128,-1,23
 724 11 724 11 707 10 c 0,24,25
 543 2 543 2 492 -0.5 c 128,-1,26
 441 -3 441 -3 433.5 -2.5 c 128,-1,27
 426 -2 426 -2 408 8.5 c 128,-1,28
 390 19 390 19 369.5 34 c 128,-1,29
 349 49 349 49 330 66 c 2,30,-1
 254 131 l 2,31,32
 184 191 184 191 177 248 c 0,7,8
EndSplineSet
EndChar

StartChar: Uacute
Encoding: 218 218 175
Width: 1126
GlyphClass: 2
Flags: W
LayerCount: 2
Fore
SplineSet
386 1519 m 1,0,-1
 739 1820 l 1,1,-1
 888 1634 l 1,2,3
 835 1569 835 1569 740 1515 c 0,4,5
 573 1420 573 1420 466 1396 c 1,6,-1
 386 1519 l 1,0,-1
177 248 m 0,7,8
 116 797 116 797 109 1260 c 1,9,-1
 363 1300 l 1,10,-1
 404 270 l 1,11,12
 486 222 486 222 646 222 c 0,13,14
 672 222 672 222 715 227 c 1,15,-1
 768 1307 l 1,16,-1
 1043 1272 l 1,17,-1
 950 285 l 2,18,19
 947 248 947 248 899.5 194 c 128,-1,20
 852 140 852 140 823 110 c 0,21,22
 763 48 763 48 743.5 29.5 c 128,-1,23
 724 11 724 11 707 10 c 0,24,25
 543 2 543 2 492 -0.5 c 128,-1,26
 441 -3 441 -3 433.5 -2.5 c 128,-1,27
 426 -2 426 -2 408 8.5 c 128,-1,28
 390 19 390 19 369.5 34 c 128,-1,29
 349 49 349 49 330 66 c 2,30,-1
 254 131 l 2,31,32
 184 191 184 191 177 248 c 0,7,8
EndSplineSet
EndChar

StartChar: Ucircumflex
Encoding: 219 219 176
Width: 1126
GlyphClass: 2
Flags: W
LayerCount: 2
Fore
SplineSet
555 1580 m 1,0,1
 455 1472 455 1472 352 1398 c 1,2,-1
 243 1496 l 1,3,-1
 467 1793 l 1,4,-1
 657 1799 l 1,5,-1
 888 1494 l 1,6,-1
 764 1398 l 1,7,8
 646 1496 646 1496 616 1523 c 2,9,-1
 555 1580 l 1,0,1
177 248 m 0,10,11
 116 797 116 797 109 1260 c 1,12,-1
 363 1300 l 1,13,-1
 404 270 l 1,14,15
 486 222 486 222 646 222 c 0,16,17
 672 222 672 222 715 227 c 1,18,-1
 768 1307 l 1,19,-1
 1043 1272 l 1,20,-1
 950 285 l 2,21,22
 947 248 947 248 899.5 194 c 128,-1,23
 852 140 852 140 823 110 c 0,24,25
 763 48 763 48 743.5 29.5 c 128,-1,26
 724 11 724 11 707 10 c 0,27,28
 543 2 543 2 492 -0.5 c 128,-1,29
 441 -3 441 -3 433.5 -2.5 c 128,-1,30
 426 -2 426 -2 408 8.5 c 128,-1,31
 390 19 390 19 369.5 34 c 128,-1,32
 349 49 349 49 330 66 c 2,33,-1
 254 131 l 2,34,35
 184 191 184 191 177 248 c 0,10,11
EndSplineSet
EndChar

StartChar: Udieresis
Encoding: 220 220 177
Width: 1126
GlyphClass: 2
Flags: W
LayerCount: 2
Fore
SplineSet
462 1774 m 1,0,1
 497 1716 497 1716 497 1581 c 0,2,3
 497 1510 497 1510 485 1488 c 1,4,-1
 286 1477 l 1,5,6
 269 1623 269 1623 245 1719 c 1,7,-1
 462 1774 l 1,0,1
872 1764 m 1,8,9
 887 1732 887 1732 887 1688.5 c 128,-1,10
 887 1645 887 1645 882.5 1612.5 c 128,-1,11
 878 1580 878 1580 872 1551 c 0,12,13
 858 1490 858 1490 839 1463 c 1,14,-1
 637 1498 l 1,15,16
 654 1572 654 1572 654 1639 c 128,-1,17
 654 1706 654 1706 649 1748 c 1,18,-1
 872 1764 l 1,8,9
177 248 m 0,19,20
 116 797 116 797 109 1260 c 1,21,-1
 363 1300 l 1,22,-1
 404 270 l 1,23,24
 486 222 486 222 646 222 c 0,25,26
 672 222 672 222 715 227 c 1,27,-1
 768 1307 l 1,28,-1
 1043 1272 l 1,29,-1
 950 285 l 2,30,31
 947 248 947 248 899.5 194 c 128,-1,32
 852 140 852 140 823 110 c 0,33,34
 763 48 763 48 743.5 29.5 c 128,-1,35
 724 11 724 11 707 10 c 0,36,37
 543 2 543 2 492 -0.5 c 128,-1,38
 441 -3 441 -3 433.5 -2.5 c 128,-1,39
 426 -2 426 -2 408 8.5 c 128,-1,40
 390 19 390 19 369.5 34 c 128,-1,41
 349 49 349 49 330 66 c 2,42,-1
 254 131 l 2,43,44
 184 191 184 191 177 248 c 0,19,20
EndSplineSet
EndChar

StartChar: Yacute
Encoding: 221 221 178
Width: 1042
GlyphClass: 2
Flags: W
LayerCount: 2
Fore
SplineSet
343 1519 m 1,0,-1
 696 1820 l 1,1,-1
 845 1634 l 1,2,3
 792 1569 792 1569 697 1515 c 0,4,5
 530 1420 530 1420 423 1396 c 1,6,-1
 343 1519 l 1,0,-1
404 439 m 1,7,8
 354 443 354 443 303 451 c 1,9,10
 232 630 232 630 168 834 c 2,11,-1
 39 1245 l 1,12,-1
 299 1311 l 1,13,-1
 347 1149 l 1,14,-1
 465 614 l 1,15,16
 476 613 476 613 487 613 c 128,-1,17
 498 613 498 613 515 613 c 0,18,19
 562 613 562 613 600 621 c 1,20,-1
 737 1298 l 1,21,-1
 1007 1270 l 1,22,-1
 967 1114 l 2,23,24
 948 1041 948 1041 929 976 c 1,25,-1
 890 850 l 2,26,27
 871 788 871 788 849 726 c 1,28,-1
 746 451 l 1,29,30
 711 445 711 445 652 440 c 1,31,-1
 622 0 l 1,32,-1
 407 -16 l 1,33,-1
 404 439 l 1,7,8
EndSplineSet
EndChar

StartChar: Thorn
Encoding: 222 222 179
Width: 1104
GlyphClass: 2
Flags: W
LayerCount: 2
Fore
SplineSet
198 1292 m 1,0,-1
 454 1333 l 1,1,-1
 454 772 l 1,2,-1
 446 428 l 1,3,4
 555 446 555 446 616 466 c 2,5,-1
 710 498 l 1,6,7
 740 579 740 579 751 669 c 128,-1,8
 762 759 762 759 762 785 c 0,9,10
 762 820 762 820 757 862 c 1,11,12
 683 890 683 890 510 905 c 1,13,-1
 557 1130 l 1,14,15
 699 1115 699 1115 874 1070 c 0,16,17
 913 1059 913 1059 942 1029 c 0,18,19
 1001 966 1001 966 1006 902 c 0,20,21
 1011 850 1011 850 1011 797.5 c 128,-1,22
 1011 745 1011 745 1004.5 689.5 c 128,-1,23
 998 634 998 634 986 576 c 0,24,25
 961 453 961 453 936 394 c 128,-1,26
 911 335 911 335 899.5 325 c 128,-1,27
 888 315 888 315 874 307.5 c 128,-1,28
 860 300 860 300 845 296 c 2,29,-1
 817 287 l 1,30,-1
 438 223 l 1,31,-1
 426 8 l 1,32,-1
 217 -14 l 1,33,-1
 198 1292 l 1,0,-1
EndSplineSet
EndChar

StartChar: germandbls
Encoding: 223 223 180
Width: 1134
GlyphClass: 2
Flags: W
LayerCount: 2
Fore
SplineSet
388 1229 m 1,0,-1
 402 741 l 1,1,-1
 390 0 l 1,2,-1
 168 -16 l 1,3,-1
 139 1173 l 2,4,5
 139 1212 139 1212 152 1238.5 c 128,-1,6
 165 1265 165 1265 208 1296 c 2,7,-1
 354 1402 l 1,8,9
 429 1455 429 1455 459 1458.5 c 128,-1,10
 489 1462 489 1462 528 1462 c 0,11,12
 615 1462 615 1462 737 1433 c 0,13,14
 775 1423 775 1423 825 1378 c 0,15,16
 919 1291 919 1291 925 1249 c 0,17,18
 932 1205 932 1205 932 1148 c 0,19,20
 932 1070 932 1070 917 959 c 1,21,-1
 714 831 l 1,22,-1
 724 763 l 1,23,-1
 981 628 l 2,24,25
 1039 598 1039 598 1039 521 c 0,26,27
 1039 489 1039 489 1028 380 c 2,28,-1
 1006 147 l 2,29,30
 1002 113 1002 113 974 93 c 0,31,32
 881 28 881 28 628 -26 c 0,33,34
 577 -37 577 -37 528 -43 c 1,35,-1
 490 194 l 1,36,37
 532 199 532 199 568 204 c 2,38,-1
 637 214 l 2,39,40
 698 223 698 223 786 243 c 1,41,-1
 793 466 l 1,42,-1
 559 599 l 2,43,44
 501 633 501 633 496 701 c 2,45,-1
 481 912 l 1,46,47
 504 942 504 942 555 982 c 0,48,49
 677 1077 677 1077 704 1100 c 1,50,-1
 706 1132 l 2,51,52
 706 1142 706 1142 706 1164 c 0,53,54
 706 1208 706 1208 698 1236 c 1,55,56
 619 1255 619 1255 531 1252.5 c 128,-1,57
 443 1250 443 1250 388 1229 c 1,0,-1
EndSplineSet
EndChar

StartChar: agrave
Encoding: 224 224 181
Width: 901
GlyphClass: 2
Flags: W
LayerCount: 2
Fore
SplineSet
541 1117 m 1,0,1
 493 1145 493 1145 456 1173 c 0,2,3
 301 1294 301 1294 256 1344 c 0,4,5
 188 1419 188 1419 168 1455 c 1,6,-1
 363 1591 l 1,7,-1
 650 1220 l 1,8,-1
 541 1117 l 1,0,1
807 -72 m 1,9,10
 395 -30 395 -30 161 53 c 0,11,12
 118 69 118 69 104 237 c 0,13,14
 92 391 92 391 130 504 c 0,15,16
 146 551 146 551 168 556 c 0,17,18
 262 581 262 581 366 592 c 2,19,-1
 574 615 l 1,20,-1
 570 756 l 1,21,22
 461 777 461 777 353.5 789.5 c 128,-1,23
 246 802 246 802 140 819 c 1,24,-1
 193 1038 l 1,25,-1
 362 1013 l 2,26,27
 594 979 594 979 731 930 c 0,28,29
 797 906 797 906 797 833 c 2,30,-1
 801 285 l 1,31,-1
 588 264 l 1,32,-1
 582 435 l 1,33,-1
 525 424 l 1,34,35
 429 408 429 408 342 384 c 1,36,37
 331 331 331 331 331 296 c 0,38,39
 331 245 331 245 335 217 c 1,40,41
 476 185 476 185 770 152 c 2,42,-1
 852 143 l 1,43,-1
 807 -72 l 1,9,10
EndSplineSet
EndChar

StartChar: aacute
Encoding: 225 225 182
Width: 901
GlyphClass: 2
Flags: W
LayerCount: 2
Fore
SplineSet
302 1220 m 1,0,-1
 591 1589 l 1,1,-1
 765 1425 l 1,2,3
 716 1354 716 1354 618 1270 c 1,4,5
 485 1161 485 1161 410 1117 c 1,6,-1
 302 1220 l 1,0,-1
807 -72 m 1,7,8
 395 -30 395 -30 161 53 c 0,9,10
 118 69 118 69 104 237 c 0,11,12
 92 391 92 391 130 504 c 0,13,14
 146 551 146 551 168 556 c 0,15,16
 262 581 262 581 366 592 c 2,17,-1
 574 615 l 1,18,-1
 570 756 l 1,19,20
 461 777 461 777 353.5 789.5 c 128,-1,21
 246 802 246 802 140 819 c 1,22,-1
 193 1038 l 1,23,-1
 362 1013 l 2,24,25
 594 979 594 979 731 930 c 0,26,27
 797 906 797 906 797 833 c 2,28,-1
 801 285 l 1,29,-1
 588 264 l 1,30,-1
 582 435 l 1,31,-1
 525 424 l 1,32,33
 429 408 429 408 342 384 c 1,34,35
 331 331 331 331 331 296 c 0,36,37
 331 245 331 245 335 217 c 1,38,39
 476 185 476 185 770 152 c 2,40,-1
 852 143 l 1,41,-1
 807 -72 l 1,7,8
EndSplineSet
EndChar

StartChar: acircumflex
Encoding: 226 226 183
Width: 901
GlyphClass: 2
Flags: W
LayerCount: 2
Fore
SplineSet
458 1316 m 1,0,1
 358 1208 358 1208 255 1134 c 1,2,-1
 146 1232 l 1,3,-1
 370 1529 l 1,4,-1
 560 1535 l 1,5,-1
 791 1230 l 1,6,-1
 667 1134 l 1,7,8
 549 1232 549 1232 519 1259 c 2,9,-1
 458 1316 l 1,0,1
807 -72 m 1,10,11
 395 -30 395 -30 161 53 c 0,12,13
 118 69 118 69 104 237 c 0,14,15
 92 391 92 391 130 504 c 0,16,17
 146 551 146 551 168 556 c 0,18,19
 262 581 262 581 366 592 c 2,20,-1
 574 615 l 1,21,-1
 570 756 l 1,22,23
 461 777 461 777 353.5 789.5 c 128,-1,24
 246 802 246 802 140 819 c 1,25,-1
 193 1038 l 1,26,-1
 362 1013 l 2,27,28
 594 979 594 979 731 930 c 0,29,30
 797 906 797 906 797 833 c 2,31,-1
 801 285 l 1,32,-1
 588 264 l 1,33,-1
 582 435 l 1,34,-1
 525 424 l 1,35,36
 429 408 429 408 342 384 c 1,37,38
 331 331 331 331 331 296 c 0,39,40
 331 245 331 245 335 217 c 1,41,42
 476 185 476 185 770 152 c 2,43,-1
 852 143 l 1,44,-1
 807 -72 l 1,10,11
EndSplineSet
EndChar

StartChar: atilde
Encoding: 227 227 184
Width: 901
GlyphClass: 2
Flags: W
LayerCount: 2
Fore
SplineSet
129 1244 m 1,0,1
 169 1304 169 1304 221 1352 c 0,2,3
 317 1441 317 1441 350.5 1441 c 128,-1,4
 384 1441 384 1441 418.5 1427 c 128,-1,5
 453 1413 453 1413 486 1396 c 2,6,-1
 545 1365 l 2,7,8
 572 1351 572 1351 579 1351 c 128,-1,9
 586 1351 586 1351 590.5 1353 c 128,-1,10
 595 1355 595 1355 610 1364.5 c 128,-1,11
 625 1374 625 1374 654 1394 c 2,12,-1
 737 1453 l 1,13,-1
 813 1359 l 1,14,-1
 769 1294 l 1,15,16
 655 1132 655 1132 570 1132 c 0,17,18
 528 1132 528 1132 471.5 1163.5 c 128,-1,19
 415 1195 415 1195 391 1209.5 c 128,-1,20
 367 1224 367 1224 362 1224 c 128,-1,21
 357 1224 357 1224 352.5 1222.5 c 128,-1,22
 348 1221 348 1221 332 1214 c 2,23,-1
 193 1152 l 1,24,-1
 129 1244 l 1,0,1
807 -72 m 1,25,26
 395 -30 395 -30 161 53 c 0,27,28
 118 69 118 69 104 237 c 0,29,30
 92 391 92 391 130 504 c 0,31,32
 146 551 146 551 168 556 c 0,33,34
 262 581 262 581 366 592 c 2,35,-1
 574 615 l 1,36,-1
 570 756 l 1,37,38
 461 777 461 777 353.5 789.5 c 128,-1,39
 246 802 246 802 140 819 c 1,40,-1
 193 1038 l 1,41,-1
 362 1013 l 2,42,43
 594 979 594 979 731 930 c 0,44,45
 797 906 797 906 797 833 c 2,46,-1
 801 285 l 1,47,-1
 588 264 l 1,48,-1
 582 435 l 1,49,-1
 525 424 l 1,50,51
 429 408 429 408 342 384 c 1,52,53
 331 331 331 331 331 296 c 0,54,55
 331 245 331 245 335 217 c 1,56,57
 476 185 476 185 770 152 c 2,58,-1
 852 143 l 1,59,-1
 807 -72 l 1,25,26
EndSplineSet
EndChar

StartChar: adieresis
Encoding: 228 228 185
Width: 901
GlyphClass: 2
Flags: W
LayerCount: 2
Fore
SplineSet
367 1453 m 1,0,1
 402 1395 402 1395 402 1262 c 0,2,3
 402 1191 402 1191 389 1167 c 1,4,-1
 191 1156 l 1,5,6
 174 1302 174 1302 150 1398 c 1,7,-1
 367 1453 l 1,0,1
760 1443 m 1,8,9
 775 1411 775 1411 775 1367.5 c 128,-1,10
 775 1324 775 1324 770.5 1291.5 c 128,-1,11
 766 1259 766 1259 760 1230 c 0,12,13
 746 1169 746 1169 727 1142 c 1,14,-1
 524 1177 l 1,15,16
 542 1256 542 1256 542 1320 c 128,-1,17
 542 1384 542 1384 537 1427 c 1,18,-1
 760 1443 l 1,8,9
807 -72 m 1,19,20
 395 -30 395 -30 161 53 c 0,21,22
 118 69 118 69 104 237 c 0,23,24
 92 391 92 391 130 504 c 0,25,26
 146 551 146 551 168 556 c 0,27,28
 262 581 262 581 366 592 c 2,29,-1
 574 615 l 1,30,-1
 570 756 l 1,31,32
 461 777 461 777 353.5 789.5 c 128,-1,33
 246 802 246 802 140 819 c 1,34,-1
 193 1038 l 1,35,-1
 362 1013 l 2,36,37
 594 979 594 979 731 930 c 0,38,39
 797 906 797 906 797 833 c 2,40,-1
 801 285 l 1,41,-1
 588 264 l 1,42,-1
 582 435 l 1,43,-1
 525 424 l 1,44,45
 429 408 429 408 342 384 c 1,46,47
 331 331 331 331 331 296 c 0,48,49
 331 245 331 245 335 217 c 1,50,51
 476 185 476 185 770 152 c 2,52,-1
 852 143 l 1,53,-1
 807 -72 l 1,19,20
EndSplineSet
EndChar

StartChar: aring
Encoding: 229 229 186
Width: 901
GlyphClass: 2
Flags: W
LayerCount: 2
Fore
SplineSet
471 1115 m 0,0,1
 418 1115 418 1115 374.5 1133 c 128,-1,2
 331 1151 331 1151 300 1184 c 0,3,4
 234 1253 234 1253 234 1363 c 0,5,6
 234 1521 234 1521 378 1564 c 0,7,8
 423 1578 423 1578 473.5 1578 c 128,-1,9
 524 1578 524 1578 565.5 1565.5 c 128,-1,10
 607 1553 607 1553 638 1527 c 0,11,12
 705 1471 705 1471 705 1367 c 0,13,14
 705 1257 705 1257 642 1188 c 0,15,16
 575 1115 575 1115 471 1115 c 0,0,1
472 1279 m 0,17,18
 526 1279 526 1279 539 1349 c 1,19,20
 544 1421 544 1421 471 1421 c 0,21,22
 417 1421 417 1421 403 1384 c 0,23,24
 398 1370 398 1370 400 1353.5 c 128,-1,25
 402 1337 402 1337 405.5 1324 c 128,-1,26
 409 1311 409 1311 416 1301 c 0,27,28
 431 1279 431 1279 472 1279 c 0,17,18
807 -72 m 1,29,30
 395 -30 395 -30 161 53 c 0,31,32
 118 69 118 69 104 237 c 0,33,34
 92 391 92 391 130 504 c 0,35,36
 146 551 146 551 168 556 c 0,37,38
 262 581 262 581 366 592 c 2,39,-1
 574 615 l 1,40,-1
 570 756 l 1,41,42
 461 777 461 777 353.5 789.5 c 128,-1,43
 246 802 246 802 140 819 c 1,44,-1
 193 1038 l 1,45,-1
 362 1013 l 2,46,47
 594 979 594 979 731 930 c 0,48,49
 797 906 797 906 797 833 c 2,50,-1
 801 285 l 1,51,-1
 588 264 l 1,52,-1
 582 435 l 1,53,-1
 525 424 l 1,54,55
 429 408 429 408 342 384 c 1,56,57
 331 331 331 331 331 296 c 0,58,59
 331 245 331 245 335 217 c 1,60,61
 476 185 476 185 770 152 c 2,62,-1
 852 143 l 1,63,-1
 807 -72 l 1,29,30
EndSplineSet
EndChar

StartChar: ae
Encoding: 230 230 187
Width: 1368
GlyphClass: 2
Flags: W
LayerCount: 2
Fore
SplineSet
744 911 m 1,0,1
 951 1012 951 1012 1069 1012 c 0,2,3
 1146 1012 1146 1012 1174 999 c 0,4,5
 1228 975 1228 975 1241 922 c 0,6,7
 1274 789 1274 789 1274 428 c 2,8,-1
 1274 369 l 1,9,-1
 794 375 l 1,10,-1
 794 233 l 1,11,12
 874 214 874 214 981 197 c 2,13,-1
 1154 170 l 2,14,15
 1219 160 1219 160 1288 147 c 1,16,-1
 1229 -72 l 1,17,18
 939 -26 939 -26 645 67 c 0,19,20
 571 91 571 91 571 150 c 2,21,-1
 567 431 l 1,22,23
 541 426 541 426 510 421 c 128,-1,24
 479 416 479 416 448 410 c 0,25,26
 385 398 385 398 329 383 c 1,27,28
 319 326 319 326 319 293 c 0,29,30
 319 245 319 245 323 217 c 1,31,32
 368 206 368 206 414 198 c 2,33,-1
 508 182 l 1,34,-1
 463 -25 l 1,35,36
 355 -15 355 -15 262.5 14.5 c 128,-1,37
 170 44 170 44 150.5 52.5 c 128,-1,38
 131 61 131 61 120 92.5 c 128,-1,39
 109 124 109 124 102 164 c 0,40,41
 90 234 90 234 90.5 288.5 c 128,-1,42
 91 343 91 343 94.5 381 c 128,-1,43
 98 419 98 419 106 456 c 0,44,45
 124 546 124 546 155 555 c 0,46,47
 267 584 267 584 390 595 c 1,48,-1
 563 612 l 1,49,-1
 561 754 l 1,50,51
 453 775 453 775 349 788.5 c 128,-1,52
 245 802 245 802 139 819 c 1,53,-1
 192 1038 l 1,54,55
 559 987 559 987 744 911 c 1,0,1
1048 588 m 2,56,57
 1048 669 1048 669 1030 782 c 1,58,59
 931 782 931 782 821 732 c 0,60,61
 799 722 799 722 790 715 c 1,62,-1
 789 676 l 1,63,-1
 790 557 l 1,64,-1
 1048 567 l 1,65,-1
 1048 588 l 2,56,57
EndSplineSet
EndChar

StartChar: egrave
Encoding: 232 232 189
Width: 958
GlyphClass: 2
Flags: W
LayerCount: 2
Fore
SplineSet
530 1117 m 1,0,1
 482 1145 482 1145 445 1173 c 0,2,3
 290 1294 290 1294 245 1344 c 0,4,5
 177 1419 177 1419 157 1455 c 1,6,-1
 352 1591 l 1,7,-1
 639 1220 l 1,8,-1
 530 1117 l 1,0,1
122 666 m 1,9,10
 122 800 122 800 149.5 821 c 128,-1,11
 177 842 177 842 212.5 863.5 c 128,-1,12
 248 885 248 885 290 906 c 128,-1,13
 332 927 332 927 377.5 946 c 128,-1,14
 423 965 423 965 467 980 c 0,15,16
 561 1012 561 1012 607.5 1012 c 128,-1,17
 654 1012 654 1012 683 1007.5 c 128,-1,18
 712 1003 712 1003 736 993 c 0,19,20
 791 970 791 970 798 926 c 0,21,22
 831 717 831 717 831 428 c 2,23,-1
 831 369 l 1,24,-1
 352 363 l 1,25,-1
 352 233 l 1,26,27
 430 214 430 214 538 198 c 1,28,-1
 710 170 l 2,29,30
 776 160 776 160 845 147 c 1,31,-1
 786 -72 l 1,32,33
 511 -29 511 -29 202 67 c 0,34,35
 131 90 131 90 129 150 c 1,36,-1
 122 666 l 1,9,10
606 584 m 2,37,38
 606 678 606 678 587 782 c 1,39,40
 547 782 547 782 523 778 c 128,-1,41
 499 774 499 774 475 767 c 128,-1,42
 451 760 451 760 426 751 c 0,43,44
 367 730 367 730 348 715 c 1,45,-1
 348 535 l 1,46,-1
 606 563 l 1,47,-1
 606 584 l 2,37,38
EndSplineSet
EndChar

StartChar: eacute
Encoding: 233 233 190
Width: 958
GlyphClass: 2
Flags: W
LayerCount: 2
Fore
SplineSet
235 1220 m 1,0,-1
 524 1589 l 1,1,-1
 698 1425 l 1,2,3
 649 1354 649 1354 551 1270 c 1,4,5
 418 1161 418 1161 343 1117 c 1,6,-1
 235 1220 l 1,0,-1
122 666 m 1,7,8
 122 800 122 800 149.5 821 c 128,-1,9
 177 842 177 842 212.5 863.5 c 128,-1,10
 248 885 248 885 290 906 c 128,-1,11
 332 927 332 927 377.5 946 c 128,-1,12
 423 965 423 965 467 980 c 0,13,14
 561 1012 561 1012 607.5 1012 c 128,-1,15
 654 1012 654 1012 683 1007.5 c 128,-1,16
 712 1003 712 1003 736 993 c 0,17,18
 791 970 791 970 798 926 c 0,19,20
 831 717 831 717 831 428 c 2,21,-1
 831 369 l 1,22,-1
 352 363 l 1,23,-1
 352 233 l 1,24,25
 430 214 430 214 538 198 c 1,26,-1
 710 170 l 2,27,28
 776 160 776 160 845 147 c 1,29,-1
 786 -72 l 1,30,31
 511 -29 511 -29 202 67 c 0,32,33
 131 90 131 90 129 150 c 1,34,-1
 122 666 l 1,7,8
606 584 m 2,35,36
 606 678 606 678 587 782 c 1,37,38
 547 782 547 782 523 778 c 128,-1,39
 499 774 499 774 475 767 c 128,-1,40
 451 760 451 760 426 751 c 0,41,42
 367 730 367 730 348 715 c 1,43,-1
 348 535 l 1,44,-1
 606 563 l 1,45,-1
 606 584 l 2,35,36
EndSplineSet
EndChar

StartChar: ecircumflex
Encoding: 234 234 191
Width: 958
GlyphClass: 2
Flags: W
LayerCount: 2
Fore
SplineSet
465 1316 m 1,0,1
 365 1208 365 1208 262 1134 c 1,2,-1
 153 1232 l 1,3,-1
 377 1529 l 1,4,-1
 567 1535 l 1,5,-1
 798 1230 l 1,6,-1
 674 1134 l 1,7,8
 556 1232 556 1232 526 1259 c 2,9,-1
 465 1316 l 1,0,1
122 666 m 1,10,11
 122 800 122 800 149.5 821 c 128,-1,12
 177 842 177 842 212.5 863.5 c 128,-1,13
 248 885 248 885 290 906 c 128,-1,14
 332 927 332 927 377.5 946 c 128,-1,15
 423 965 423 965 467 980 c 0,16,17
 561 1012 561 1012 607.5 1012 c 128,-1,18
 654 1012 654 1012 683 1007.5 c 128,-1,19
 712 1003 712 1003 736 993 c 0,20,21
 791 970 791 970 798 926 c 0,22,23
 831 717 831 717 831 428 c 2,24,-1
 831 369 l 1,25,-1
 352 363 l 1,26,-1
 352 233 l 1,27,28
 430 214 430 214 538 198 c 1,29,-1
 710 170 l 2,30,31
 776 160 776 160 845 147 c 1,32,-1
 786 -72 l 1,33,34
 511 -29 511 -29 202 67 c 0,35,36
 131 90 131 90 129 150 c 1,37,-1
 122 666 l 1,10,11
606 584 m 2,38,39
 606 678 606 678 587 782 c 1,40,41
 547 782 547 782 523 778 c 128,-1,42
 499 774 499 774 475 767 c 128,-1,43
 451 760 451 760 426 751 c 0,44,45
 367 730 367 730 348 715 c 1,46,-1
 348 535 l 1,47,-1
 606 563 l 1,48,-1
 606 584 l 2,38,39
EndSplineSet
EndChar

StartChar: edieresis
Encoding: 235 235 192
Width: 958
GlyphClass: 2
Flags: W
LayerCount: 2
Fore
SplineSet
362 1453 m 1,0,1
 397 1395 397 1395 397 1262 c 0,2,3
 397 1191 397 1191 384 1167 c 1,4,-1
 186 1156 l 1,5,6
 169 1302 169 1302 145 1398 c 1,7,-1
 362 1453 l 1,0,1
755 1443 m 1,8,9
 770 1411 770 1411 770 1367.5 c 128,-1,10
 770 1324 770 1324 765.5 1291.5 c 128,-1,11
 761 1259 761 1259 754 1230 c 0,12,13
 741 1169 741 1169 722 1142 c 1,14,-1
 519 1177 l 1,15,16
 537 1256 537 1256 537 1320 c 128,-1,17
 537 1384 537 1384 532 1427 c 1,18,-1
 755 1443 l 1,8,9
122 666 m 1,19,20
 122 800 122 800 149.5 821 c 128,-1,21
 177 842 177 842 212.5 863.5 c 128,-1,22
 248 885 248 885 290 906 c 128,-1,23
 332 927 332 927 377.5 946 c 128,-1,24
 423 965 423 965 467 980 c 0,25,26
 561 1012 561 1012 607.5 1012 c 128,-1,27
 654 1012 654 1012 683 1007.5 c 128,-1,28
 712 1003 712 1003 736 993 c 0,29,30
 791 970 791 970 798 926 c 0,31,32
 831 717 831 717 831 428 c 2,33,-1
 831 369 l 1,34,-1
 352 363 l 1,35,-1
 352 233 l 1,36,37
 430 214 430 214 538 198 c 1,38,-1
 710 170 l 2,39,40
 776 160 776 160 845 147 c 1,41,-1
 786 -72 l 1,42,43
 511 -29 511 -29 202 67 c 0,44,45
 131 90 131 90 129 150 c 1,46,-1
 122 666 l 1,19,20
606 584 m 2,47,48
 606 678 606 678 587 782 c 1,49,50
 547 782 547 782 523 778 c 128,-1,51
 499 774 499 774 475 767 c 128,-1,52
 451 760 451 760 426 751 c 0,53,54
 367 730 367 730 348 715 c 1,55,-1
 348 535 l 1,56,-1
 606 563 l 1,57,-1
 606 584 l 2,47,48
EndSplineSet
EndChar

StartChar: igrave
Encoding: 236 236 193
Width: 596
GlyphClass: 2
Flags: W
LayerCount: 2
Fore
SplineSet
334 1117 m 1,0,1
 286 1145 286 1145 249 1173 c 0,2,3
 94 1294 94 1294 49 1344 c 0,4,5
 -19 1419 -19 1419 -39 1455 c 1,6,-1
 156 1591 l 1,7,-1
 443 1220 l 1,8,-1
 334 1117 l 1,0,1
420 1001 m 1,9,10
 425 898 425 898 425 828 c 128,-1,11
 425 758 425 758 422 664 c 2,12,-1
 399 0 l 1,13,-1
 186 -18 l 1,14,-1
 166 969 l 1,15,-1
 420 1001 l 1,9,10
EndSplineSet
EndChar

StartChar: iacute
Encoding: 237 237 194
Width: 604
GlyphClass: 2
Flags: W
LayerCount: 2
Fore
SplineSet
172 1220 m 1,0,-1
 461 1589 l 1,1,-1
 635 1425 l 1,2,3
 586 1354 586 1354 488 1270 c 1,4,5
 355 1161 355 1161 280 1117 c 1,6,-1
 172 1220 l 1,0,-1
420 1001 m 1,7,8
 425 898 425 898 425 828 c 128,-1,9
 425 758 425 758 422 664 c 2,10,-1
 399 0 l 1,11,-1
 186 -18 l 1,12,-1
 166 969 l 1,13,-1
 420 1001 l 1,7,8
EndSplineSet
EndChar

StartChar: icircumflex
Encoding: 238 238 195
Width: 596
GlyphClass: 2
Flags: W
LayerCount: 2
Fore
SplineSet
287 1316 m 1,0,1
 187 1208 187 1208 84 1134 c 1,2,-1
 -25 1232 l 1,3,-1
 199 1529 l 1,4,-1
 389 1535 l 1,5,-1
 620 1230 l 1,6,-1
 496 1134 l 1,7,8
 378 1232 378 1232 348 1259 c 2,9,-1
 287 1316 l 1,0,1
420 1001 m 1,10,11
 425 898 425 898 425 828 c 128,-1,12
 425 758 425 758 422 664 c 2,13,-1
 399 0 l 1,14,-1
 186 -18 l 1,15,-1
 166 969 l 1,16,-1
 420 1001 l 1,10,11
EndSplineSet
EndChar

StartChar: idieresis
Encoding: 239 239 196
Width: 616
GlyphClass: 2
Flags: W
LayerCount: 2
Fore
SplineSet
213 1451 m 1,0,1
 248 1393 248 1393 248 1260 c 0,2,3
 248 1189 248 1189 235 1165 c 1,4,-1
 37 1154 l 1,5,6
 20 1300 20 1300 -4 1396 c 1,7,-1
 213 1451 l 1,0,1
606 1441 m 1,8,9
 621 1409 621 1409 621 1365.5 c 128,-1,10
 621 1322 621 1322 616.5 1289.5 c 128,-1,11
 612 1257 612 1257 606 1228 c 0,12,13
 592 1167 592 1167 573 1140 c 1,14,-1
 370 1175 l 1,15,16
 388 1254 388 1254 388 1318 c 128,-1,17
 388 1382 388 1382 383 1425 c 1,18,-1
 606 1441 l 1,8,9
430 1001 m 1,19,20
 435 898 435 898 435 828 c 128,-1,21
 435 758 435 758 432 664 c 2,22,-1
 409 0 l 1,23,-1
 196 -16 l 1,24,-1
 176 969 l 1,25,-1
 430 1001 l 1,19,20
EndSplineSet
EndChar

StartChar: eth
Encoding: 240 240 197
Width: 1032
GlyphClass: 2
Flags: W
LayerCount: 2
Fore
SplineSet
745 1341 m 1,0,1
 706 1291 706 1291 632 1227 c 1,2,3
 809 1076 809 1076 872 962 c 0,4,5
 901 909 901 909 904 829.5 c 128,-1,6
 907 750 907 750 907 697.5 c 128,-1,7
 907 645 907 645 902 587 c 128,-1,8
 897 529 897 529 889 465.5 c 128,-1,9
 881 402 881 402 870.5 338 c 128,-1,10
 860 274 860 274 850 218 c 0,11,12
 828 105 828 105 811 60 c 128,-1,13
 794 15 794 15 760.5 -1 c 128,-1,14
 727 -17 727 -17 686 -23 c 0,15,16
 626 -32 626 -32 559 -32 c 128,-1,17
 492 -32 492 -32 457.5 -31 c 128,-1,18
 423 -30 423 -30 392 -28 c 0,19,20
 328 -25 328 -25 289 -19.5 c 128,-1,21
 250 -14 250 -14 224.5 5.5 c 128,-1,22
 199 25 199 25 188 76 c 0,23,24
 121 393 121 393 121 612 c 0,25,26
 121 694 121 694 136 723 c 0,27,28
 186 817 186 817 432 870 c 0,29,30
 468 877 468 877 501 882 c 1,31,-1
 567 708 l 1,32,33
 405 631 405 631 370 610 c 1,34,35
 366 554 366 554 366 500.5 c 128,-1,36
 366 447 366 447 368.5 410.5 c 128,-1,37
 371 374 371 374 375.5 339.5 c 128,-1,38
 380 305 380 305 387 268 c 2,39,-1
 403 184 l 1,40,-1
 602 193 l 1,41,42
 663 409 663 409 663 688 c 0,43,44
 663 827 663 827 643 909 c 1,45,46
 608 948 608 948 560 994 c 1,47,-1
 455 1090 l 1,48,49
 343 1009 343 1009 260 963 c 1,50,-1
 157 1083 l 1,51,-1
 307 1207 l 1,52,-1
 224 1264 l 2,53,54
 183 1292 183 1292 139 1317 c 1,55,-1
 252 1477 l 1,56,57
 374 1413 374 1413 470 1348 c 1,58,59
 556 1423 556 1423 602 1477 c 1,60,-1
 745 1341 l 1,0,1
EndSplineSet
EndChar

StartChar: ntilde
Encoding: 241 241 198
Width: 1024
GlyphClass: 2
Flags: W
LayerCount: 2
Fore
SplineSet
196 1244 m 1,0,1
 236 1304 236 1304 288 1352 c 0,2,3
 384 1441 384 1441 417.5 1441 c 128,-1,4
 451 1441 451 1441 485.5 1427 c 128,-1,5
 520 1413 520 1413 552 1396 c 2,6,-1
 612 1365 l 2,7,8
 639 1351 639 1351 646 1351 c 128,-1,9
 653 1351 653 1351 657.5 1353 c 128,-1,10
 662 1355 662 1355 677 1364.5 c 128,-1,11
 692 1374 692 1374 722 1394 c 1,12,-1
 804 1453 l 1,13,-1
 880 1359 l 1,14,-1
 836 1294 l 1,15,16
 722 1132 722 1132 637 1132 c 0,17,18
 595 1132 595 1132 538.5 1163.5 c 128,-1,19
 482 1195 482 1195 458 1209.5 c 128,-1,20
 434 1224 434 1224 429 1224 c 128,-1,21
 424 1224 424 1224 419.5 1222.5 c 128,-1,22
 415 1221 415 1221 399 1214 c 2,23,-1
 260 1152 l 1,24,-1
 196 1244 l 1,0,1
137 956 m 1,25,-1
 350 983 l 1,26,-1
 385 831 l 1,27,-1
 561 983 l 1,28,-1
 807 983 l 2,29,30
 826 983 826 983 860 954 c 0,31,32
 917 907 917 907 917 870 c 1,33,-1
 882 -2 l 1,34,-1
 659 -20 l 1,35,-1
 655 752 l 1,36,37
 643 756 643 756 622 756 c 128,-1,38
 601 756 601 756 583.5 754 c 128,-1,39
 566 752 566 752 546 748 c 0,40,41
 499 740 499 740 469 729 c 2,42,-1
 395 702 l 1,43,-1
 368 8 l 1,44,-1
 155 -8 l 1,45,-1
 137 956 l 1,25,-1
EndSplineSet
EndChar

StartChar: ograve
Encoding: 242 242 199
Width: 991
GlyphClass: 2
Flags: W
LayerCount: 2
Fore
SplineSet
569 1117 m 1,0,1
 521 1145 521 1145 484 1173 c 0,2,3
 329 1294 329 1294 284 1344 c 0,4,5
 216 1419 216 1419 196 1455 c 1,6,-1
 391 1591 l 1,7,-1
 678 1220 l 1,8,-1
 569 1117 l 1,0,1
370 592 m 2,9,10
 370 351 370 351 395 174 c 1,11,-1
 592 184 l 1,12,13
 646 398 646 398 646 602 c 0,14,15
 646 684 646 684 635 748 c 1,16,17
 575 778 575 778 211 778 c 2,18,-1
 160 778 l 2,19,20
 139 778 139 778 114 776 c 1,21,-1
 157 1008 l 1,22,23
 174 1009 174 1009 188.5 1010.5 c 128,-1,24
 203 1012 203 1012 218 1012 c 2,25,-1
 248 1014 l 2,26,27
 263 1014 263 1014 332 1014 c 0,28,29
 530 1014 530 1014 766 961 c 1,30,31
 841 942 841 942 858 894 c 0,32,33
 884 820 884 820 884 653 c 0,34,35
 884 348 884 348 791 63 c 0,36,37
 783 37 783 37 772.5 19 c 128,-1,38
 762 1 762 1 736 -4.5 c 128,-1,39
 710 -10 710 -10 675 -15 c 128,-1,40
 640 -20 640 -20 606 -24 c 0,41,42
 532 -31 532 -31 504 -31 c 128,-1,43
 476 -31 476 -31 444 -30.5 c 128,-1,44
 412 -30 412 -30 374 -28 c 0,45,46
 274 -23 274 -23 239 -10.5 c 128,-1,47
 204 2 204 2 191.5 32 c 128,-1,48
 179 62 179 62 167 128 c 0,49,50
 139 282 139 282 139 479 c 0,51,52
 139 554 139 554 143 628 c 1,53,-1
 370 673 l 1,54,-1
 370 592 l 2,9,10
EndSplineSet
EndChar

StartChar: oacute
Encoding: 243 243 200
Width: 991
GlyphClass: 2
Flags: W
LayerCount: 2
Fore
SplineSet
330 1220 m 1,0,-1
 619 1589 l 1,1,-1
 793 1425 l 1,2,3
 744 1354 744 1354 646 1270 c 1,4,5
 513 1161 513 1161 438 1117 c 1,6,-1
 330 1220 l 1,0,-1
370 592 m 2,7,8
 370 351 370 351 395 174 c 1,9,-1
 592 184 l 1,10,11
 646 398 646 398 646 602 c 0,12,13
 646 684 646 684 635 748 c 1,14,15
 575 778 575 778 211 778 c 2,16,-1
 160 778 l 2,17,18
 139 778 139 778 114 776 c 1,19,-1
 157 1008 l 1,20,21
 174 1009 174 1009 188.5 1010.5 c 128,-1,22
 203 1012 203 1012 218 1012 c 2,23,-1
 248 1014 l 2,24,25
 263 1014 263 1014 332 1014 c 0,26,27
 530 1014 530 1014 766 961 c 1,28,29
 841 942 841 942 858 894 c 0,30,31
 884 820 884 820 884 653 c 0,32,33
 884 348 884 348 791 63 c 0,34,35
 783 37 783 37 772.5 19 c 128,-1,36
 762 1 762 1 736 -4.5 c 128,-1,37
 710 -10 710 -10 675 -15 c 128,-1,38
 640 -20 640 -20 606 -24 c 0,39,40
 532 -31 532 -31 504 -31 c 128,-1,41
 476 -31 476 -31 444 -30.5 c 128,-1,42
 412 -30 412 -30 374 -28 c 0,43,44
 274 -23 274 -23 239 -10.5 c 128,-1,45
 204 2 204 2 191.5 32 c 128,-1,46
 179 62 179 62 167 128 c 0,47,48
 139 282 139 282 139 479 c 0,49,50
 139 554 139 554 143 628 c 1,51,-1
 370 673 l 1,52,-1
 370 592 l 2,7,8
EndSplineSet
EndChar

StartChar: ocircumflex
Encoding: 244 244 201
Width: 991
GlyphClass: 2
Flags: W
LayerCount: 2
Fore
SplineSet
489 1316 m 1,0,1
 389 1208 389 1208 286 1134 c 1,2,-1
 177 1232 l 1,3,-1
 401 1529 l 1,4,-1
 591 1535 l 1,5,-1
 822 1230 l 1,6,-1
 698 1134 l 1,7,8
 580 1232 580 1232 550 1259 c 2,9,-1
 489 1316 l 1,0,1
370 592 m 2,10,11
 370 351 370 351 395 174 c 1,12,-1
 592 184 l 1,13,14
 646 398 646 398 646 602 c 0,15,16
 646 684 646 684 635 748 c 1,17,18
 575 778 575 778 211 778 c 2,19,-1
 160 778 l 2,20,21
 139 778 139 778 114 776 c 1,22,-1
 157 1008 l 1,23,24
 174 1009 174 1009 188.5 1010.5 c 128,-1,25
 203 1012 203 1012 218 1012 c 2,26,-1
 248 1014 l 2,27,28
 263 1014 263 1014 332 1014 c 0,29,30
 530 1014 530 1014 766 961 c 1,31,32
 841 942 841 942 858 894 c 0,33,34
 884 820 884 820 884 653 c 0,35,36
 884 348 884 348 791 63 c 0,37,38
 783 37 783 37 772.5 19 c 128,-1,39
 762 1 762 1 736 -4.5 c 128,-1,40
 710 -10 710 -10 675 -15 c 128,-1,41
 640 -20 640 -20 606 -24 c 0,42,43
 532 -31 532 -31 504 -31 c 128,-1,44
 476 -31 476 -31 444 -30.5 c 128,-1,45
 412 -30 412 -30 374 -28 c 0,46,47
 274 -23 274 -23 239 -10.5 c 128,-1,48
 204 2 204 2 191.5 32 c 128,-1,49
 179 62 179 62 167 128 c 0,50,51
 139 282 139 282 139 479 c 0,52,53
 139 554 139 554 143 628 c 1,54,-1
 370 673 l 1,55,-1
 370 592 l 2,10,11
EndSplineSet
EndChar

StartChar: otilde
Encoding: 245 245 202
Width: 991
GlyphClass: 2
Flags: W
LayerCount: 2
Fore
SplineSet
182 1244 m 1,0,1
 222 1304 222 1304 274 1352 c 0,2,3
 370 1441 370 1441 403.5 1441 c 128,-1,4
 437 1441 437 1441 471.5 1427 c 128,-1,5
 506 1413 506 1413 538 1396 c 2,6,-1
 598 1365 l 2,7,8
 625 1351 625 1351 632 1351 c 128,-1,9
 639 1351 639 1351 643.5 1353 c 128,-1,10
 648 1355 648 1355 663 1364.5 c 128,-1,11
 678 1374 678 1374 708 1394 c 1,12,-1
 790 1453 l 1,13,-1
 866 1359 l 1,14,-1
 822 1294 l 1,15,16
 708 1132 708 1132 623 1132 c 0,17,18
 581 1132 581 1132 524.5 1163.5 c 128,-1,19
 468 1195 468 1195 444 1209.5 c 128,-1,20
 420 1224 420 1224 415 1224 c 128,-1,21
 410 1224 410 1224 405.5 1222.5 c 128,-1,22
 401 1221 401 1221 385 1214 c 2,23,-1
 246 1152 l 1,24,-1
 182 1244 l 1,0,1
370 592 m 2,25,26
 370 351 370 351 395 174 c 1,27,-1
 592 184 l 1,28,29
 646 398 646 398 646 602 c 0,30,31
 646 684 646 684 635 748 c 1,32,33
 575 778 575 778 211 778 c 2,34,-1
 160 778 l 2,35,36
 139 778 139 778 114 776 c 1,37,-1
 157 1008 l 1,38,39
 174 1009 174 1009 188.5 1010.5 c 128,-1,40
 203 1012 203 1012 218 1012 c 2,41,-1
 248 1014 l 2,42,43
 263 1014 263 1014 332 1014 c 0,44,45
 530 1014 530 1014 766 961 c 1,46,47
 841 942 841 942 858 894 c 0,48,49
 884 820 884 820 884 653 c 0,50,51
 884 348 884 348 791 63 c 0,52,53
 783 37 783 37 772.5 19 c 128,-1,54
 762 1 762 1 736 -4.5 c 128,-1,55
 710 -10 710 -10 675 -15 c 128,-1,56
 640 -20 640 -20 606 -24 c 0,57,58
 532 -31 532 -31 504 -31 c 128,-1,59
 476 -31 476 -31 444 -30.5 c 128,-1,60
 412 -30 412 -30 374 -28 c 0,61,62
 274 -23 274 -23 239 -10.5 c 128,-1,63
 204 2 204 2 191.5 32 c 128,-1,64
 179 62 179 62 167 128 c 0,65,66
 139 282 139 282 139 479 c 0,67,68
 139 554 139 554 143 628 c 1,69,-1
 370 673 l 1,70,-1
 370 592 l 2,25,26
EndSplineSet
EndChar

StartChar: odieresis
Encoding: 246 246 203
Width: 991
GlyphClass: 2
Flags: W
LayerCount: 2
Fore
SplineSet
395 1453 m 1,0,1
 430 1395 430 1395 430 1262 c 0,2,3
 430 1191 430 1191 417 1167 c 1,4,-1
 219 1156 l 1,5,6
 202 1302 202 1302 178 1398 c 1,7,-1
 395 1453 l 1,0,1
788 1443 m 1,8,9
 803 1411 803 1411 803 1367.5 c 128,-1,10
 803 1324 803 1324 798.5 1291.5 c 128,-1,11
 794 1259 794 1259 788 1230 c 0,12,13
 774 1169 774 1169 755 1142 c 1,14,-1
 552 1177 l 1,15,16
 570 1256 570 1256 570 1320 c 128,-1,17
 570 1384 570 1384 565 1427 c 1,18,-1
 788 1443 l 1,8,9
370 592 m 2,19,20
 370 351 370 351 395 174 c 1,21,-1
 592 184 l 1,22,23
 646 398 646 398 646 602 c 0,24,25
 646 684 646 684 635 748 c 1,26,27
 575 778 575 778 211 778 c 2,28,-1
 160 778 l 2,29,30
 139 778 139 778 114 776 c 1,31,-1
 157 1008 l 1,32,33
 174 1009 174 1009 188.5 1010.5 c 128,-1,34
 203 1012 203 1012 218 1012 c 2,35,-1
 248 1014 l 2,36,37
 263 1014 263 1014 332 1014 c 0,38,39
 530 1014 530 1014 766 961 c 1,40,41
 841 942 841 942 858 894 c 0,42,43
 884 820 884 820 884 653 c 0,44,45
 884 348 884 348 791 63 c 0,46,47
 783 37 783 37 772.5 19 c 128,-1,48
 762 1 762 1 736 -4.5 c 128,-1,49
 710 -10 710 -10 675 -15 c 128,-1,50
 640 -20 640 -20 606 -24 c 0,51,52
 532 -31 532 -31 504 -31 c 128,-1,53
 476 -31 476 -31 444 -30.5 c 128,-1,54
 412 -30 412 -30 374 -28 c 0,55,56
 274 -23 274 -23 239 -10.5 c 128,-1,57
 204 2 204 2 191.5 32 c 128,-1,58
 179 62 179 62 167 128 c 0,59,60
 139 282 139 282 139 479 c 0,61,62
 139 554 139 554 143 628 c 1,63,-1
 370 673 l 1,64,-1
 370 592 l 2,19,20
EndSplineSet
EndChar

StartChar: divide
Encoding: 247 247 204
Width: 957
GlyphClass: 2
Flags: W
LayerCount: 2
Fore
SplineSet
615 1087 m 1,0,1
 638 1006 638 1006 638 925.5 c 128,-1,2
 638 845 638 845 625 782 c 1,3,-1
 380 788 l 1,4,-1
 361 1057 l 1,5,-1
 615 1087 l 1,0,1
95 612 m 1,6,-1
 900 622 l 1,7,-1
 890 434 l 1,8,9
 816 431 816 431 755.5 427.5 c 128,-1,10
 695 424 695 424 636 422 c 0,11,12
 481 415 481 415 395.5 415 c 128,-1,13
 310 415 310 415 276 415.5 c 128,-1,14
 242 416 242 416 211.5 417.5 c 128,-1,15
 181 419 181 419 148 421 c 2,16,-1
 67 426 l 1,17,-1
 95 612 l 1,6,-1
638 159 m 0,18,19
 638 12 638 12 607 -45 c 1,20,-1
 367 -23 l 1,21,22
 378 96 378 96 378 159 c 128,-1,23
 378 222 378 222 376 250 c 1,24,-1
 625 276 l 1,25,26
 638 231 638 231 638 159 c 0,18,19
EndSplineSet
EndChar

StartChar: oslash
Encoding: 248 248 205
Width: 1035
GlyphClass: 2
Flags: W
LayerCount: 2
Fore
SplineSet
783 -4 m 0,0,1
 579 -46 579 -46 388 -19 c 1,2,-1
 312 -228 l 1,3,-1
 190 -187 l 1,4,-1
 261 9 l 1,5,6
 251 13 251 13 232 26 c 0,7,8
 196 52 196 52 183 102.5 c 128,-1,9
 170 153 170 153 162 205 c 128,-1,10
 154 257 154 257 149 310 c 0,11,12
 138 427 138 427 138 468.5 c 128,-1,13
 138 510 138 510 138.5 530.5 c 128,-1,14
 139 551 139 551 140 567 c 0,15,16
 141 606 141 606 142 629 c 1,17,-1
 357 674 l 1,18,-1
 348 415 l 1,19,20
 348 318 348 318 352 258 c 1,21,-1
 540 776 l 1,22,23
 374 795 374 795 282 795 c 2,24,-1
 164 795 l 2,25,26
 138 795 138 795 113 793 c 1,27,-1
 146 1018 l 1,28,29
 213 1024 213 1024 342.5 1024 c 128,-1,30
 472 1024 472 1024 621 997 c 1,31,-1
 699 1212 l 1,32,-1
 820 1165 l 1,33,-1
 748 967 l 1,34,-1
 793 952 l 2,35,36
 835 937 835 937 854.5 917.5 c 128,-1,37
 874 898 874 898 887.5 860.5 c 128,-1,38
 901 823 901 823 908 780 c 0,39,40
 922 703 922 703 922 590 c 0,41,42
 922 339 922 339 835 63 c 0,43,44
 827 37 827 37 816.5 19 c 128,-1,45
 806 1 806 1 783 -4 c 0,0,1
458 172 m 1,46,47
 557 176 557 176 629 193 c 1,48,49
 695 454 695 454 695 612 c 0,50,51
 695 707 695 707 676 750 c 1,52,-1
 669 752 l 1,53,-1
 458 172 l 1,46,47
EndSplineSet
EndChar

StartChar: ugrave
Encoding: 249 249 206
Width: 1024
GlyphClass: 2
Flags: W
LayerCount: 2
Fore
SplineSet
588 1117 m 1,0,1
 540 1145 540 1145 503 1173 c 0,2,3
 348 1294 348 1294 303 1344 c 0,4,5
 235 1419 235 1419 215 1455 c 1,6,-1
 410 1591 l 1,7,-1
 697 1220 l 1,8,-1
 588 1117 l 1,0,1
257 10 m 1,9,10
 230 13 230 13 198 49 c 1,11,12
 146 104 146 104 144 153 c 2,13,-1
 124 975 l 1,14,-1
 358 1000 l 1,15,-1
 382 226 l 1,16,17
 416 209 416 209 456 209 c 0,18,19
 514 209 514 209 641 270 c 1,20,-1
 664 985 l 1,21,-1
 895 985 l 1,22,-1
 880 10 l 1,23,-1
 714 -10 l 1,24,-1
 671 150 l 1,25,-1
 462 2 l 1,26,-1
 257 10 l 1,9,10
EndSplineSet
EndChar

StartChar: uacute
Encoding: 250 250 207
Width: 1024
GlyphClass: 2
Flags: W
LayerCount: 2
Fore
SplineSet
348 1220 m 1,0,-1
 637 1589 l 1,1,-1
 811 1425 l 1,2,3
 762 1354 762 1354 664 1270 c 1,4,5
 531 1161 531 1161 456 1117 c 1,6,-1
 348 1220 l 1,0,-1
257 10 m 1,7,8
 230 13 230 13 198 49 c 1,9,10
 146 104 146 104 144 153 c 2,11,-1
 124 975 l 1,12,-1
 358 1000 l 1,13,-1
 382 226 l 1,14,15
 416 209 416 209 456 209 c 0,16,17
 514 209 514 209 641 270 c 1,18,-1
 664 985 l 1,19,-1
 895 985 l 1,20,-1
 880 10 l 1,21,-1
 714 -10 l 1,22,-1
 671 150 l 1,23,-1
 462 2 l 1,24,-1
 257 10 l 1,7,8
EndSplineSet
EndChar

StartChar: ucircumflex
Encoding: 251 251 208
Width: 1024
GlyphClass: 2
Flags: W
LayerCount: 2
Fore
SplineSet
508 1316 m 1,0,1
 408 1208 408 1208 305 1134 c 1,2,-1
 196 1232 l 1,3,-1
 420 1529 l 1,4,-1
 610 1535 l 1,5,-1
 841 1230 l 1,6,-1
 717 1134 l 1,7,8
 599 1232 599 1232 569 1259 c 2,9,-1
 508 1316 l 1,0,1
257 10 m 1,10,11
 230 13 230 13 198 49 c 1,12,13
 146 104 146 104 144 153 c 2,14,-1
 124 975 l 1,15,-1
 358 1000 l 1,16,-1
 382 226 l 1,17,18
 416 209 416 209 456 209 c 0,19,20
 514 209 514 209 641 270 c 1,21,-1
 664 985 l 1,22,-1
 895 985 l 1,23,-1
 880 10 l 1,24,-1
 714 -10 l 1,25,-1
 671 150 l 1,26,-1
 462 2 l 1,27,-1
 257 10 l 1,10,11
EndSplineSet
EndChar

StartChar: udieresis
Encoding: 252 252 209
Width: 1024
GlyphClass: 2
Flags: W
LayerCount: 2
Fore
SplineSet
414 1453 m 1,0,1
 449 1395 449 1395 449 1262 c 0,2,3
 449 1191 449 1191 436 1167 c 1,4,-1
 238 1156 l 1,5,6
 221 1302 221 1302 197 1398 c 1,7,-1
 414 1453 l 1,0,1
807 1443 m 1,8,9
 822 1411 822 1411 822 1367.5 c 128,-1,10
 822 1324 822 1324 817.5 1291.5 c 128,-1,11
 813 1259 813 1259 806 1230 c 0,12,13
 793 1169 793 1169 774 1142 c 1,14,-1
 571 1177 l 1,15,16
 589 1256 589 1256 589 1320 c 128,-1,17
 589 1384 589 1384 584 1427 c 1,18,-1
 807 1443 l 1,8,9
257 10 m 1,19,20
 230 13 230 13 198 49 c 1,21,22
 146 104 146 104 144 153 c 2,23,-1
 124 975 l 1,24,-1
 358 1000 l 1,25,-1
 382 226 l 1,26,27
 416 209 416 209 456 209 c 0,28,29
 514 209 514 209 641 270 c 1,30,-1
 664 985 l 1,31,-1
 895 985 l 1,32,-1
 880 10 l 1,33,-1
 714 -10 l 1,34,-1
 671 150 l 1,35,-1
 462 2 l 1,36,-1
 257 10 l 1,19,20
EndSplineSet
EndChar

StartChar: yacute
Encoding: 253 253 210
Width: 1030
GlyphClass: 2
Flags: W
LayerCount: 2
Fore
SplineSet
352 1220 m 1,0,-1
 641 1589 l 1,1,-1
 815 1425 l 1,2,3
 766 1354 766 1354 668 1270 c 1,4,5
 535 1161 535 1161 460 1117 c 1,6,-1
 352 1220 l 1,0,-1
131 981 m 1,7,-1
 368 1030 l 1,8,-1
 387 223 l 1,9,10
 429 209 429 209 452.5 209 c 128,-1,11
 476 209 476 209 492.5 209.5 c 128,-1,12
 509 210 509 210 532 214 c 0,13,14
 586 225 586 225 647 256 c 1,15,-1
 655 971 l 1,16,-1
 882 999 l 1,17,-1
 894 -126 l 2,18,19
 894 -177 894 -177 828 -223 c 0,20,21
 663 -338 663 -338 585 -387 c 2,22,-1
 440 -476 l 1,23,24
 373 -515 373 -515 308 -549 c 1,25,-1
 186 -330 l 1,26,27
 546 -162 546 -162 678 -82 c 1,28,-1
 663 164 l 1,29,-1
 514 0 l 1,30,-1
 258 0 l 1,31,32
 228 3 228 3 196 29 c 0,33,34
 149 68 149 68 149 113 c 2,35,-1
 131 981 l 1,7,-1
EndSplineSet
EndChar

StartChar: thorn
Encoding: 254 254 211
Width: 1005
GlyphClass: 2
Flags: W
LayerCount: 2
Fore
SplineSet
145 1427 m 1,0,-1
 387 1473 l 1,1,-1
 391 764 l 1,2,-1
 372 188 l 1,3,-1
 585 219 l 1,4,5
 645 440 645 440 645 651 c 0,6,7
 645 716 645 716 639 756 c 1,8,9
 588 772 588 772 450 779 c 1,10,-1
 501 1004 l 1,11,12
 713 990 713 990 778.5 969 c 128,-1,13
 844 948 844 948 860 926 c 1,14,15
 890 881 890 881 890 708 c 0,16,17
 890 362 890 362 801 90 c 0,18,19
 782 31 782 31 737 25 c 2,20,-1
 397 -23 l 1,21,-1
 379 -508 l 1,22,-1
 168 -522 l 1,23,-1
 162 328 l 1,24,-1
 145 1427 l 1,0,-1
EndSplineSet
EndChar

StartChar: ydieresis
Encoding: 255 255 212
Width: 1030
GlyphClass: 2
Flags: W
LayerCount: 2
Fore
SplineSet
418 1453 m 1,0,1
 453 1395 453 1395 453 1262 c 0,2,3
 453 1191 453 1191 440 1167 c 1,4,-1
 242 1156 l 1,5,6
 225 1302 225 1302 201 1398 c 1,7,-1
 418 1453 l 1,0,1
811 1443 m 1,8,9
 826 1411 826 1411 826 1367.5 c 128,-1,10
 826 1324 826 1324 821.5 1291.5 c 128,-1,11
 817 1259 817 1259 810 1230 c 0,12,13
 797 1169 797 1169 778 1142 c 1,14,-1
 575 1177 l 1,15,16
 593 1256 593 1256 593 1320 c 128,-1,17
 593 1384 593 1384 588 1427 c 1,18,-1
 811 1443 l 1,8,9
131 981 m 1,19,-1
 368 1030 l 1,20,-1
 387 223 l 1,21,22
 429 209 429 209 452.5 209 c 128,-1,23
 476 209 476 209 492.5 209.5 c 128,-1,24
 509 210 509 210 532 214 c 0,25,26
 586 225 586 225 647 256 c 1,27,-1
 655 971 l 1,28,-1
 882 999 l 1,29,-1
 894 -126 l 2,30,31
 894 -177 894 -177 828 -223 c 0,32,33
 663 -338 663 -338 585 -387 c 2,34,-1
 440 -476 l 1,35,36
 373 -515 373 -515 308 -549 c 1,37,-1
 186 -330 l 1,38,39
 546 -162 546 -162 678 -82 c 1,40,-1
 663 164 l 1,41,-1
 514 0 l 1,42,-1
 258 0 l 1,43,44
 228 3 228 3 196 29 c 0,45,46
 149 68 149 68 149 113 c 2,47,-1
 131 981 l 1,19,-1
EndSplineSet
EndChar

StartChar: hbar
Encoding: 295 295 213
Width: 1012
GlyphClass: 2
Flags: W
LayerCount: 2
Fore
SplineSet
645 555 m 1,0,1
 645 698 645 698 633 764 c 1,2,-1
 563 764 l 2,3,4
 503 764 503 764 470 752 c 0,5,6
 417 734 417 734 385 719 c 1,7,-1
 370 12 l 1,8,-1
 153 0 l 1,9,10
 150 385 150 385 142 582 c 0,11,12
 130 847 130 847 130 1040 c 2,13,-1
 130 1097 l 1,14,15
 37 1104 37 1104 -2 1110 c 1,16,-1
 10 1245 l 1,17,18
 68 1242 68 1242 131 1242 c 1,19,20
 132 1287 132 1287 132.5 1332 c 128,-1,21
 133 1377 133 1377 135 1425 c 1,22,-1
 374 1475 l 1,23,-1
 378 1247 l 1,24,25
 554 1254 554 1254 721 1266 c 1,26,-1
 702 1102 l 1,27,28
 624 1093 624 1093 380 1093 c 1,29,-1
 385 842 l 1,30,-1
 544 983 l 1,31,-1
 766 983 l 2,32,33
 803 983 803 983 834 955 c 0,34,35
 889 904 889 904 891 865 c 128,-1,36
 893 826 893 826 893 786 c 2,37,-1
 893 708 l 2,38,39
 893 574 893 574 889 516 c 2,40,-1
 858 -35 l 1,41,-1
 636 -72 l 1,42,-1
 645 555 l 1,0,1
EndSplineSet
EndChar

StartChar: Itilde
Encoding: 296 296 214
Width: 784
GlyphClass: 2
Flags: W
LayerCount: 2
Fore
SplineSet
47 1535 m 1,0,1
 87 1595 87 1595 139 1643 c 0,2,3
 235 1732 235 1732 268.5 1732 c 128,-1,4
 302 1732 302 1732 336.5 1718 c 128,-1,5
 371 1704 371 1704 404 1687 c 2,6,-1
 463 1656 l 2,7,8
 490 1642 490 1642 497 1642 c 128,-1,9
 504 1642 504 1642 508.5 1644 c 128,-1,10
 513 1646 513 1646 528 1655.5 c 128,-1,11
 543 1665 543 1665 572 1686 c 2,12,-1
 655 1744 l 1,13,-1
 731 1650 l 1,14,-1
 687 1586 l 1,15,16
 573 1423 573 1423 488 1423 c 0,17,18
 446 1423 446 1423 389.5 1454.5 c 128,-1,19
 333 1486 333 1486 309 1500.5 c 128,-1,20
 285 1515 285 1515 280 1515 c 128,-1,21
 275 1515 275 1515 270.5 1513.5 c 128,-1,22
 266 1512 266 1512 250 1505 c 2,23,-1
 111 1443 l 1,24,-1
 47 1535 l 1,0,1
696 1096 m 1,25,-1
 524 1077 l 1,26,-1
 526 653 l 1,27,-1
 497 189 l 1,28,-1
 680 182 l 1,29,-1
 663 -25 l 1,30,31
 308 -20 308 -20 92 18 c 1,32,-1
 112 205 l 1,33,-1
 285 198 l 1,34,-1
 270 1061 l 1,35,36
 178 1057 178 1057 86 1051 c 1,37,-1
 67 1243 l 1,38,39
 236 1270 236 1270 415 1281 c 2,40,-1
 669 1298 l 1,41,-1
 696 1096 l 1,25,-1
EndSplineSet
EndChar

StartChar: itilde
Encoding: 297 297 215
Width: 596
GlyphClass: 2
Flags: W
LayerCount: 2
Fore
SplineSet
-31 1244 m 1,0,1
 9 1304 9 1304 61 1352 c 0,2,3
 157 1441 157 1441 190.5 1441 c 128,-1,4
 224 1441 224 1441 258.5 1427 c 128,-1,5
 293 1413 293 1413 326 1396 c 2,6,-1
 385 1365 l 2,7,8
 412 1351 412 1351 419 1351 c 128,-1,9
 426 1351 426 1351 430.5 1353 c 128,-1,10
 435 1355 435 1355 450 1364.5 c 128,-1,11
 465 1374 465 1374 494 1394 c 2,12,-1
 577 1453 l 1,13,-1
 653 1359 l 1,14,-1
 609 1294 l 1,15,16
 495 1132 495 1132 410 1132 c 0,17,18
 368 1132 368 1132 311.5 1163.5 c 128,-1,19
 255 1195 255 1195 231 1209.5 c 128,-1,20
 207 1224 207 1224 202 1224 c 128,-1,21
 197 1224 197 1224 192.5 1222.5 c 128,-1,22
 188 1221 188 1221 172 1214 c 2,23,-1
 33 1152 l 1,24,-1
 -31 1244 l 1,0,1
420 1001 m 1,25,26
 425 898 425 898 425 828 c 128,-1,27
 425 758 425 758 422 664 c 2,28,-1
 399 0 l 1,29,-1
 186 -18 l 1,30,-1
 166 969 l 1,31,-1
 420 1001 l 1,25,26
EndSplineSet
EndChar

StartChar: dotlessi
Encoding: 305 305 216
Width: 596
GlyphClass: 2
Flags: W
LayerCount: 2
Fore
SplineSet
420 1001 m 1,0,1
 425 898 425 898 425 828 c 128,-1,2
 425 758 425 758 422 664 c 2,3,-1
 399 0 l 1,4,-1
 186 -18 l 1,5,-1
 166 969 l 1,6,-1
 420 1001 l 1,0,1
EndSplineSet
EndChar

StartChar: IJ
Encoding: 306 306 217
Width: 1464
GlyphClass: 2
Flags: W
LayerCount: 2
Fore
SplineSet
1321 1100 m 2,0,-1
 1317 453 l 1,1,-1
 1317 262 l 2,2,3
 1317 215 1317 215 1299.5 189 c 128,-1,4
 1282 163 1282 163 1266 147 c 2,5,-1
 1233 113 l 1,6,7
 1164 44 1164 44 1000 -53 c 0,8,9
 956 -79 956 -79 917 -98 c 1,10,-1
 786 94 l 1,11,-1
 944 192 l 1,12,13
 1050 260 1050 260 1089 299 c 1,14,-1
 1065 711 l 1,15,-1
 1065 1063 l 1,16,-1
 821 1090 l 1,17,-1
 858 1315 l 1,18,19
 919 1307 919 1307 980 1299 c 128,-1,20
 1041 1291 1041 1291 1100 1282 c 0,21,22
 1238 1259 1238 1259 1315 1235 c 1,23,24
 1321 1195 1321 1195 1321 1100 c 2,0,-1
513 169 m 1,25,26
 586 162 586 162 692 156 c 1,27,-1
 661 -61 l 1,28,29
 421 -49 421 -49 205 -2 c 0,30,31
 137 12 137 12 86 29 c 1,32,-1
 119 221 l 1,33,34
 192 206 192 206 302 191 c 1,35,-1
 281 1063 l 1,36,-1
 98 1073 l 1,37,-1
 90 1260 l 1,38,39
 474 1271 474 1271 696 1298 c 1,40,-1
 704 1102 l 1,41,-1
 541 1073 l 1,42,-1
 543 653 l 1,43,-1
 513 169 l 1,25,26
EndSplineSet
EndChar

StartChar: ij
Encoding: 307 307 218
Width: 1059
GlyphClass: 2
Flags: W
LayerCount: 2
Fore
SplineSet
935 1505 m 1,0,1
 945 1463 945 1463 945 1416.5 c 128,-1,2
 945 1370 945 1370 942 1336.5 c 128,-1,3
 939 1303 939 1303 934 1274 c 0,4,5
 925 1211 925 1211 912 1187 c 1,6,-1
 683 1197 l 1,7,8
 699 1296 699 1296 699 1478 c 1,9,-1
 935 1505 l 1,0,1
399 1505 m 1,10,11
 410 1466 410 1466 410 1417.5 c 128,-1,12
 410 1369 410 1369 407 1335.5 c 128,-1,13
 404 1302 404 1302 400 1273 c 0,14,15
 390 1210 390 1210 377 1187 c 1,16,-1
 147 1197 l 1,17,18
 164 1285 164 1285 164 1478 c 1,19,-1
 399 1505 l 1,10,11
391 1001 m 1,20,21
 396 898 396 898 396 828 c 128,-1,22
 396 758 396 758 393 664 c 2,23,-1
 370 0 l 1,24,-1
 157 -18 l 1,25,-1
 137 969 l 1,26,-1
 391 1001 l 1,20,21
925 999 m 1,27,28
 930 896 930 896 930 827 c 128,-1,29
 930 758 930 758 927 664 c 1,30,-1
 915 -188 l 1,31,32
 909 -283 909 -283 831 -352 c 2,33,-1
 603 -551 l 1,34,-1
 448 -372 l 1,35,-1
 693 -178 l 1,36,-1
 673 967 l 1,37,-1
 925 999 l 1,27,28
EndSplineSet
EndChar

StartChar: Jcircumflex
Encoding: 308 308 219
Width: 704
GlyphClass: 2
Flags: W
LayerCount: 2
Fore
SplineSet
328 1580 m 1,0,1
 228 1472 228 1472 125 1398 c 1,2,-1
 16 1496 l 1,3,-1
 240 1793 l 1,4,-1
 430 1799 l 1,5,-1
 661 1494 l 1,6,-1
 537 1398 l 1,7,8
 419 1496 419 1496 389 1523 c 2,9,-1
 328 1580 l 1,0,1
26 -55 m 1,10,11
 138 3 138 3 217.5 62 c 128,-1,12
 297 121 297 121 319 143 c 1,13,-1
 305 711 l 1,14,-1
 305 1063 l 1,15,-1
 61 1090 l 1,16,-1
 98 1315 l 1,17,-1
 222 1299 l 2,18,19
 462 1269 462 1269 569 1235 c 1,20,-1
 545 113 l 2,21,22
 545 67 545 67 528 42 c 0,23,24
 490 -16 490 -16 431 -63 c 128,-1,25
 372 -110 372 -110 330 -140 c 0,26,27
 230 -212 230 -212 158 -248 c 1,28,-1
 26 -55 l 1,10,11
EndSplineSet
EndChar

StartChar: jcircumflex
Encoding: 309 309 220
Width: 549
GlyphClass: 2
Flags: W
LayerCount: 2
Fore
SplineSet
246 1316 m 1,0,1
 146 1208 146 1208 43 1134 c 1,2,-1
 -66 1232 l 1,3,-1
 158 1529 l 1,4,-1
 348 1535 l 1,5,-1
 579 1230 l 1,6,-1
 455 1134 l 1,7,8
 337 1232 337 1232 307 1259 c 2,9,-1
 246 1316 l 1,0,1
387 999 m 1,10,11
 392 896 392 896 392 827 c 128,-1,12
 392 758 392 758 389 664 c 1,13,-1
 377 -207 l 1,14,15
 373 -273 373 -273 345.5 -311 c 128,-1,16
 318 -349 318 -349 293 -371 c 2,17,-1
 65 -569 l 1,18,-1
 -92 -393 l 1,19,-1
 155 -182 l 1,20,-1
 135 967 l 1,21,-1
 387 999 l 1,10,11
EndSplineSet
EndChar

StartChar: kcommaaccent
Encoding: 311 311 221
Width: 991
GlyphClass: 2
Flags: W
LayerCount: 2
Fore
SplineSet
141 1427 m 1,0,-1
 383 1473 l 1,1,-1
 387 812 l 1,2,-1
 381 611 l 1,3,-1
 415 604 l 1,4,-1
 753 1040 l 1,5,-1
 930 903 l 1,6,7
 894 849 894 849 852 802 c 1,8,-1
 766 709 l 1,9,10
 722 664 722 664 680 626 c 1,11,-1
 596 553 l 1,12,13
 609 541 609 541 637 512 c 0,14,15
 895 234 895 234 983 74 c 1,16,-1
 786 -66 l 1,17,-1
 442 453 l 1,18,-1
 373 420 l 1,19,-1
 356 8 l 1,20,-1
 145 -8 l 1,21,-1
 141 1427 l 1,0,-1
674 -270 m 0,22,23
 674 -461 674 -461 563 -604 c 1,24,-1
 434 -594 l 1,25,26
 477 -482 477 -482 481 -375 c 1,27,-1
 407 -365 l 1,28,-1
 389 -176 l 1,29,-1
 647 -119 l 1,30,31
 674 -191 674 -191 674 -270 c 0,22,23
EndSplineSet
EndChar

StartChar: kgreenlandic
Encoding: 312 312 222
Width: 991
GlyphClass: 2
Flags: W
LayerCount: 2
Fore
SplineSet
141 995 m 1,0,-1
 383 1040 l 1,1,-1
 387 752 l 1,2,-1
 381 611 l 1,3,-1
 415 604 l 1,4,-1
 753 1040 l 1,5,-1
 925 907 l 1,6,7
 832 764 832 764 680 626 c 1,8,-1
 596 553 l 1,9,10
 609 541 609 541 637 512 c 0,11,12
 895 234 895 234 983 74 c 1,13,-1
 788 -68 l 1,14,-1
 442 453 l 1,15,-1
 373 420 l 1,16,-1
 356 8 l 1,17,-1
 145 -8 l 1,18,-1
 141 995 l 1,0,-1
291 381 m 1,19,20
 291 380 291 380 291.5 380 c 128,-1,21
 292 380 292 380 292 381 c 1,22,-1
 291 381 l 1,19,20
EndSplineSet
EndChar

StartChar: ldot
Encoding: 320 320 223
Width: 786
GlyphClass: 2
Flags: W
LayerCount: 2
Fore
SplineSet
136 1427 m 1,0,-1
 384 1473 l 1,1,-1
 391 752 l 1,2,-1
 360 0 l 1,3,-1
 149 -18 l 1,4,-1
 136 1427 l 1,0,-1
773 730 m 0,5,6
 773 585 773 585 743 530 c 1,7,-1
 514 553 l 1,8,9
 522 686 522 686 522 735.5 c 128,-1,10
 522 785 522 785 520 815 c 1,11,-1
 762 840 l 1,12,13
 773 798 773 798 773 730 c 0,5,6
EndSplineSet
EndChar

StartChar: Lslash
Encoding: 321 321 224
Width: 782
GlyphClass: 2
Flags: W
LayerCount: 2
Fore
SplineSet
166 513 m 1,0,1
 140 502 140 502 112 492 c 2,2,-1
 61 473 l 1,3,-1
 35 632 l 1,4,-1
 166 692 l 1,5,-1
 166 1260 l 1,6,-1
 418 1300 l 1,7,-1
 418 821 l 1,8,9
 418 821 418 821 619 936 c 1,10,-1
 689 750 l 1,11,12
 654 724 654 724 593 695 c 0,13,14
 461 634 461 634 409 613 c 1,15,-1
 387 264 l 1,16,17
 464 234 464 234 595 216.5 c 128,-1,18
 726 199 726 199 753 195 c 1,19,-1
 696 -27 l 1,20,21
 589 -13 589 -13 523 -1 c 2,22,-1
 406 21 l 2,23,24
 225 56 225 56 166 84 c 1,25,-1
 166 513 l 1,0,1
EndSplineSet
EndChar

StartChar: lslash
Encoding: 322 322 225
Width: 659
GlyphClass: 2
Flags: W
LayerCount: 2
Fore
SplineSet
204 631 m 1,0,1
 186 621 186 621 164 610 c 0,2,3
 70 565 70 565 49 559 c 1,4,-1
 16 735 l 1,5,-1
 202 823 l 1,6,-1
 198 1427 l 1,7,-1
 440 1473 l 1,8,-1
 447 949 l 1,9,-1
 598 1042 l 1,10,-1
 674 866 l 1,11,12
 633 839 633 839 587 815 c 2,13,-1
 510 775 l 2,14,15
 478 759 478 759 450 748 c 1,16,-1
 420 0 l 1,17,-1
 209 -18 l 1,18,-1
 204 631 l 1,0,1
EndSplineSet
EndChar

StartChar: Nacute
Encoding: 323 323 226
Width: 1345
GlyphClass: 2
Flags: W
LayerCount: 2
Fore
SplineSet
168 110 m 2,0,1
 168 416 168 416 177 780 c 1,2,-1
 158 1227 l 1,3,4
 177 1231 177 1231 208 1237 c 2,5,6
 208 1237 208 1237 278 1250 c 0,7,8
 316 1257 316 1257 358 1264 c 2,9,-1
 442 1278 l 1,10,11
 515 1289 515 1289 592 1294 c 1,12,-1
 856 459 l 1,13,-1
 917 172 l 1,14,-1
 975 178 l 1,15,-1
 962 500 l 1,16,-1
 971 1278 l 1,17,-1
 1227 1300 l 1,18,19
 1219 999 1219 999 1177 518 c 1,20,-1
 1162 27 l 1,21,22
 983 -6 983 -6 753 -18 c 1,23,-1
 489 827 l 1,24,-1
 430 1091 l 1,25,-1
 377 1083 l 1,26,-1
 387 782 l 1,27,-1
 397 2 l 1,28,-1
 168 -18 l 1,29,-1
 168 110 l 2,0,1
550 1519 m 1,30,-1
 903 1820 l 1,31,-1
 1052 1634 l 1,32,33
 999 1569 999 1569 904 1515 c 0,34,35
 737 1420 737 1420 630 1396 c 1,36,-1
 550 1519 l 1,30,-1
EndSplineSet
EndChar

StartChar: nacute
Encoding: 324 324 227
Width: 1024
GlyphClass: 2
Flags: W
LayerCount: 2
Fore
SplineSet
348 1220 m 1,0,-1
 637 1589 l 1,1,-1
 811 1425 l 1,2,3
 762 1354 762 1354 664 1270 c 1,4,5
 531 1161 531 1161 456 1117 c 1,6,-1
 348 1220 l 1,0,-1
137 956 m 1,7,-1
 350 983 l 1,8,-1
 385 831 l 1,9,-1
 561 983 l 1,10,-1
 807 983 l 2,11,12
 826 983 826 983 860 954 c 0,13,14
 917 907 917 907 917 870 c 1,15,-1
 882 -2 l 1,16,-1
 659 -20 l 1,17,-1
 655 752 l 1,18,19
 643 756 643 756 622 756 c 128,-1,20
 601 756 601 756 583.5 754 c 128,-1,21
 566 752 566 752 546 748 c 0,22,23
 499 740 499 740 469 729 c 2,24,-1
 395 702 l 1,25,-1
 368 8 l 1,26,-1
 155 -8 l 1,27,-1
 137 956 l 1,7,-1
EndSplineSet
EndChar

StartChar: OE
Encoding: 338 338 228
Width: 1577
GlyphClass: 2
Flags: W
LayerCount: 2
Fore
SplineSet
993 225 m 1,0,-1
 1479 152 l 1,1,-1
 1425 -68 l 1,2,-1
 1295 -50 l 1,3,4
 1004 -8 1004 -8 848 38 c 1,5,6
 745 6 745 6 631 -5 c 128,-1,7
 517 -16 517 -16 478 -16 c 0,8,9
 371 -16 371 -16 329 -6 c 128,-1,10
 287 4 287 4 263 21 c 128,-1,11
 239 38 239 38 219.5 89.5 c 128,-1,12
 200 141 200 141 182 228.5 c 128,-1,13
 164 316 164 316 152 414 c 0,14,15
 129 614 129 614 129 744.5 c 128,-1,16
 129 875 129 875 132 944 c 128,-1,17
 135 1013 135 1013 153 1072 c 0,18,19
 193 1203 193 1203 315 1245 c 1,20,21
 417 1282 417 1282 633 1282 c 128,-1,22
 849 1282 849 1282 907 1207 c 1,23,24
 1195 1296 1195 1296 1434 1317 c 1,25,-1
 1468 1079 l 1,26,-1
 989 1016 l 1,27,-1
 999 725 l 1,28,-1
 1446 743 l 1,29,-1
 1436 500 l 1,30,-1
 1001 522 l 1,31,-1
 993 225 l 1,0,-1
442 213 m 1,32,33
 456 211 456 211 470 211 c 2,34,-1
 500 211 l 2,35,36
 616 211 616 211 766 242 c 1,37,38
 773 417 773 417 773 542 c 0,39,40
 773 804 773 804 750 1038 c 1,41,42
 628 1048 628 1048 571 1048 c 0,43,44
 456 1048 456 1048 401 1028 c 1,45,46
 389 960 389 960 389 692.5 c 128,-1,47
 389 425 389 425 442 213 c 1,32,33
EndSplineSet
EndChar

StartChar: oe
Encoding: 339 339 229
Width: 1449
GlyphClass: 2
Flags: W
LayerCount: 2
Fore
SplineSet
825 288 m 1,0,1
 1104 191 1104 191 1313 147 c 1,2,-1
 1254 -72 l 1,3,4
 1076 -38 1076 -38 850 52 c 2,5,-1
 745 94 l 1,6,7
 728 47 728 47 715 33 c 0,8,9
 692 10 692 10 664 4 c 128,-1,10
 636 -2 636 -2 616.5 -4.5 c 128,-1,11
 597 -7 597 -7 574 -9 c 0,12,13
 518 -14 518 -14 496 -14 c 128,-1,14
 474 -14 474 -14 442 -13.5 c 128,-1,15
 410 -13 410 -13 372 -12 c 0,16,17
 273 -8 273 -8 238 4 c 128,-1,18
 203 16 203 16 191.5 45 c 128,-1,19
 180 74 180 74 168 140 c 0,20,21
 140 284 140 284 140 481 c 0,22,23
 140 555 140 555 144 625 c 1,24,-1
 375 670 l 1,25,-1
 374 588 l 1,26,27
 374 377 374 377 398 199 c 1,28,-1
 578 209 l 1,29,30
 629 393 629 393 629 600 c 0,31,32
 629 694 629 694 619 750 c 1,33,34
 568 778 568 778 212 778 c 2,35,-1
 152 778 l 2,36,37
 123 778 123 778 97 776 c 1,38,-1
 128 1001 l 1,39,40
 197 1007 197 1007 262 1007 c 128,-1,41
 327 1007 327 1007 382 1004.5 c 128,-1,42
 437 1002 437 1002 488 997 c 0,43,44
 688 978 688 978 738 944 c 0,45,46
 767 925 767 925 787 902 c 1,47,48
 1002 1012 1002 1012 1123 1012 c 0,49,50
 1227 1012 1227 1012 1274 966 c 0,51,52
 1291 950 1291 950 1294.5 928.5 c 128,-1,53
 1298 907 1298 907 1303.5 869 c 128,-1,54
 1309 831 1309 831 1314 772 c 0,55,56
 1328 627 1328 627 1328 446 c 2,57,-1
 1328 387 l 1,58,-1
 835 383 l 1,59,60
 831 336 831 336 825 288 c 1,0,1
1102 586 m 1,61,-1
 1103 612 l 1,62,63
 1103 662 1103 662 1097 701 c 2,64,-1
 1084 782 l 1,65,66
 989 782 989 782 879 735 c 0,67,68
 858 726 858 726 849 719 c 1,69,-1
 849 559 l 1,70,-1
 1102 586 l 1,61,-1
EndSplineSet
EndChar

StartChar: Racute
Encoding: 340 340 230
Width: 1116
GlyphClass: 2
Flags: W
LayerCount: 2
Fore
SplineSet
380 1519 m 1,0,-1
 733 1820 l 1,1,-1
 882 1634 l 1,2,3
 829 1569 829 1569 734 1515 c 0,4,5
 567 1420 567 1420 460 1396 c 1,6,-1
 380 1519 l 1,0,-1
187 932 m 1,7,-1
 430 973 l 1,8,-1
 430 772 l 1,9,-1
 424 530 l 1,10,-1
 711 600 l 1,11,12
 772 793 772 793 772 950 c 0,13,14
 772 983 772 983 768 1012 c 1,15,16
 599 1065 599 1065 101 1085 c 1,17,-1
 139 1321 l 1,18,19
 566 1304 566 1304 879 1239 c 0,20,21
 906 1233 906 1233 966 1160 c 1,22,23
 1023 1088 1023 1088 1025.5 1059 c 128,-1,24
 1028 1030 1028 1030 1028 1002 c 2,25,-1
 1028 946 l 2,26,27
 1028 816 1028 816 962 610 c 0,28,29
 926 498 926 498 892 466 c 0,30,31
 875 451 875 451 862 444 c 1,32,-1
 764 412 l 1,33,34
 910 253 910 253 1034 63 c 1,35,-1
 826 -78 l 1,36,-1
 576 362 l 1,37,-1
 430 354 l 1,38,-1
 422 0 l 1,39,-1
 205 -18 l 1,40,-1
 187 932 l 1,7,-1
EndSplineSet
EndChar

StartChar: Rcommaaccent
Encoding: 342 342 231
Width: 1116
GlyphClass: 2
Flags: W
LayerCount: 2
Fore
SplineSet
187 932 m 1,0,-1
 430 973 l 1,1,-1
 430 772 l 1,2,-1
 424 530 l 1,3,-1
 711 600 l 1,4,5
 772 793 772 793 772 950 c 0,6,7
 772 983 772 983 768 1012 c 1,8,9
 599 1065 599 1065 101 1085 c 1,10,-1
 139 1321 l 1,11,12
 566 1304 566 1304 879 1239 c 0,13,14
 906 1233 906 1233 966 1160 c 1,15,16
 1023 1088 1023 1088 1025.5 1059 c 128,-1,17
 1028 1030 1028 1030 1028 1002 c 2,18,-1
 1028 946 l 2,19,20
 1028 816 1028 816 962 610 c 0,21,22
 926 498 926 498 892 466 c 0,23,24
 875 451 875 451 862 444 c 1,25,-1
 764 412 l 1,26,27
 910 253 910 253 1034 63 c 1,28,-1
 826 -78 l 1,29,-1
 576 362 l 1,30,-1
 430 354 l 1,31,-1
 422 0 l 1,32,-1
 205 -18 l 1,33,-1
 187 932 l 1,0,-1
699 -270 m 0,34,35
 699 -461 699 -461 588 -604 c 1,36,-1
 459 -594 l 1,37,38
 502 -482 502 -482 506 -375 c 1,39,-1
 432 -365 l 1,40,-1
 414 -176 l 1,41,-1
 672 -119 l 1,42,43
 699 -191 699 -191 699 -270 c 0,34,35
EndSplineSet
EndChar

StartChar: rcommaaccent
Encoding: 343 343 232
Width: 702
GlyphClass: 2
Flags: W
LayerCount: 2
Fore
SplineSet
137 776 m 1,0,-1
 135 961 l 1,1,-1
 348 983 l 1,2,-1
 383 831 l 1,3,-1
 536 999 l 1,4,-1
 655 999 l 1,5,-1
 705 765 l 1,6,7
 705 765 705 765 548 731 c 0,8,9
 473 715 473 715 393 696 c 1,10,-1
 379 12 l 1,11,-1
 153 -8 l 1,12,-1
 137 776 l 1,0,-1
426 -284 m 0,13,14
 426 -475 426 -475 315 -618 c 1,15,-1
 186 -608 l 1,16,17
 229 -496 229 -496 233 -389 c 1,18,-1
 159 -379 l 1,19,-1
 141 -190 l 1,20,-1
 399 -133 l 1,21,22
 426 -205 426 -205 426 -284 c 0,13,14
EndSplineSet
EndChar

StartChar: Rcaron
Encoding: 344 344 233
Width: 1116
GlyphClass: 2
Flags: W
LayerCount: 2
Fore
SplineSet
559 1638 m 1,0,1
 659 1746 659 1746 762 1820 c 1,2,-1
 868 1724 l 1,3,-1
 639 1437 l 1,4,-1
 457 1419 l 1,5,-1
 225 1724 l 1,6,-1
 350 1820 l 1,7,8
 469 1721 469 1721 498 1695 c 2,9,-1
 559 1638 l 1,0,1
187 932 m 1,10,-1
 430 973 l 1,11,-1
 430 772 l 1,12,-1
 424 530 l 1,13,-1
 711 600 l 1,14,15
 772 793 772 793 772 950 c 0,16,17
 772 983 772 983 768 1012 c 1,18,19
 599 1065 599 1065 101 1085 c 1,20,-1
 139 1321 l 1,21,22
 566 1304 566 1304 879 1239 c 0,23,24
 906 1233 906 1233 966 1160 c 1,25,26
 1023 1088 1023 1088 1025.5 1059 c 128,-1,27
 1028 1030 1028 1030 1028 1002 c 2,28,-1
 1028 946 l 2,29,30
 1028 816 1028 816 962 610 c 0,31,32
 926 498 926 498 892 466 c 0,33,34
 875 451 875 451 862 444 c 1,35,-1
 764 412 l 1,36,37
 910 253 910 253 1034 63 c 1,38,-1
 826 -78 l 1,39,-1
 576 362 l 1,40,-1
 430 354 l 1,41,-1
 422 0 l 1,42,-1
 205 -18 l 1,43,-1
 187 932 l 1,10,-1
EndSplineSet
EndChar

StartChar: rcaron
Encoding: 345 345 234
Width: 702
GlyphClass: 2
Flags: W
LayerCount: 2
Fore
SplineSet
399 1319 m 1,0,1
 510 1439 510 1439 602 1505 c 1,2,-1
 708 1409 l 1,3,-1
 479 1122 l 1,4,-1
 297 1104 l 1,5,-1
 65 1409 l 1,6,-1
 190 1505 l 1,7,8
 266 1442 266 1442 291 1419 c 2,9,-1
 399 1319 l 1,0,1
137 776 m 1,10,-1
 135 961 l 1,11,-1
 348 983 l 1,12,-1
 383 831 l 1,13,-1
 536 999 l 1,14,-1
 655 999 l 1,15,-1
 705 765 l 1,16,-1
 548 731 l 2,17,18
 473 715 473 715 393 696 c 1,19,-1
 379 12 l 1,20,-1
 153 -8 l 1,21,-1
 137 776 l 1,10,-1
EndSplineSet
EndChar

StartChar: circumflex
Encoding: 710 710 235
Width: 692
GlyphClass: 2
Flags: W
LayerCount: 2
Fore
SplineSet
338 1316 m 1,0,1
 238 1208 238 1208 135 1134 c 1,2,-1
 26 1232 l 1,3,-1
 250 1529 l 1,4,-1
 440 1535 l 1,5,-1
 671 1230 l 1,6,-1
 547 1134 l 1,7,8
 429 1232 429 1232 399 1259 c 2,9,-1
 338 1316 l 1,0,1
EndSplineSet
EndChar

StartChar: caron
Encoding: 711 711 236
Width: 682
GlyphClass: 2
Flags: W
LayerCount: 2
Fore
SplineSet
352 1343 m 1,0,1
 452 1451 452 1451 555 1525 c 1,2,-1
 661 1429 l 1,3,-1
 432 1142 l 1,4,-1
 250 1124 l 1,5,-1
 18 1429 l 1,6,-1
 143 1525 l 1,7,8
 262 1426 262 1426 291 1400 c 2,9,-1
 352 1343 l 1,0,1
EndSplineSet
EndChar

StartChar: ring
Encoding: 730 730 237
Width: 672
GlyphClass: 2
Flags: W
LayerCount: 2
Fore
SplineSet
337 1115 m 0,0,1
 284 1115 284 1115 240.5 1133 c 128,-1,2
 197 1151 197 1151 166 1184 c 0,3,4
 100 1253 100 1253 100 1363 c 0,5,6
 100 1521 100 1521 244 1564 c 0,7,8
 289 1578 289 1578 339.5 1578 c 128,-1,9
 390 1578 390 1578 431.5 1565.5 c 128,-1,10
 473 1553 473 1553 504 1527 c 0,11,12
 571 1471 571 1471 571 1367 c 0,13,14
 571 1257 571 1257 508 1188 c 0,15,16
 441 1115 441 1115 337 1115 c 0,0,1
338 1279 m 0,17,18
 392 1279 392 1279 405 1349 c 1,19,20
 410 1421 410 1421 337 1421 c 0,21,22
 283 1421 283 1421 269 1384 c 0,23,24
 264 1370 264 1370 266 1353.5 c 128,-1,25
 268 1337 268 1337 271.5 1324 c 128,-1,26
 275 1311 275 1311 282 1301 c 0,27,28
 297 1279 297 1279 338 1279 c 0,17,18
EndSplineSet
EndChar

StartChar: tilde
Encoding: 732 732 238
Width: 807
GlyphClass: 2
Flags: W
LayerCount: 2
Fore
SplineSet
63 1244 m 1,0,1
 103 1304 103 1304 155 1352 c 0,2,3
 251 1441 251 1441 284.5 1441 c 128,-1,4
 318 1441 318 1441 352.5 1427 c 128,-1,5
 387 1413 387 1413 420 1396 c 2,6,-1
 479 1365 l 2,7,8
 506 1351 506 1351 513 1351 c 128,-1,9
 520 1351 520 1351 524.5 1353 c 128,-1,10
 529 1355 529 1355 544 1364.5 c 128,-1,11
 559 1374 559 1374 588 1394 c 2,12,-1
 671 1453 l 1,13,-1
 747 1359 l 1,14,-1
 703 1294 l 1,15,16
 589 1132 589 1132 504 1132 c 0,17,18
 462 1132 462 1132 405.5 1163.5 c 128,-1,19
 349 1195 349 1195 325 1209.5 c 128,-1,20
 301 1224 301 1224 296 1224 c 128,-1,21
 291 1224 291 1224 286.5 1222.5 c 128,-1,22
 282 1221 282 1221 266 1214 c 2,23,-1
 127 1152 l 1,24,-1
 63 1244 l 1,0,1
EndSplineSet
EndChar

StartChar: endash
Encoding: 8211 8211 239
Width: 1298
GlyphClass: 2
Flags: W
LayerCount: 2
Fore
SplineSet
153 629 m 1,0,-1
 1183 629 l 1,1,-1
 1165 438 l 1,2,3
 1165 438 1165 438 853 426 c 0,4,5
 690 420 690 420 555 420 c 0,6,7
 287 420 287 420 125 430 c 1,8,-1
 153 629 l 1,0,-1
EndSplineSet
EndChar

StartChar: emdash
Encoding: 8212 8212 240
Width: 2320
GlyphClass: 2
Flags: W
LayerCount: 2
Fore
SplineSet
153 629 m 1,0,-1
 2205 629 l 1,1,-1
 2187 438 l 1,2,3
 1617 420 1617 420 1131 420 c 128,-1,4
 645 420 645 420 556.5 421.5 c 128,-1,5
 468 423 468 423 395 425.5 c 128,-1,6
 322 428 322 428 258 431 c 128,-1,7
 194 434 194 434 125 436 c 1,8,-1
 153 629 l 1,0,-1
EndSplineSet
EndChar

StartChar: quoteleft
Encoding: 8216 8216 241
Width: 520
GlyphClass: 2
Flags: W
LayerCount: 2
Fore
SplineSet
147 748 m 1,0,1
 118 830 118 830 118 922 c 0,2,3
 118 1131 118 1131 239 1298 c 1,4,-1
 407 1327 l 1,5,6
 324 1185 324 1185 319 1028 c 1,7,-1
 395 1016 l 1,8,-1
 418 782 l 1,9,-1
 147 748 l 1,0,1
EndSplineSet
EndChar

StartChar: quoteright
Encoding: 8217 8217 242
Width: 520
GlyphClass: 2
Flags: W
LayerCount: 2
Fore
SplineSet
418 1169 m 0,0,1
 418 933 418 933 295 762 c 1,2,-1
 291 762 l 1,3,-1
 155 786 l 1,4,5
 211 906 211 906 217 1047 c 1,6,-1
 141 1059 l 1,7,-1
 118 1292 l 1,8,-1
 389 1327 l 1,9,10
 418 1245 418 1245 418 1169 c 0,0,1
EndSplineSet
EndChar

StartChar: quotesinglbase
Encoding: 8218 8218 243
Width: 520
GlyphClass: 2
Flags: W
LayerCount: 2
Fore
SplineSet
418 145 m 0,0,1
 418 -91 418 -91 295 -262 c 1,2,-1
 291 -262 l 1,3,-1
 155 -238 l 1,4,5
 211 -118 211 -118 217 23 c 1,6,-1
 141 35 l 1,7,-1
 118 268 l 1,8,-1
 389 303 l 1,9,10
 418 221 418 221 418 145 c 0,0,1
EndSplineSet
EndChar

StartChar: quotedblleft
Encoding: 8220 8220 244
Width: 954
GlyphClass: 2
Flags: W
LayerCount: 2
Fore
SplineSet
581 748 m 1,0,1
 552 830 552 830 552 922 c 0,2,3
 552 1131 552 1131 673 1298 c 1,4,-1
 841 1327 l 1,5,6
 758 1185 758 1185 753 1028 c 1,7,-1
 829 1016 l 1,8,-1
 852 782 l 1,9,-1
 581 748 l 1,0,1
147 748 m 1,10,11
 118 830 118 830 118 922 c 0,12,13
 118 1131 118 1131 239 1298 c 1,14,-1
 407 1327 l 1,15,16
 324 1185 324 1185 319 1028 c 1,17,-1
 395 1016 l 1,18,-1
 418 782 l 1,19,-1
 147 748 l 1,10,11
EndSplineSet
EndChar

StartChar: quotedblright
Encoding: 8221 8221 245
Width: 954
GlyphClass: 2
Flags: W
LayerCount: 2
Fore
SplineSet
799 1327 m 1,0,1
 828 1245 828 1245 828 1153 c 0,2,3
 828 944 828 944 707 777 c 1,4,-1
 539 748 l 1,5,6
 622 890 622 890 627 1047 c 1,7,-1
 551 1059 l 1,8,-1
 528 1293 l 1,9,-1
 799 1327 l 1,0,1
365 1327 m 1,10,11
 394 1245 394 1245 394 1153 c 0,12,13
 394 944 394 944 273 777 c 1,14,-1
 105 748 l 1,15,16
 188 890 188 890 193 1047 c 1,17,-1
 117 1059 l 1,18,-1
 94 1293 l 1,19,-1
 365 1327 l 1,10,11
EndSplineSet
EndChar

StartChar: quotedblbase
Encoding: 8222 8222 246
Width: 954
GlyphClass: 2
Flags: W
LayerCount: 2
Fore
SplineSet
799 296 m 1,0,1
 828 214 828 214 828 122 c 0,2,3
 828 -87 828 -87 707 -254 c 1,4,-1
 539 -283 l 1,5,6
 622 -141 622 -141 627 16 c 1,7,-1
 551 28 l 1,8,-1
 528 262 l 1,9,-1
 799 296 l 1,0,1
365 296 m 1,10,11
 394 214 394 214 394 122 c 0,12,13
 394 -87 394 -87 273 -254 c 1,14,-1
 105 -283 l 1,15,16
 188 -141 188 -141 193 16 c 1,17,-1
 117 28 l 1,18,-1
 94 262 l 1,19,-1
 365 296 l 1,10,11
EndSplineSet
EndChar

StartChar: bullet
Encoding: 8226 8226 247
Width: 721
GlyphClass: 2
Flags: W
LayerCount: 2
Fore
SplineSet
193 423 m 1,0,1
 203 549 203 549 203 642 c 128,-1,2
 203 735 203 735 201 769 c 1,3,-1
 522 800 l 1,4,5
 536 751 536 751 536 683 c 128,-1,6
 536 615 536 615 533 574 c 128,-1,7
 530 533 530 533 526 498 c 0,8,9
 516 423 516 423 501 395 c 1,10,-1
 193 423 l 1,0,1
EndSplineSet
EndChar

StartChar: ellipsis
Encoding: 8230 8230 248
Width: 1509
GlyphClass: 2
Flags: W
LayerCount: 2
Fore
SplineSet
388 175 m 0,0,1
 388 30 388 30 358 -25 c 1,2,-1
 129 -2 l 1,3,4
 137 131 137 131 137 180.5 c 128,-1,5
 137 230 137 230 135 260 c 1,6,-1
 377 285 l 1,7,8
 388 243 388 243 388 175 c 0,0,1
891 175 m 0,9,10
 891 30 891 30 861 -25 c 1,11,-1
 632 -2 l 1,12,13
 640 131 640 131 640 180.5 c 128,-1,14
 640 230 640 230 638 260 c 1,15,-1
 880 285 l 1,16,17
 891 243 891 243 891 175 c 0,9,10
1394 175 m 0,18,19
 1394 30 1394 30 1364 -25 c 1,20,-1
 1135 -2 l 1,21,22
 1143 131 1143 131 1143 180.5 c 128,-1,23
 1143 230 1143 230 1141 260 c 1,24,-1
 1383 285 l 1,25,26
 1394 243 1394 243 1394 175 c 0,18,19
EndSplineSet
EndChar

StartChar: guilsinglleft
Encoding: 8249 8249 249
Width: 684
GlyphClass: 2
Flags: W
LayerCount: 2
Fore
SplineSet
102 569 m 1,0,-1
 436 973 l 1,1,-1
 581 854 l 1,2,-1
 348 498 l 1,3,-1
 585 139 l 1,4,-1
 444 23 l 1,5,-1
 80 428 l 1,6,-1
 102 569 l 1,0,-1
EndSplineSet
EndChar

StartChar: guilsinglright
Encoding: 8250 8250 250
Width: 684
GlyphClass: 2
Flags: W
LayerCount: 2
Fore
SplineSet
322 510 m 1,0,-1
 85 869 l 1,1,-1
 226 985 l 1,2,-1
 590 580 l 1,3,-1
 568 439 l 1,4,-1
 234 35 l 1,5,-1
 89 154 l 1,6,-1
 322 510 l 1,0,-1
EndSplineSet
EndChar

StartChar: Euro
Encoding: 8364 8364 251
Width: 956
GlyphClass: 2
Flags: W
LayerCount: 2
Fore
SplineSet
650 279 m 1,0,1
 527 279 527 279 432 284 c 1,2,3
 437 194 437 194 440 167 c 1,4,-1
 833 92 l 1,5,-1
 774 -123 l 1,6,7
 695 -110 695 -110 621 -95 c 0,8,9
 340 -36 340 -36 296 -20 c 128,-1,10
 252 -4 252 -4 236.5 16 c 128,-1,11
 221 36 221 36 215 74 c 0,12,13
 204 145 204 145 199 301 c 1,14,15
 121 309 121 309 66 321 c 1,16,-1
 87 448 l 1,17,18
 134 442 134 442 196 439 c 1,19,-1
 196 487 l 2,20,21
 196 510 196 510 197 533 c 1,22,23
 133 539 133 539 85 549 c 1,24,-1
 100 682 l 1,25,26
 146 678 146 678 205 676 c 1,27,28
 222 865 222 865 234 899 c 128,-1,29
 246 933 246 933 255 944 c 0,30,31
 271 964 271 964 307.5 974.5 c 128,-1,32
 344 985 344 985 405.5 997 c 128,-1,33
 467 1009 467 1009 536 1020 c 2,34,-1
 784 1058 l 1,35,-1
 819 833 l 1,36,37
 800 831 800 831 770 828 c 2,38,-1
 632 812 l 2,39,40
 594 807 594 807 560 802 c 2,41,-1
 498 792 l 2,42,43
 470 788 470 788 455 784 c 1,44,45
 448 758 448 758 441 674 c 1,46,-1
 534 676 l 2,47,48
 686 679 686 679 736 682 c 1,49,-1
 720 528 l 1,50,51
 610 522 610 522 479 522 c 2,52,-1
 432 522 l 1,53,54
 430 498 430 498 430 478 c 2,55,-1
 430 432 l 1,56,57
 473 431 473 431 514 431 c 0,58,59
 596 431 596 431 657 431 c 128,-1,60
 718 431 718 431 741 432 c 1,61,-1
 721 280 l 1,62,-1
 650 279 l 1,0,1
EndSplineSet
EndChar

StartChar: minus
Encoding: 8722 8722 252
Width: 1155
GlyphClass: 2
Flags: W
LayerCount: 2
Fore
SplineSet
153 600 m 1,0,-1
 1040 610 l 1,1,-1
 1030 422 l 1,2,-1
 125 414 l 1,3,-1
 153 600 l 1,0,-1
EndSplineSet
EndChar

StartChar: foundryicon
Encoding: 65539 -1 253
Width: 2106
GlyphClass: 2
Flags: W
LayerCount: 2
Fore
SplineSet
1099 1110 m 1,0,-1
 1344 1113 l 1,1,2
 1542 1113 1542 1113 1642.5 1082.5 c 128,-1,3
 1743 1052 1743 1052 1803.5 1013.5 c 128,-1,4
 1864 975 1864 975 1908 916 c 0,5,6
 1999 792 1999 792 1999 579 c 0,7,8
 1999 462 1999 462 1963 353 c 128,-1,9
 1927 244 1927 244 1892.5 177 c 128,-1,10
 1858 110 1858 110 1814 58 c 0,11,12
 1718 -57 1718 -57 1605 -57 c 0,13,14
 1570 -57 1570 -57 1538 -42.5 c 128,-1,15
 1506 -28 1506 -28 1472 -10 c 0,16,17
 1383 36 1383 36 1341 36 c 128,-1,18
 1299 36 1299 36 1268 31.5 c 128,-1,19
 1237 27 1237 27 1187.5 -15.5 c 128,-1,20
 1138 -58 1138 -58 1067 -93 c 128,-1,21
 996 -128 996 -128 925 -147 c 0,22,23
 813 -177 813 -177 675 -177 c 128,-1,24
 537 -177 537 -177 439 -136.5 c 128,-1,25
 341 -96 341 -96 266 -26 c 0,26,27
 103 129 103 129 103 341 c 0,28,29
 103 421 103 421 128 462 c 128,-1,30
 153 503 153 503 171 522.5 c 128,-1,31
 189 542 189 542 204 561 c 0,32,33
 270 641 270 641 233 737 c 0,34,35
 219 773 219 773 202 808 c 128,-1,36
 185 843 185 843 170 882 c 128,-1,37
 155 921 155 921 155 982.5 c 128,-1,38
 155 1044 155 1044 192 1104.5 c 128,-1,39
 229 1165 229 1165 288 1210 c 0,40,41
 413 1305 413 1305 559 1305 c 0,42,43
 668 1305 668 1305 806 1207.5 c 128,-1,44
 944 1110 944 1110 1074 1110 c 2,45,-1
 1099 1110 l 1,0,-1
1073 603 m 1,46,47
 1077 583 1077 583 1077 562 c 0,48,49
 1077 404 1077 404 964 307 c 0,50,51
 859 218 859 218 701 218 c 0,52,53
 512 218 512 218 377 359 c 0,54,55
 335 403 335 403 305 458 c 1,56,-1
 270 446 l 1,57,58
 258 396 258 396 258 328 c 128,-1,59
 258 260 258 260 294.5 188 c 128,-1,60
 331 116 331 116 392 66 c 0,61,62
 520 -38 520 -38 708 -38 c 0,63,64
 920 -38 920 -38 1046 101 c 0,65,66
 1164 230 1164 230 1164 416 c 0,67,68
 1164 544 1164 544 1106 654 c 1,69,70
 1044 624 1044 624 978.5 624 c 128,-1,71
 913 624 913 624 881 627.5 c 128,-1,72
 849 631 849 631 820 638 c 0,73,74
 756 654 756 654 728 675 c 1,75,-1
 714 652 l 1,76,77
 732 625 732 625 752 611 c 1,78,79
 726 389 726 389 699 304 c 1,80,-1
 668 305 l 1,81,82
 656 337 656 337 656 419 c 128,-1,83
 656 501 656 501 661.5 582.5 c 128,-1,84
 667 664 667 664 685 744 c 0,85,86
 725 923 725 923 825 1037 c 1,87,88
 841 1037 841 1037 858 1031 c 128,-1,89
 875 1025 875 1025 877 1023 c 1,90,91
 766 932 766 932 766 811 c 0,92,93
 766 746 766 746 811 699 c 0,94,95
 857 651 857 651 913.5 651 c 128,-1,96
 970 651 970 651 1008 666 c 128,-1,97
 1046 681 1046 681 1072 706 c 0,98,99
 1127 759 1127 759 1127 839 c 2,100,-1
 1127 843 l 1,101,102
 1123 955 1123 955 1015 1014 c 0,103,104
 923 1064 923 1064 813.5 1064 c 128,-1,105
 704 1064 704 1064 620 1035 c 128,-1,106
 536 1006 536 1006 470 952 c 0,107,108
 324 833 324 833 324 643 c 0,109,110
 324 488 324 488 432 378 c 0,111,112
 542 266 542 266 705 266 c 0,113,114
 917 266 917 266 1003 438 c 0,115,116
 1034 500 1034 500 1039 591 c 1,117,-1
 1073 603 l 1,46,47
1166 838 m 0,118,119
 1164 830 1164 830 1164 829 c 0,120,121
 1189 796 1189 796 1237 770 c 1,122,-1
 1192 284 l 1,123,-1
 1470 284 l 1,124,125
 1472 304 1472 304 1474.5 338.5 c 128,-1,126
 1477 373 1477 373 1480 414 c 0,127,128
 1496 590 1496 590 1540 690 c 0,129,130
 1562 742 1562 742 1610 780 c 1,131,-1
 1639 742 l 1,132,133
 1594 713 1594 713 1570 668.5 c 128,-1,134
 1546 624 1546 624 1546 578.5 c 128,-1,135
 1546 533 1546 533 1578 497 c 128,-1,136
 1610 461 1610 461 1682 456 c 1,137,138
 1781 456 1781 456 1845 533 c 0,139,140
 1906 607 1906 607 1906 706 c 0,141,142
 1906 835 1906 835 1804 882 c 0,143,144
 1771 897 1771 897 1723 897 c 0,145,146
 1552 897 1552 897 1488 670 c 0,147,148
 1480 639 1480 639 1475 609 c 1,149,-1
 1437 633 l 1,150,-1
 1526 865 l 1,151,-1
 1496 893 l 1,152,153
 1350 848 1350 848 1167 839 c 0,154,155
 1166 839 1166 839 1166 838 c 0,118,119
EndSplineSet
EndChar

StartChar: commaaccent
Encoding: 65540 -1 254
Width: 373
GlyphClass: 2
Flags: W
LayerCount: 2
Fore
SplineSet
324 365 m 0,0,1
 324 174 324 174 213 31 c 1,2,-1
 84 41 l 1,3,4
 127 153 127 153 131 260 c 1,5,-1
 57 270 l 1,6,-1
 39 459 l 1,7,-1
 297 516 l 1,8,9
 324 444 324 444 324 365 c 0,0,1
EndSplineSet
EndChar

StartChar: tilde.cap
Encoding: 65541 -1 255
Width: 797
GlyphClass: 2
Flags: W
LayerCount: 2
Fore
SplineSet
469 1718 m 2,0,1
 496 1702 496 1702 513 1702 c 128,-1,2
 530 1702 530 1702 682 1811 c 1,3,-1
 758 1717 l 1,4,5
 666 1577 666 1577 568 1510 c 0,6,7
 529 1483 529 1483 498 1483 c 128,-1,8
 467 1483 467 1483 433.5 1497.5 c 128,-1,9
 400 1512 400 1512 370 1529 c 2,10,-1
 315 1560 l 1,11,12
 291 1575 291 1575 286 1575 c 128,-1,13
 281 1575 281 1575 273.5 1573.5 c 128,-1,14
 266 1572 266 1572 246 1564.5 c 128,-1,15
 226 1557 226 1557 190 1542 c 2,16,-1
 97 1501 l 1,17,-1
 33 1593 l 1,18,19
 94 1685 94 1685 202 1766 c 0,20,21
 254 1804 254 1804 281 1804 c 128,-1,22
 308 1804 308 1804 342.5 1788 c 128,-1,23
 377 1772 377 1772 410 1753 c 2,24,-1
 469 1718 l 2,0,1
EndSplineSet
EndChar

StartChar: ring.cap
Encoding: 65542 -1 256
Width: 672
GlyphClass: 2
Flags: W
LayerCount: 2
Fore
SplineSet
431.5 1382 m 128,-1,1
 389 1363 389 1363 337 1363 c 128,-1,2
 285 1363 285 1363 243 1380.5 c 128,-1,3
 201 1398 201 1398 170 1430 c 0,4,5
 106 1496 106 1496 106 1605 c 0,6,7
 106 1706 106 1706 172 1762 c 1,8,9
 235 1814 235 1814 342 1814 c 0,10,11
 497 1814 497 1814 548 1701 c 0,12,13
 565 1662 565 1662 565 1609.5 c 128,-1,14
 565 1557 565 1557 549 1512 c 128,-1,15
 533 1467 533 1467 503.5 1434 c 128,-1,0
 474 1401 474 1401 431.5 1382 c 128,-1,1
333 1523 m 0,16,17
 392 1523 392 1523 405 1591 c 1,18,19
 410 1660 410 1660 339 1660 c 0,20,21
 287 1660 287 1660 273 1624 c 0,22,23
 268 1611 268 1611 271 1588 c 128,-1,24
 274 1565 274 1565 286 1544 c 128,-1,25
 298 1523 298 1523 333 1523 c 0,16,17
EndSplineSet
EndChar

StartChar: acute.cap
Encoding: 65543 -1 257
Width: 543
GlyphClass: 2
Flags: W
LayerCount: 2
Fore
SplineSet
16 1519 m 1,0,-1
 369 1820 l 1,1,-1
 518 1634 l 1,2,3
 465 1569 465 1569 370 1515 c 0,4,5
 203 1420 203 1420 96 1396 c 1,6,-1
 16 1519 l 1,0,-1
EndSplineSet
EndChar

StartChar: grave.cap
Encoding: 65544 -1 258
Width: 543
GlyphClass: 2
Flags: W
LayerCount: 2
Fore
SplineSet
438 1404 m 1,0,1
 331 1428 331 1428 234 1484 c 0,2,3
 62 1582 62 1582 10 1646 c 1,4,-1
 174 1820 l 1,5,-1
 518 1527 l 1,6,-1
 438 1404 l 1,0,1
EndSplineSet
EndChar

StartChar: dieresis.cap
Encoding: 65545 -1 259
Width: 698
GlyphClass: 2
Flags: W
LayerCount: 2
Fore
SplineSet
235 1774 m 1,0,1
 270 1716 270 1716 270 1581 c 0,2,3
 270 1510 270 1510 258 1488 c 1,4,-1
 59 1477 l 1,5,6
 42 1623 42 1623 18 1719 c 1,7,-1
 235 1774 l 1,0,1
645 1764 m 1,8,9
 660 1732 660 1732 660 1688.5 c 128,-1,10
 660 1645 660 1645 655.5 1612.5 c 128,-1,11
 651 1580 651 1580 644 1551 c 0,12,13
 631 1490 631 1490 612 1463 c 1,14,-1
 410 1498 l 1,15,16
 427 1572 427 1572 427 1639 c 128,-1,17
 427 1706 427 1706 422 1748 c 1,18,-1
 645 1764 l 1,8,9
EndSplineSet
EndChar

StartChar: circumflex.cap
Encoding: 65546 -1 260
Width: 684
GlyphClass: 2
Flags: W
LayerCount: 2
Fore
SplineSet
332 1601 m 1,0,1
 232 1493 232 1493 129 1419 c 1,2,-1
 20 1517 l 1,3,-1
 244 1814 l 1,4,-1
 434 1820 l 1,5,-1
 665 1515 l 1,6,-1
 541 1419 l 1,7,8
 423 1517 423 1517 393 1544 c 2,9,-1
 332 1601 l 1,0,1
EndSplineSet
EndChar

StartChar: caron.cap
Encoding: 65547 -1 261
Width: 672
GlyphClass: 2
Flags: W
LayerCount: 2
Fore
SplineSet
348 1638 m 1,0,1
 429 1725 429 1725 561 1820 c 1,2,-1
 667 1724 l 1,3,-1
 428 1447 l 1,4,-1
 246 1429 l 1,5,-1
 4 1724 l 1,6,-1
 129 1820 l 1,7,-1
 236 1736 l 2,8,9
 262 1715 262 1715 289 1692 c 1,10,-1
 348 1638 l 1,0,1
EndSplineSet
EndChar
